SplineFontDB: 3.0
FontName: TlwgTypist
FullName: Tlwg Typist
FamilyName: Tlwg Typist
Weight: Medium
Copyright: Tlwg Typist, based on Poonlap Veerathanabutr's Tlwg Typewriter.\n\nCopyright (C) 2005-2007 Theppitak Karoonboonyanan.\n\nTlwg Typewriter, Free Thai Pseudo Monospace outline font.\n\nCopyright (C) 2003, 2004 Poonlap Veerathanabutr <poonlap@linux.thai.net>
UComments: "2003-11-20: Created. +AAoA-PfaEdit 1.0 (http://pfaedit.sf.net).+AAoACgAA-TLWG is Thai Linux Working Group http://linux.thai.net+AAoACgAA-This font was derived from TlwgMono.Most characters have fixed width except some vowels and tone marks.+AAoACgAA-2003-11-25: Fixed above vowel and tone mark level.+AAoA" 
Version: 001.012: 2009-06-07
ItalicAngle: 0
UnderlinePosition: -100
UnderlineWidth: 50
Ascent: 800
Descent: 200
LayerCount: 2
Layer: 0 0 "Back"  1
Layer: 1 0 "Fore"  0
NeedsXUIDChange: 1
FSType: 0
OS2Version: 0
OS2_WeightWidthSlopeOnly: 0
OS2_UseTypoMetrics: 0
CreationTime: 1153663876
ModificationTime: 1244363708
PfmFamily: 49
TTFWeight: 500
TTFWidth: 5
LineGap: 90
VLineGap: 0
Panose: 2 0 6 3 0 0 0 0 0 0
OS2TypoAscent: 0
OS2TypoAOffset: 1
OS2TypoDescent: 0
OS2TypoDOffset: 1
OS2TypoLinegap: 0
OS2WinAscent: 0
OS2WinAOffset: 1
OS2WinDescent: 0
OS2WinDOffset: 1
HheadAscent: 0
HheadAOffset: 1
HheadDescent: 0
HheadDOffset: 1
OS2Vendor: 'PfEd'
Lookup: 4 8 1 "'liga' Standard Ligatures lookup 2"  {"'liga' Standard Ligatures lookup 2"  } ['liga' ('DFLT' <'dflt' > ) ]
Lookup: 4 8 0 "'frac' Diagonal Fractions lookup 3"  {"'frac' Diagonal Fractions lookup 3"  } ['frac' ('DFLT' <'dflt' > ) ]
Lookup: 6 0 0 "'ccmp' Thai General Composition"  {"'ccmp' Thai Below Vowel Tone Reordering"  "'ccmp' Thai General Composition"  } ['ccmp' ('DFLT' <'dflt' > 'thai' <'KUY ' 'PAL ' 'THA ' 'dflt' > ) ]
Lookup: 6 0 0 "'ccmp' Thai Conditional Descender Removal"  {"'ccmp' Thai Conditional Descender Removal"  } ['ccmp' ('DFLT' <'dflt' > 'thai' <'KUY ' 'PAL ' 'THA ' 'dflt' > ) ]

StartChar: mu
Encoding: 116 181 0
Width: 600
Flags: W
HStem: -16 40<194.548 350.011> 0 40<480 540.993> 377 40<43.0066 124 337.007 439>
VStem: 124 41<-199.993 16 53.9259 377> 439 41<40 59 115 377>
LayerCount: 2
Fore
SplineSet
165 16 m 1xb8
 165 -173 l 2
 165 -191 158 -200 144 -200 c 0
 131 -200 124 -191 124 -173 c 2
 124 377 l 1
 70 377 l 2
 52 377 43 384 43 397 c 0
 43 411 52 417 70 417 c 2
 165 417 l 1
 165 115 l 2
 165 61 202 24 256 24 c 0xb8
 324 24 384 54 439 115 c 1
 439 377 l 1
 365 377 l 2
 346 377 337 384 337 397 c 0
 337 411 346 417 365 417 c 2
 480 417 l 1
 480 40 l 1
 514 40 l 2
 532 40 541 34 541 20 c 0
 541 7 532 0 514 0 c 2
 439 0 l 1x78
 439 59 l 1
 387 10 323 -16 258 -16 c 0
 217 -16 192 -8 165 16 c 1xb8
EndSplineSet
EndChar

StartChar: uni0E31
Encoding: 239 3633 1
Width: 0
Flags: W
HStem: 490 51<-289.446 -175.281> 621 45<-289.306 -218.798>
VStem: -339 45<546.372 616.306> -214 45<557.796 616.623>
AnchorPoint: "AboveMark" -130 700 basemark 0
AnchorPoint: "AboveBase" -100 500 mark 0
LayerCount: 2
Fore
SplineSet
-254 621 m 0
 -276 621 -294 603 -294 581 c 0
 -294 559 -276 541 -254 541 c 0
 -232 541 -214 559 -214 581 c 0
 -214 603 -232 621 -254 621 c 0
-254 666 m 16
 -203 666 -169 621 -169 581 c 0
 -169 571 -170 565 -173 556 c 1
 -116 562 -74 632 -49 661 c 9
 -4 613 l 17
 -48 543 -134 490 -202 490 c 0
 -278 490 -339 513 -339 581 c 0
 -339 628 -301 666 -254 666 c 16
EndSplineSet
EndChar

StartChar: uni0E34
Encoding: 242 3636 2
Width: 0
Flags: W
HStem: 626 40<-397.949 -236.692>
VStem: -495 386<500 550>
AnchorPoint: "AboveMark" -140 700 basemark 0
AnchorPoint: "AboveBase" -100 500 mark 0
LayerCount: 2
Back
SplineSet
-158 519 m 21
 -158 519 -189 626 -333 626 c 4
 -397 626 -448 561 -448 561 c 13
 -495 550 l 21
 -495 550 -433 666 -333 666 c 4
 -135 666 -109 500 -109 500 c 13
 -158 519 l 21
-109 500 m 21
 -109 500 -205.071 522.292 -261 536 c 4
 -363 561 -495 550 -495 550 c 13
 -463 586 l 21
 -463 586 -371 597 -261 576 c 4
 -204.745 565.26 -151 546 -151 546 c 13
 -109 500 l 21
EndSplineSet
Fore
SplineSet
-109 500 m 1
 -109 500 -205 522 -261 536 c 0
 -363 561 -495 550 -495 550 c 1
 -495 550 -433 666 -333 666 c 0
 -135 666 -109 500 -109 500 c 1
-421 589 m 1
 -363.16 589 -276.101 587.367 -176 554 c 1
 -199 586 -244 626 -333 626 c 0
 -368 626 -399 606 -421 589 c 1
EndSplineSet
EndChar

StartChar: uni0E35
Encoding: 243 3637 3
Width: 0
Flags: W
HStem: 626 40<-397.949 -234.25>
VStem: -172 57<611 675>
AnchorPoint: "AboveMark" -143 700 basemark 0
AnchorPoint: "AboveBase" -100 500 mark 0
LayerCount: 2
Back
SplineSet
-172 578 m 29
 -172 665 l 29
 -115 665 l 29
 -115 508 l 29
 -172 578 l 29
-109 500 m 5
 -109 500 -205 522 -261 536 c 4
 -363 561 -495 550 -495 550 c 5
 -495 550 -433 666 -333 666 c 4
 -135 666 -109 500 -109 500 c 5
-421 589 m 5
 -383 590 -325 588 -261 576 c 4
 -229 570 -197 561 -176 554 c 5
 -199 586 -244 626 -333 626 c 4
 -368 626 -399 606 -421 589 c 5
EndSplineSet
Fore
SplineSet
-421 589 m 1
 -363.16 589 -276.101 587.367 -176 554 c 1
 -199 586 -244 626 -333 626 c 0
 -368 626 -399 606 -421 589 c 1
-109 500 m 1
 -109 500 -205 522 -261 536 c 0
 -363 561 -495 550 -495 550 c 1
 -495 550 -433 666 -333 666 c 0
 -256 666 -206 641 -172 611 c 1
 -172 675 l 1
 -115 675 l 1
 -115 523 l 1
 -110 509 -109 500 -109 500 c 1
EndSplineSet
EndChar

StartChar: uni0E37
Encoding: 245 3639 4
Width: 0
Flags: W
HStem: 626 40<-397.949 -261.123>
VStem: -162 50<601 675>
AnchorPoint: "AboveMark" -177 700 basemark 0
AnchorPoint: "AboveBase" -100 500 mark 0
LayerCount: 2
Back
SplineSet
-242 633 m 29
 -242 675 l 29
 -192 675 l 29
 -192 613 l 29
 -242 633 l 29
-162 583 m 29
 -162 675 l 21
 -112 675 l 13
 -112 506 l 29
 -162 583 l 29
-109 500 m 5
 -109 500 -205 522 -261 536 c 4
 -363 561 -495 550 -495 550 c 5
 -495 550 -433 666 -333 666 c 4
 -135 666 -109 500 -109 500 c 5
-421 589 m 5
 -383 590 -325 588 -261 576 c 4
 -229 570 -197 561 -176 554 c 5
 -199 586 -244 626 -333 626 c 4
 -368 626 -399 606 -421 589 c 5
EndSplineSet
Fore
SplineSet
-421 589 m 1
 -363.16 589 -276.101 587.367 -176 554 c 1
 -199 586 -244 626 -333 626 c 0
 -368 626 -399 606 -421 589 c 1
-109 500 m 1
 -109 500 -205 522 -261 536 c 0
 -363 561 -495 550 -495 550 c 1
 -495 550 -433 666 -333 666 c 0
 -297 666 -267 661 -242 652 c 1
 -242 675 l 1
 -192 675 l 1
 -192 627 l 1
 -181 619 -171 610 -162 601 c 1
 -162 675 l 1
 -112 675 l 1
 -112 513 l 1
 -110 505 -109 500 -109 500 c 1
EndSplineSet
EndChar

StartChar: uni0E48
Encoding: 262 3656 5
Width: 0
Flags: W
VStem: -169 57<700 870>
AnchorPoint: "AboveMark" -140 700 mark 0
LayerCount: 2
Fore
SplineSet
-169 870 m 1
 -112 870 l 1
 -112 700 l 1
 -169 700 l 1
 -169 870 l 1
EndSplineSet
MultipleSubs2: "Thai Tone Nikhahit Attachment" uni0E4D uni0E48
Substitution2: "Thai Tone Low Variant" uni0E48.low
Substitution2: "Thai Sara U Mai Ek Reordering" uni0E38
Substitution2: "Thai Sara UU Mai Ek Reordering" uni0E39
Substitution2: "Thai Phinthu Mai Ek Reordering" uni0E3A
EndChar

StartChar: uni0E49
Encoding: 263 3657 6
Width: 0
Flags: W
HStem: 700 91<-310 -242> 847 28<-268.814 -215.186>
VStem: -298 28<791.935 845.992> -214 28<792.396 845.814>
AnchorPoint: "AboveMark" -140 700 mark 0
LayerCount: 2
Back
SplineSet
-310 735 m 21
 -213 789 -199 813 -213 853 c 5
 -179 839 -153 775 -310 700 c 13
 -310 735 l 21
-310 700 m 13
 -310 735 l 21
 -164 735 -92 787 -70 867 c 13
 0 867 l 21
 -38 745 -150 700 -310 700 c 13
-298 819 m 4
 -298 849.912 -272.912 875 -242 875 c 4
 -211.088 875 -186 849.912 -186 819 c 4
 -186 788.088 -211.088 763 -242 763 c 4
 -272.912 763 -298 788.088 -298 819 c 4
-270 819 m 4
 -270 803.544 -257.456 791 -242 791 c 4
 -226.544 791 -214 803.544 -214 819 c 4
 -214 834.456 -226.544 847 -242 847 c 4
 -257.456 847 -270 834.456 -270 819 c 4
EndSplineSet
Fore
SplineSet
-270 819 m 0
 -270 804 -257 791 -242 791 c 0
 -227 791 -214 804 -214 819 c 0
 -214 834 -227 847 -242 847 c 0
 -257 847 -270 834 -270 819 c 0
-298 819 m 0
 -298 850 -273 875 -242 875 c 0
 -211 875 -186 850 -186 819 c 0
 -186 787 -215.287 758.08 -242 739 c 1
 -141 754 -88 801 -70 867 c 1
 0 867 l 1
 -38 745 -150 700 -310 700 c 1
 -310 735 l 1
 -289 746 -273 756 -259 766 c 1
 -282 773 -298 794 -298 819 c 0
EndSplineSet
MultipleSubs2: "Thai Tone Nikhahit Attachment" uni0E4D uni0E49
Substitution2: "Thai Tone Low Variant" uni0E49.low
Substitution2: "Thai Sara U Mai Tho Reordering" uni0E38
Substitution2: "Thai Sara UU Mai Tho Reordering" uni0E39
Substitution2: "Thai Phinthu Mai Tho Reordering" uni0E3A
EndChar

StartChar: uni0E4A
Encoding: 264 3658 7
Width: 0
Flags: W
HStem: 690 28<-374.384 -321.008> 695 35<-183 -155.617> 774 28<-370.352 -321.186> 827 40<-376.622 -305.315 -265.532 -209.525>
VStem: -435 59<726.394 801.832> -320 28<719.186 772.814> -205 50<761.272 813.502> -131 50<764.382 867>
AnchorPoint: "AboveMark" -200 700 mark 0
LayerCount: 2
Back
SplineSet
-334 699 m 0
 -358 671 -435 724 -435 780 c 0
 -435 833 -382 867 -339 867 c 0
 -299 867 -285 822 -285 822 c 1
 -285 822 -262.916 866 -231 866 c 0
 -182 866 -155 830 -155 785 c 0
 -155 768 -163 745 -183 730 c 1
 -151 730 -131 793 -131 867 c 9
 -81 867 l 17
 -81 765 -121 695 -235 695 c 1
 -214 715 -205 759 -205 785 c 0
 -205 799 -214 826 -231 826 c 0
 -253 826 -267 805 -285 782 c 1
 -306 805 -319 827 -339 827 c 0
 -362 827 -385.644 804.012 -385 780 c 0
 -382 668 -310.571 726.333 -334 699 c 0
-404 746 m 0
 -404 777 -379 802 -348 802 c 0
 -317 802 -292 777 -292 746 c 0
 -292 715 -317 690 -348 690 c 0
 -379 690 -404 715 -404 746 c 0
-376 746 m 0
 -376 731 -363 718 -348 718 c 0
 -333 718 -320 731 -320 746 c 0
 -320 761 -333 774 -348 774 c 0
 -363 774 -376 761 -376 746 c 0
EndSplineSet
Fore
SplineSet
-376 746 m 0xbf
 -376 731 -363 718 -348 718 c 0
 -333 718 -320 731 -320 746 c 0
 -320 761 -333 774 -348 774 c 0
 -363 774 -376 761 -376 746 c 0xbf
-348 690 m 0
 -385.05 690 -435 734.972 -435 780 c 0
 -435 833 -382 867 -339 867 c 0
 -299 867 -285 822 -285 822 c 1
 -285 822 -263 866 -231 866 c 0
 -182 866 -155 830 -155 785 c 0
 -155 768 -163 745 -183 730 c 1
 -151 730 -131 793 -131 867 c 1
 -81 867 l 1
 -81 765 -121 695 -235 695 c 1x7f
 -214 715 -205 759 -205 785 c 0
 -205 799 -214 826 -231 826 c 0
 -253 826 -267 805 -285 782 c 1
 -306 805 -319 827 -339 827 c 0
 -359 827 -380 809 -384 789 c 1
 -374 797 -362 802 -348 802 c 0
 -317 802 -292 777 -292 746 c 0
 -292 715 -317 690 -348 690 c 0
EndSplineSet
MultipleSubs2: "Thai Tone Nikhahit Attachment" uni0E4D uni0E4A
Substitution2: "Thai Tone Low Variant" uni0E4A.low
Substitution2: "Thai Sara U Mai Tri Reordering" uni0E38
Substitution2: "Thai Sara UU Mai Tri Reordering" uni0E39
Substitution2: "Thai Phinthu Mai Tri Reordering" uni0E3A
EndChar

StartChar: uni0E4B
Encoding: 265 3659 8
Width: 0
Flags: W
HStem: 755 53<-219 -169 -112 -62>
VStem: -169 57<700 755 808 866>
AnchorPoint: "AboveMark" -140 700 mark 0
LayerCount: 2
Fore
SplineSet
-169 755 m 1
 -219 755 l 1
 -219 808 l 1
 -169 808 l 1
 -169 866 l 1
 -112 866 l 1
 -112 808 l 1
 -62 808 l 1
 -62 755 l 1
 -112 755 l 1
 -112 700 l 1
 -169 700 l 1
 -169 755 l 1
EndSplineSet
MultipleSubs2: "Thai Tone Nikhahit Attachment" uni0E4D uni0E4B
Substitution2: "Thai Tone Low Variant" uni0E4B.low
Substitution2: "Thai Sara U Mai Chattawa Reordering" uni0E38
Substitution2: "Thai Sara UU Mai Chattawa Reordering" uni0E39
Substitution2: "Thai Phinthu Mai Chattawa Reordering" uni0E3A
EndChar

StartChar: uni0E4C
Encoding: 266 3660 9
Width: 0
Flags: W
HStem: 690 28<-182.725 -129.275>
VStem: -212 28<719.008 773.226> -128 28<719.186 768.31> -79 50<838.172 870>
AnchorPoint: "AboveMark" -154 700 mark 0
LayerCount: 2
Back
SplineSet
-205 757 m 4
 -216 813.5 -79 815.5 -79 870 c 13
 -29 870 l 21
 -29 805 -117 781 -157 781 c 4
 -181 781 -201 736.456 -205 757 c 4
-212 746 m 4
 -212 777 -187 802 -156 802 c 4
 -125 802 -100 777 -100 746 c 4
 -100 715 -125 690 -156 690 c 4
 -187 690 -212 715 -212 746 c 4
-184 746 m 4
 -184 731 -171 718 -156 718 c 4
 -141 718 -128 731 -128 746 c 4
 -128 761 -141 774 -156 774 c 4
 -171 774 -184 761 -184 746 c 4
EndSplineSet
Fore
SplineSet
-184 746 m 0
 -184 731 -171 718 -156 718 c 0
 -141 718 -128 731 -128 746 c 0
 -128 761 -141 774 -156 774 c 0
 -171 774 -184 761 -184 746 c 0
-212 746 m 0
 -212 821.15 -79 813.357 -79 870 c 1
 -29 870 l 1
 -29 822 -76 797 -117 786 c 1
 -107 776 -100 762 -100 746 c 0
 -100 715 -125 690 -156 690 c 0
 -187 690 -212 715 -212 746 c 0
EndSplineSet
MultipleSubs2: "Thai Tone Nikhahit Attachment" uni0E4D uni0E4C
Substitution2: "Thai Tone Low Variant" uni0E4C.low
Substitution2: "Thai Sara U Thanthakhat Reordering" uni0E38
Substitution2: "Thai Sara UU Thanthakhat Reordering" uni0E39
Substitution2: "Thai Phinthu Thanthakhat Reordering" uni0E3A
EndChar

StartChar: uni0E4D
Encoding: 267 3661 10
Width: 0
Flags: W
HStem: 500 41<-232.091 -162.083> 621 47<-232.091 -162.083>
VStem: -282 45<545.766 615.725> -157 43<546.139 614.844>
AnchorPoint: "AboveMark" -197 700 basemark 0
AnchorPoint: "AboveBase" -100 500 mark 0
LayerCount: 2
Fore
SplineSet
-197 621 m 0
 -219 621 -237 603 -237 581 c 0
 -237 559 -219 541 -197 541 c 0
 -175 541 -157 559 -157 581 c 0
 -157 603 -175 621 -197 621 c 0
-197 668 m 0
 -151 668 -114 628 -114 582 c 0
 -114 536 -151 500 -197 500 c 0
 -243 500 -282 536 -282 582 c 0
 -282 628 -243 668 -197 668 c 0
EndSplineSet
Substitution2: "Thai Mark High Variant" uni0E4D.high
Substitution2: "Thai Sara U Nikhahit Reordering" uni0E38
Substitution2: "Thai Sara UU Nikhahit Reordering" uni0E39
Substitution2: "Thai Phinthu Nikhahit Reordering" uni0E3A
EndChar

StartChar: exclam
Encoding: 1 33 12
Width: 600
Flags: W
HStem: -15 100<248.859 350.824> 598 20G<288.5 311>
VStem: 240 120<-5.18018 75.1802> 261 77<212.285 614.233>
LayerCount: 2
Fore
SplineSet
338 579 m 2xd0
 338 237 l 2
 338 217 313 209 299 209 c 0
 286 209 261 218 261 237 c 2
 261 579 l 2
 261 601 277 618 300 618 c 0
 322 618 338 601 338 579 c 2xd0
293 85 m 2
 306 85 l 2
 336 85 360 63 360 35 c 0
 360 7 336 -15 306 -15 c 2
 293 -15 l 2
 263 -15 240 7 240 35 c 0xe0
 240 63 263 85 293 85 c 2
EndSplineSet
EndChar

StartChar: quotedbl
Encoding: 2 34 13
Width: 600
Flags: W
HStem: 315 289<182.861 237.139 362.861 417.139>
VStem: 146 308<577.956 604 604 604 604 604>
LayerCount: 2
Fore
SplineSet
146 604 m 1
 274 604 l 1
 240 351 l 2
 237 326 228 315 210 315 c 0
 192 315 183 326 180 351 c 2
 146 604 l 1
326 604 m 1
 454 604 l 1
 420 351 l 2
 417 326 408 315 390 315 c 0
 372 315 363 326 360 351 c 2
 326 604 l 1
EndSplineSet
EndChar

StartChar: numbersign
Encoding: 3 35 14
Width: 600
Flags: W
HStem: 189 41<92.0066 206 249 337 381 487.993> 356 41<112.007 217 261 349 392 507.993>
VStem: 92 416<210 377 320 342>
LayerCount: 2
Fore
SplineSet
390 356 m 1
 381 230 l 1
 461 230 l 2
 479 230 488 223 488 210 c 0
 488 196 479 189 461 189 c 2
 378 189 l 1
 362 -36 l 2
 361 -54 354 -62 341 -62 c 0
 330 -62 320 -51 321 -41 c 2
 337 189 l 1
 246 189 l 1
 231 -36 l 2
 229 -54 223 -62 210 -62 c 0
 199 -62 190 -53 190 -41 c 2
 206 189 l 1
 119 189 l 2
 101 189 92 196 92 210 c 0
 92 223 101 230 119 230 c 2
 208 230 l 1
 217 356 l 1
 139 356 l 2
 121 356 112 363 112 377 c 0
 112 390 121 397 139 397 c 2
 220 397 l 1
 236 622 l 2
 237 639 244 647 257 647 c 0
 271 647 278 635 276 619 c 2
 261 397 l 1
 352 397 l 1
 368 622 l 2
 369 639 375 647 388 647 c 0
 402 647 409 636 408 619 c 2
 392 397 l 1
 481 397 l 2
 499 397 508 390 508 377 c 0
 508 363 499 356 481 356 c 2
 390 356 l 1
349 356 m 1
 258 356 l 1
 249 230 l 1
 340 230 l 1
 349 356 l 1
EndSplineSet
EndChar

StartChar: dollar
Encoding: 4 36 15
Width: 600
Flags: W
HStem: 54 39<205.32 280 321 389.969> 449 21G<439.5 452.5> 538 38<227.226 280 321 386.589>
VStem: 113 41<65.0066 108 135.391 197.993> 136 41<382.837 491.91> 280 41<-91.9934 54 576 654.993> 425 41<471 505.296 534 562.993> 446 41<143.331 257.105>
LayerCount: 2
Fore
SplineSet
177 434 m 0xee
 177 290 487 399 487 201 c 0
 487 122 423 65 321 54 c 1
 321 -65 l 2
 321 -83 314 -92 301 -92 c 0
 287 -92 280 -83 280 -65 c 2
 280 54 l 1
 234 56 180 79 154 108 c 1
 154 92 l 2
 154 74 147 65 134 65 c 0
 120 65 113 74 113 92 c 2
 113 171 l 2
 113 189 120 198 134 198 c 0
 147 198 152 191 154 173 c 0
 158 130 225 93 299 93 c 0
 384 93 446 138 446 201 c 0xf5
 446 318 278 283 183 341 c 0
 154 361 136 397 136 435 c 0
 136 507 196 566 280 576 c 1
 280 628 l 2
 280 646 287 655 301 655 c 0
 314 655 321 646 321 628 c 2
 321 576 l 1
 366 572 389 562 425 534 c 1xee
 426 553 433 563 446 563 c 0xe5
 460 563 466 554 466 536 c 2
 466 476 l 2xe6
 466 458 459 449 446 449 c 0xe5
 433 449 427 455 425 471 c 0
 420 507 363 538 302 538 c 0
 233 538 177 491 177 434 c 0xee
EndSplineSet
EndChar

StartChar: percent
Encoding: 5 37 16
Width: 600
Flags: W
HStem: -12 38<306.162 416.873> 198 38<305.907 417.261> 363 38<182.162 292.67> 573 38<181.907 293.261>
VStem: 115 38<430.841 543.933> 239 38<55.8414 169.131> 322 38<430.586 544.103> 446 38<54.6445 168.929>
LayerCount: 2
Fore
SplineSet
361 236 m 0
 430 236 484 181 484 110 c 0
 484 44 428 -12 362 -12 c 0
 294 -12 239 44 239 112 c 0
 239 180 294 236 361 236 c 0
361 198 m 0
 315 198 277 160 277 112 c 0
 277 65 315 26 362 26 c 0
 408 26 446 65 446 111 c 0
 446 160 409 198 361 198 c 0
237 611 m 0
 306 611 360 556 360 486 c 0
 360 419 304 363 238 363 c 0
 170 363 115 419 115 487 c 0
 115 555 170 611 237 611 c 0
237 573 m 0
 191 573 153 534 153 487 c 0
 153 440 191 401 238 401 c 0
 283 401 322 440 322 486 c 0
 322 535 285 573 237 573 c 0
495 344 m 2
 116 222 l 2
 111 220 106 219 104 219 c 0
 96 219 87 228 87 238 c 0
 87 248 92 254 105 258 c 2
 484 380 l 2
 488 381 492 382 496 382 c 0
 505 382 513 373 513 363 c 0
 513 354 508 348 495 344 c 2
EndSplineSet
EndChar

StartChar: ampersand
Encoding: 6 38 17
Width: 600
Flags: W
HStem: -16 41<191.731 305.155> 0 41<413 477.993> 208 41<439 477.993> 251 36<157.955 216> 452 21G<341.5 384> 478 41<235.427 315.231>
VStem: 105 41<73.589 209.531> 166 41<335.842 449.065>
LayerCount: 2
Fore
SplineSet
393 0 m 1x7f
 362 48 l 1
 332 5 296 -16 250 -16 c 0xbf
 172 -16 105 57 105 142 c 0
 105 211 147 266 216 287 c 1
 171 360 166 371 166 400 c 0
 166 465 222 519 289 519 c 0
 312 519 332 513 355 499 c 1
 362 503 373 510 381 510 c 0
 391 510 400 500 400 489 c 0
 400 480 396 475 384 468 c 2
 352 452 l 1
 331 470 312 478 289 478 c 0
 246 478 207 440 207 398 c 0
 207 375 218 350 251 298 c 2
 362 121 l 1
 382 158 398 201 408 249 c 1
 451 249 l 2
 469 249 478 242 478 229 c 0
 478 215 469 208 451 208 c 2
 439 208 l 1
 425 156 406 110 386 82 c 1
 413 41 l 1
 451 41 l 2
 469 41 478 34 478 21 c 0
 478 7 469 0 451 0 c 2
 393 0 l 1x7f
338 86 m 1
 233 251 l 1
 180 239 146 197 146 142 c 0
 146 79 194 25 249 25 c 0
 284 25 316 47 338 86 c 1
EndSplineSet
EndChar

StartChar: quotesingle
Encoding: 7 39 18
Width: 600
Flags: W
HStem: 315 289<272.861 327.139>
VStem: 236 128<577.956 604 604 604 604 604>
LayerCount: 2
Fore
SplineSet
236 604 m 1
 364 604 l 1
 330 351 l 2
 327 326 318 315 300 315 c 0
 282 315 273 326 270 351 c 2
 236 604 l 1
EndSplineSet
EndChar

StartChar: parenleft
Encoding: 8 40 19
Width: 600
Flags: W
HStem: 584 20G<433 443.5>
VStem: 294 61<99.1814 380.586>
LayerCount: 2
Fore
SplineSet
355 240 m 0
 355 50 458 -83 458 -104 c 0
 458 -115 448 -124 437 -124 c 0
 427 -124 418 -114 395 -77 c 0
 327 36 294 140 294 243 c 0
 294 343 333 460 404 570 c 0
 421 597 428 604 438 604 c 0
 449 604 458 595 458 584 c 0
 458 563 355 432 355 240 c 0
EndSplineSet
EndChar

StartChar: parenright
Encoding: 9 41 20
Width: 600
Flags: W
HStem: 584 20G<162.5 173>
VStem: 250 61<99.4141 381.561>
LayerCount: 2
Fore
SplineSet
250 240 m 0
 250 433 147 562 147 584 c 0
 147 595 157 604 168 604 c 0
 178 604 187 595 210 557 c 0
 278 445 311 340 311 237 c 0
 311 137 272 20 201 -90 c 0
 184 -117 177 -124 167 -124 c 0
 156 -124 147 -115 147 -104 c 0
 147 -83 250 48 250 240 c 0
EndSplineSet
EndChar

StartChar: asterisk
Encoding: 10 42 21
Width: 600
Flags: W
HStem: 250 354<300 401 300 300>
VStem: 279 41<438 603.993>
LayerCount: 2
Fore
SplineSet
279 438 m 1
 279 577 l 2
 279 595 286 604 300 604 c 0
 313 604 320 595 320 577 c 2
 320 438 l 1
 453 481 l 2
 458 483 465 484 468 484 c 0
 478 484 487 474 487 464 c 0
 487 453 481 447 466 442 c 2
 333 400 l 1
 414 288 l 2
 418 281 421 275 421 270 c 0
 421 259 412 250 401 250 c 0
 393 250 389 253 381 264 c 2
 299 376 l 1
 218 264 l 2
 210 254 205 250 197 250 c 0
 186 250 177 259 177 271 c 0
 177 276 178 278 185 288 c 2
 266 400 l 1
 133 442 l 2
 122 445 113 450 113 463 c 0
 113 474 122 483 133 483 c 0
 137 483 139 482 146 480 c 2
 279 438 l 1
EndSplineSet
EndChar

StartChar: plus
Encoding: 11 43 22
Width: 600
Flags: W
HStem: 261 41<72.0066 279 320 527.993>
VStem: 279 41<32.0066 261 302 529.993>
LayerCount: 2
Fore
SplineSet
320 261 m 1
 320 59 l 2
 320 41 313 32 300 32 c 0
 286 32 279 41 279 59 c 2
 279 261 l 1
 99 261 l 2
 81 261 72 268 72 282 c 0
 72 295 81 302 99 302 c 2
 279 302 l 1
 279 503 l 2
 279 521 286 530 300 530 c 0
 313 530 320 521 320 503 c 2
 320 302 l 1
 500 302 l 2
 519 302 528 295 528 282 c 0
 528 268 519 261 500 261 c 2
 320 261 l 1
EndSplineSet
EndChar

StartChar: comma
Encoding: 12 44 23
Width: 600
Flags: W
HStem: -145 290<164 207 340 340>
VStem: 135 205<-116 145 -116 -116>
LayerCount: 2
Fore
SplineSet
207 145 m 1
 340 145 l 1
 195 -120 l 2
 185 -139 177 -145 164 -145 c 0
 148 -145 135 -132 135 -116 c 0
 135 -112 136 -109 137 -105 c 2
 207 145 l 1
EndSplineSet
EndChar

StartChar: hyphen
Encoding: 13 45 24
Width: 600
Flags: W
HStem: 258 41<72.0066 527.993>
VStem: 72 456<258.251 298.75>
LayerCount: 2
Fore
SplineSet
501 258 m 2
 99 258 l 2
 81 258 72 265 72 279 c 0
 72 292 81 299 99 299 c 2
 501 299 l 2
 519 299 528 292 528 279 c 0
 528 265 519 258 501 258 c 2
EndSplineSet
EndChar

StartChar: period
Encoding: 14 46 25
Width: 600
Flags: W
HStem: -15 131<243.612 356.388>
VStem: 226 148<3.02535 98.4512>
LayerCount: 2
Fore
SplineSet
295 116 m 2
 305 116 l 2
 344 116 374 88 374 51 c 0
 374 13 344 -15 305 -15 c 2
 295 -15 l 2
 256 -15 226 14 226 51 c 0
 226 88 256 116 295 116 c 2
EndSplineSet
EndChar

StartChar: slash
Encoding: 15 47 26
Width: 600
Flags: W
VStem: 113 374
LayerCount: 2
Fore
SplineSet
482 633 m 2
 155 -63 l 2
 148 -77 143 -81 133 -81 c 0
 123 -81 113 -72 113 -62 c 0
 113 -58 114 -53 118 -46 c 2
 445 650 l 2
 452 664 457 668 467 668 c 0
 477 668 487 659 487 649 c 0
 487 645 486 641 482 633 c 2
EndSplineSet
EndChar

StartChar: zero
Encoding: 16 48 27
Width: 600
Flags: W
HStem: -15 41<232.106 367.894> 577 41<232.106 367.894>
VStem: 113 41<136.764 465.84> 446 41<136.764 465.84>
LayerCount: 2
Fore
SplineSet
487 351 m 2
 487 251 l 2
 487 93 411 -15 300 -15 c 0
 189 -15 113 93 113 251 c 2
 113 351 l 2
 113 510 189 618 300 618 c 0
 411 618 487 510 487 351 c 2
154 346 m 2
 154 257 l 2
 154 193 172 125 202 79 c 0
 224 45 258 26 300 26 c 0
 342 26 376 45 398 79 c 0
 428 125 446 193 446 257 c 2
 446 346 l 2
 446 410 428 478 398 524 c 0
 376 558 342 577 300 577 c 0
 258 577 224 558 202 524 c 0
 172 478 154 410 154 346 c 2
EndSplineSet
EndChar

StartChar: one
Encoding: 17 49 28
Width: 600
Flags: W
HStem: 0 41<113.007 280 321 486.993> 592 20G<257.207 321>
VStem: 113 374<0.328125 40.6738> 280 41<41 557>
LayerCount: 2
Fore
SplineSet
321 612 m 1xd0
 321 41 l 1xd0
 460 41 l 2
 478 41 487 34 487 21 c 0
 487 7 478 0 460 0 c 2
 141 0 l 2
 123 0 113 7 113 21 c 0xe0
 113 34 122 41 141 41 c 2
 280 41 l 1
 280 557 l 1
 148 515 l 2
 144 514 136 512 134 512 c 0
 125 512 115 522 115 532 c 0
 115 543 120 549 136 554 c 2
 321 612 l 1xd0
EndSplineSet
EndChar

StartChar: two
Encoding: 18 50 29
Width: 600
Flags: W
HStem: 0 41<123 437> 577 41<210.439 364.963>
VStem: 437 41<41 103.835 382.723 512.217>
LayerCount: 2
Fore
SplineSet
104 470 m 0
 104 514 171 618 290 618 c 0
 388 618 474 537 474 446 c 0
 474 387 454 358 330 237 c 0
 243 151 180 92 123 44 c 1
 123 41 l 1
 437 41 l 1
 437 77 l 2
 437 95 444 104 458 104 c 0
 471 104 478 95 478 77 c 2
 478 0 l 1
 84 0 l 1
 84 60 l 1
 320 282 l 2
 414 374 433 402 433 447 c 0
 433 516 366 577 290 577 c 0
 222 577 160 532 144 472 c 0
 140 458 134 452 123 452 c 0
 113 452 104 461 104 470 c 0
EndSplineSet
EndChar

StartChar: three
Encoding: 19 51 30
Width: 600
Flags: W
HStem: -15 41<190.349 376.438> 312 41<261.948 335.748> 577 41<206.598 379.037>
VStem: 436 41<401.633 525.056> 458 41<100.936 235.219>
LayerCount: 2
Fore
SplineSet
125 528 m 0xf0
 125 546 189 618 301 618 c 0
 401 618 477 551 477 464 c 0xf0
 477 377.142 402 340 374 328 c 1
 452 296 499 236 499 168 c 0
 499 67 405 -15 290 -15 c 0
 204 -15 96 39 96 69 c 0
 96 79 105 88 115 88 c 0
 133 88 184 26 291 26 c 0
 382 26 458 91 458 168 c 0xe8
 458 246 376 312 279 312 c 0
 261 312 252 319 252 333 c 0
 252 346 262 353 279 353 c 0
 329 353 345 354 366 364 c 0
 408 382 436 421 436 463 c 0
 436 528 377 577 300 577 c 0
 244 577 195 557 166 523 c 0
 156 511 153 509 145 509 c 0
 134 509 125 518 125 528 c 0xf0
EndSplineSet
EndChar

StartChar: four
Encoding: 20 52 31
Width: 600
Flags: W
HStem: 0 41<273.007 376 417 477.993> 169 41<144 376 417 477.993> 563 41<352 376>
VStem: 376 41<41 169 210 563>
LayerCount: 2
Fore
SplineSet
376 169 m 1
 105 169 l 1
 105 216 l 1
 333 604 l 1
 417 604 l 1
 417 210 l 1
 451 210 l 2
 469 210 478 203 478 189 c 0
 478 176 469 169 451 169 c 2
 417 169 l 1
 417 41 l 1
 451 41 l 2
 469 41 478 34 478 21 c 0
 478 7 469 0 451 0 c 2
 300 0 l 2
 282 0 273 7 273 21 c 0
 273 34 282 41 300 41 c 2
 376 41 l 1
 376 169 l 1
376 210 m 1
 376 563 l 1
 352 563 l 1
 144 210 l 1
 376 210 l 1
EndSplineSet
EndChar

StartChar: five
Encoding: 21 53 32
Width: 600
Flags: W
HStem: -15 41<199.591 377.631> 354 41<215.41 392.398> 563 41<190 458.993>
VStem: 96 403<75 93 82 201 82 82> 149 41<365 563> 458 41<110.452 287.046>
LayerCount: 2
Fore
SplineSet
316 354 m 0xe4
 237 354 183 313 168 313 c 0
 157 313 149 322 149 335 c 2
 149 604 l 1
 431 604 l 2
 450 604 459 597 459 584 c 0
 459 570 450 563 431 563 c 2
 190 563 l 1
 190 365 l 1xec
 241 386 278 395 322 395 c 0
 424 395 499 313 499 201 c 0
 499 75 414 -15 295 -15 c 0
 194 -15 96 56 96 82 c 0xf0
 96 93 105 102 116 102 c 0
 122 102 126 100 133 93 c 0
 181 49 235 26 293 26 c 0
 391 26 458 98 458 203 c 0
 458 292 400 354 316 354 c 0xe4
EndSplineSet
EndChar

StartChar: six
Encoding: 22 54 33
Width: 600
Flags: W
HStem: -15 41<263.921 405.807> 323 41<275.338 407.638> 577 41<335.851 494.072>
VStem: 136 39<195.672 406.121> 469 41<92.9128 258.459>
LayerCount: 2
Fore
SplineSet
424 577 m 0
 322 577 175 484 175 285 c 0
 175 276 176 261 177 242 c 1
 218 324 272 364 343 364 c 0
 434 364 510 280 510 178 c 0
 510 70 434 -15 337 -15 c 0
 219 -15 136 107 136 282 c 0
 136 398 171 484 245 547 c 0
 298 593 363 618 428 618 c 0
 471 618 507 602 507 583 c 0
 507 572 499 563 488 563 c 0
 476 563 470 577 424 577 c 0
183 188 m 1
 210 84 256 26 338 26 c 0
 412 26 469 92 469 178 c 0
 469 257 412 323 342 323 c 0
 247 323 193 206 183 188 c 1
EndSplineSet
EndChar

StartChar: seven
Encoding: 23 55 34
Width: 600
Flags: W
HStem: -1 21G<289.5 300> 563 41<146 437>
VStem: 105 41<500.007 563> 437 41<533.778 563>
LayerCount: 2
Fore
SplineSet
437 545 m 1
 437 563 l 1
 146 563 l 1
 146 528 l 2
 146 509 139 500 126 500 c 0
 112 500 105 509 105 528 c 2
 105 604 l 1
 478 604 l 1
 478 539 l 1
 315 20 l 2
 310 4 305 -1 295 -1 c 0
 284 -1 275 8 275 19 c 0
 275 22 276 28 277 32 c 2
 437 545 l 1
EndSplineSet
EndChar

StartChar: eight
Encoding: 24 56 35
Width: 600
Flags: W
HStem: -15 41<222.154 377.625> 293 40<223.687 376.757> 577 41<223.799 376.201>
VStem: 113 41<91.6898 229.534> 123 41<386.931 517.923> 436 41<386.8 517.791> 446 41<91.5485 231.036>
LayerCount: 2
Fore
SplineSet
375 313 m 1xec
 448 280 487 227 487 161 c 0
 487 64 403 -15 300 -15 c 0
 197 -15 113 64 113 161 c 0xf2
 113 227 152 279 225 313 c 1
 155 349 123 392 123 453 c 0
 123 543 204 618 300 618 c 0
 396 618 477 543 477 453 c 0
 477 392 446 349 375 313 c 1xec
300 577 m 0
 224 577 164 521 164 451 c 0
 164 385 224 333 300 333 c 0
 375 333 436 385 436 450 c 0xec
 436 521 376 577 300 577 c 0
300 293 m 0
 218 293 154 235 154 161 c 0
 154 86 219 26 300 26 c 0
 380 26 446 86 446 160 c 0xf2
 446 236 383 293 300 293 c 0
EndSplineSet
EndChar

StartChar: nine
Encoding: 25 57 36
Width: 600
Flags: W
HStem: -15 41<151.928 310.149> 239 41<238.362 370.662> 577 41<240.193 382.079>
VStem: 136 41<344.541 510.087> 471 39<196.879 407.328>
LayerCount: 2
Fore
SplineSet
222 26 m 0
 324 26 471 119 471 318 c 0
 471 327 470 342 469 361 c 1
 428 279 374 239 303 239 c 0
 212 239 136 323 136 425 c 0
 136 533 212 618 309 618 c 0
 427 618 510 496 510 321 c 0
 510 205 475 119 401 56 c 0
 348 10 283 -15 218 -15 c 0
 175 -15 139 1 139 20 c 0
 139 31 147 40 158 40 c 0
 170 40 176 26 222 26 c 0
463 415 m 1
 436 519 390 577 308 577 c 0
 234 577 177 511 177 425 c 0
 177 346 234 280 304 280 c 0
 399 280 453 397 463 415 c 1
EndSplineSet
EndChar

StartChar: colon
Encoding: 26 58 37
Width: 600
Flags: W
HStem: -15 131<243.612 356.388> 285 132<243.612 356.388>
VStem: 226 148<3.02535 98.4512 303.025 398.975>
LayerCount: 2
Fore
SplineSet
295 116 m 2
 305 116 l 2
 344 116 374 88 374 51 c 0
 374 13 344 -15 305 -15 c 2
 295 -15 l 2
 256 -15 226 14 226 51 c 0
 226 88 256 116 295 116 c 2
295 417 m 2
 305 417 l 2
 344 417 374 388 374 351 c 0
 374 314 344 285 305 285 c 2
 295 285 l 2
 256 285 226 314 226 351 c 0
 226 388 256 417 295 417 c 2
EndSplineSet
EndChar

StartChar: semicolon
Encoding: 27 59 38
Width: 600
Flags: W
HStem: 285 132<219.612 332.388>
VStem: 139 211<-116 351 -116 -116> 202 148<303.025 398.975>
LayerCount: 2
Fore
SplineSet
211 145 m 1xc0
 344 145 l 1
 199 -120 l 2
 189 -139 181 -145 168 -145 c 0
 152 -145 139 -132 139 -116 c 0
 139 -112 140 -109 141 -105 c 2
 211 145 l 1xc0
271 417 m 2
 281 417 l 2
 320 417 350 388 350 351 c 0xc0
 350 314 320 285 281 285 c 2
 271 285 l 2
 232 285 202 314 202 351 c 0xa0
 202 388 232 417 271 417 c 2
EndSplineSet
EndChar

StartChar: less
Encoding: 28 60 39
Width: 600
Flags: W
HStem: 44 474<499 512 502 502 502 502>
VStem: 72 450<67 281 281 281>
LayerCount: 2
Fore
SplineSet
522 67 m 0
 522 60 514 44 502 44 c 0
 499 44 494 46 489 49 c 2
 72 281 l 1
 490 513 l 2
 495 516 499 518 502 518 c 0
 512 518 522 506 522 496 c 0
 522 488 518 483 509 478 c 2
 154 281 l 1
 509 84 l 2
 518 79 522 73 522 67 c 0
EndSplineSet
EndChar

StartChar: equal
Encoding: 29 61 40
Width: 600
Flags: W
HStem: 190 41<51.0066 548.993> 334 41<51.0066 548.993>
VStem: 51 498<190.251 230.75 334.251 374.75>
LayerCount: 2
Fore
SplineSet
522 334 m 2
 78 334 l 2
 60 334 51 341 51 355 c 0
 51 368 60 375 78 375 c 2
 522 375 l 2
 540 375 549 368 549 355 c 0
 549 341 540 334 522 334 c 2
522 190 m 2
 78 190 l 2
 60 190 51 197 51 211 c 0
 51 224 60 231 78 231 c 2
 522 231 l 2
 540 231 549 224 549 211 c 0
 549 197 540 190 522 190 c 2
EndSplineSet
EndChar

StartChar: greater
Encoding: 30 62 41
Width: 600
Flags: W
HStem: 44 474<87 101 98 98 98 98>
VStem: 78 450<281 496 496 496>
LayerCount: 2
Fore
SplineSet
78 496 m 0
 78 502 86 518 98 518 c 0
 101 518 106 516 111 513 c 2
 528 281 l 1
 110 49 l 2
 105 46 101 44 98 44 c 0
 87 44 78 56 78 67 c 0
 78 74 82 79 91 84 c 2
 446 281 l 1
 91 478 l 2
 82 483 78 489 78 496 c 0
EndSplineSet
EndChar

StartChar: question
Encoding: 31 63 42
Width: 600
Flags: W
HStem: -15 100<238.354 361.93> 536 41<201.842 390.225>
VStem: 134 41<434.007 502> 230 141<-5.07214 75.7681> 281 41<179.007 247> 446 41<363.894 485.685>
LayerCount: 2
Fore
SplineSet
134 529 m 1xec
 176 543 220 577 309 577 c 0
 415 577 487 515 487 423 c 0
 487 349 447 306 322 247 c 1
 322 206 l 2
 322 188 315 179 302 179 c 0
 288 179 281 188 281 206 c 2
 281 274 l 1
 397 323 446 366 446 423 c 0
 446 489 387 536 304 536 c 0
 259 536 227 528 175 502 c 1
 175 461 l 2
 175 443 168 434 155 434 c 0
 141 434 134 443 134 461 c 2
 134 529 l 1xec
287 85 m 2
 314 85 l 2
 348 85 371 65 371 35 c 0
 371 6 348 -15 314 -15 c 2
 287 -15 l 2
 253 -15 230 5 230 35 c 0xf4
 230 65 253 85 287 85 c 2
EndSplineSet
EndChar

StartChar: at
Encoding: 32 64 43
Width: 600
Flags: W
HStem: -62 41<227.943 396.919> 147 41<311.295 401.558 397.769 405.347 405.347 418> 376 40<333.197 418> 583 41<231.138 370.262>
VStem: 105 373<152 177 166 198 185.347 198> 105 41<84.0768 477.963> 242 41<217.307 329.986> 418 41<192 376 416 534.088>
LayerCount: 2
Fore
SplineSet
418 145 m 1xf1
 418 150 l 1
 398 148 388 147 378 147 c 0
 300 147 242 201 242 272 c 0
 242 356 316 417 418 416 c 1
 418 463 l 2
 418 533 369 583 301 583 c 0
 210 583 146 490 146 358 c 2
 146 198 l 2xf7
 146 138 163 81 193 36 c 0
 220 -3 255 -21 305 -21 c 0
 348 -21 389 -9 410 9 c 0
 421 19 422 20 429 20 c 0
 440 20 449 11 449 1 c 0
 449 -30 373 -62 299 -62 c 0
 239 -62 195 -38 159 13 c 0
 123 65 105 127 105 198 c 2xf8
 105 361 l 2
 105 513 187 624 300 624 c 0
 391 624 459 555 459 463 c 2
 459 186 l 1xf5
 471 184 478 177 478 166 c 0xf8
 478 152 469 145 451 145 c 2
 418 145 l 1xf1
418 192 m 1
 418 376 l 1
 340 376 283 333 283 273 c 0
 283 223 323 188 381 188 c 0
 392 188 406 189 418 192 c 1
EndSplineSet
EndChar

StartChar: A
Encoding: 33 65 44
Width: 600
Flags: W
HStem: 0 41<9.00659 67 108 213.993 381.007 484 527 590.993> 188 41<178 413> 522 41<99.0066 246 286 301>
LayerCount: 2
Fore
SplineSet
428 188 m 1
 162 188 l 1
 108 41 l 1
 187 41 l 2
 205 41 214 34 214 21 c 0
 214 7 205 0 187 0 c 2
 36 0 l 2
 18 0 9 7 9 21 c 0
 9 34 18 41 36 41 c 2
 67 41 l 1
 246 522 l 1
 126 522 l 2
 108 522 99 529 99 543 c 0
 99 556 108 563 126 563 c 2
 330 563 l 1
 527 41 l 1
 564 41 l 2
 582 41 591 34 591 21 c 0
 591 7 582 0 564 0 c 2
 408 0 l 2
 390 0 381 7 381 21 c 0
 381 34 390 41 408 41 c 2
 484 41 l 1
 428 188 l 1
413 229 m 1
 301 522 l 1
 286 522 l 1
 178 229 l 1
 413 229 l 1
EndSplineSet
EndChar

StartChar: B
Encoding: 34 66 45
Width: 600
Flags: W
HStem: 0 41<43.0066 124 165 446.893> 272 41<165 403.335> 522 41<43.0066 124 165 406.975>
VStem: 124 41<41 272 313 522> 458 41<360.295 476.164> 500 41<90.283 213.215>
LayerCount: 2
Fore
SplineSet
124 41 m 1
 124 522 l 1
 70 522 l 2
 52 522 43 529 43 543 c 0
 43 556 52 563 70 563 c 2
 328 563 l 2
 425 563 499 500 499 418 c 0
 499 367 473 330 414 298 c 1
 498 268 541 220 541 153 c 0
 541 69 467 0 376 0 c 2
 70 0 l 2
 52 0 43 7 43 21 c 0
 43 34 52 41 70 41 c 2
 124 41 l 1
165 313 m 1
 312 313 l 2
 397 313 458 357 458 419 c 0
 458 477 402 522 329 522 c 2
 165 522 l 1
 165 313 l 1
165 41 m 1
 373 41 l 2
 444 41 500 91 500 153 c 0
 500 194 468 272 314 272 c 2
 165 272 l 1
 165 41 l 1
EndSplineSet
EndChar

StartChar: C
Encoding: 35 67 46
Width: 600
Flags: W
HStem: -16 41<231.625 414.496> 535 41<219.444 401.266>
VStem: 63 41<156.291 416.548> 478 41<397.007 472.035 507 562.993>
LayerCount: 2
Fore
SplineSet
63 325 m 2
 63 424 139 576 305 576 c 0
 371 576 431 552 478 507 c 1
 478 536 l 2
 478 554 485 563 499 563 c 0
 512 563 519 554 519 536 c 2
 519 424 l 2
 519 406 512 397 498 397 c 0
 486 397 479 405 478 421 c 0
 474 482 394 535 305 535 c 0
 194 535 104 438 104 319 c 2
 104 248 l 2
 104 128 204 25 322 25 c 0
 391 25 442 51 496 115 c 0
 503 123 507 125 514 125 c 0
 526 125 534 117 534 106 c 0
 534 87 451 -16 322 -16 c 0
 186 -16 63 107 63 242 c 2
 63 325 l 2
EndSplineSet
EndChar

StartChar: D
Encoding: 36 68 47
Width: 600
Flags: W
HStem: 0 41<43.0066 104 145 369.873> 522 41<43.0066 104 145 374.733>
VStem: 104 41<41 522> 479 41<155.064 409.016>
LayerCount: 2
Fore
SplineSet
104 41 m 1
 104 522 l 1
 70 522 l 2
 52 522 43 529 43 543 c 0
 43 556 52 563 70 563 c 2
 290 563 l 2
 419 563 520 451 520 310 c 2
 520 254 l 2
 520 112 419 0 290 0 c 2
 70 0 l 2
 52 0 43 7 43 21 c 0
 43 34 52 41 70 41 c 2
 104 41 l 1
479 318 m 2
 479 381 434 522 288 522 c 2
 145 522 l 1
 145 41 l 1
 295 41 l 2
 391 41 479 139 479 245 c 2
 479 318 l 2
EndSplineSet
EndChar

StartChar: E
Encoding: 37 69 48
Width: 600
Flags: W
HStem: 0 41<43.0066 124 165 479> 272 41<165 310> 522 41<43.0066 124 165 458>
VStem: 124 41<41 272 313 522> 310 41<200.007 272 313 384.993> 458 41<397.007 522> 479 41<41 186.993>
LayerCount: 2
Fore
SplineSet
165 272 m 1xfc
 165 41 l 1
 479 41 l 1
 479 160 l 2
 479 178 486 187 500 187 c 0
 513 187 520 178 520 160 c 2
 520 0 l 1xfa
 70 0 l 2
 52 0 43 7 43 21 c 0
 43 34 52 41 70 41 c 2
 124 41 l 1
 124 522 l 1
 70 522 l 2
 52 522 43 529 43 543 c 0
 43 556 52 563 70 563 c 2
 499 563 l 1
 499 424 l 2
 499 406 492 397 478 397 c 0
 465 397 458 406 458 424 c 2
 458 522 l 1
 165 522 l 1
 165 313 l 1
 310 313 l 1
 310 358 l 2
 310 376 317 385 331 385 c 0
 344 385 351 376 351 358 c 2
 351 227 l 2
 351 209 344 200 331 200 c 0
 317 200 310 209 310 227 c 2
 310 272 l 1
 165 272 l 1xfc
EndSplineSet
EndChar

StartChar: F
Encoding: 38 70 49
Width: 600
Flags: W
HStem: 0 41<43.0066 124 165 330.993> 272 41<165 310> 522 41<43.0066 124 165 479>
VStem: 124 41<41 272 313 522> 310 41<200.007 272 313 384.993> 479 41<397.007 522>
LayerCount: 2
Fore
SplineSet
165 272 m 1
 165 41 l 1
 303 41 l 2
 322 41 331 34 331 21 c 0
 331 7 321 0 303 0 c 2
 70 0 l 2
 52 0 43 7 43 21 c 0
 43 34 52 41 70 41 c 2
 124 41 l 1
 124 522 l 1
 70 522 l 2
 52 522 43 529 43 543 c 0
 43 556 52 563 70 563 c 2
 520 563 l 1
 520 424 l 2
 520 406 513 397 499 397 c 0
 486 397 479 406 479 424 c 2
 479 522 l 1
 165 522 l 1
 165 313 l 1
 310 313 l 1
 310 358 l 2
 310 376 317 385 330 385 c 0
 344 385 351 376 351 358 c 2
 351 227 l 2
 351 209 344 200 330 200 c 0
 317 200 310 209 310 227 c 2
 310 272 l 1
 165 272 l 1
EndSplineSet
EndChar

StartChar: G
Encoding: 39 71 50
Width: 600
Flags: W
HStem: -16 41<222.509 450.358> 209 41<313.007 479 520 561.993> 418 21G<493.5 506.5> 535 41<224.11 418.459>
VStem: 63 41<142.727 409.337> 479 41<59 209 418.007 484.967 522 562.993>
LayerCount: 2
Fore
SplineSet
315 535 m 0
 167 535 104 401 104 317 c 2
 104 244 l 2
 104 108 192 25 336 25 c 0
 388 25 423 33 479 59 c 1
 479 209 l 1
 340 209 l 2
 322 209 313 216 313 230 c 0
 313 243 322 250 340 250 c 2
 534 250 l 2
 553 250 562 243 562 230 c 0
 562 216 553 209 534 209 c 2
 520 209 l 1
 520 36 l 1
 461 2 395 -16 333 -16 c 0
 169 -16 63 86 63 244 c 2
 63 318 l 2
 63 440 151 576 313 576 c 0
 379 576 434 558 479 522 c 1
 479 536 l 2
 479 554 486 563 500 563 c 0
 514 563 520 555 520 536 c 2
 520 445 l 2
 520 427 513 418 500 418 c 0
 487 418 481 426 480 443 c 0
 476 494 404 535 315 535 c 0
EndSplineSet
EndChar

StartChar: H
Encoding: 40 72 51
Width: 600
Flags: W
HStem: 0 41<53.0073 126 167 247.993 356.007 437 478 541.052> 272 41<167 437> 522 41<74.0066 126 167 247.993 356.007 437 478 529.993>
VStem: 126 41<41 272 313 522> 437 41<41 272 313 522>
LayerCount: 2
Fore
SplineSet
437 272 m 1
 167 272 l 1
 167 41 l 1
 221 41 l 2
 239 41 248 34 248 21 c 0
 248 7 239 0 221 0 c 2
 81 0 l 2
 63 0 53 7 53 21 c 0
 53 34 62 41 81 41 c 2
 126 41 l 1
 126 522 l 1
 101 522 l 2
 83 522 74 529 74 543 c 0
 74 556 83 563 101 563 c 2
 221 563 l 2
 239 563 248 556 248 543 c 0
 248 529 239 522 221 522 c 2
 167 522 l 1
 167 313 l 1
 437 313 l 1
 437 522 l 1
 383 522 l 2
 365 522 356 529 356 543 c 0
 356 556 365 563 383 563 c 2
 503 563 l 2
 521 563 530 556 530 543 c 0
 530 529 521 522 503 522 c 2
 478 522 l 1
 478 41 l 1
 524 41 l 2
 542 41 551 34 551 21 c 0
 551 7 541 0 524 0 c 2
 383 0 l 2
 365 0 356 7 356 21 c 0
 356 34 365 41 383 41 c 2
 437 41 l 1
 437 272 l 1
EndSplineSet
EndChar

StartChar: I
Encoding: 41 73 52
Width: 600
Flags: W
HStem: 0 41<113.007 279 320 486.993> 522 41<113.007 279 320 486.993>
VStem: 279 41<41 522>
LayerCount: 2
Fore
SplineSet
320 522 m 1
 320 41 l 1
 459 41 l 2
 478 41 487 34 487 21 c 0
 487 7 477 0 459 0 c 2
 140 0 l 2
 122 0 113 7 113 21 c 0
 113 34 122 41 140 41 c 2
 279 41 l 1
 279 522 l 1
 140 522 l 2
 122 522 113 529 113 543 c 0
 113 556 122 563 140 563 c 2
 459 563 l 2
 478 563 487 556 487 543 c 0
 487 529 478 522 459 522 c 2
 320 522 l 1
EndSplineSet
EndChar

StartChar: J
Encoding: 42 74 53
Width: 600
Flags: W
HStem: -16 41<189.821 350.434> 522 41<233.007 419 460 582.993>
VStem: 84 41<93 249.993> 419 41<92.1028 522>
LayerCount: 2
Fore
SplineSet
460 522 m 1
 460 165 l 2
 460 66 375 -16 272 -16 c 0
 208 -16 156 9 84 74 c 1
 84 223 l 2
 84 241 91 250 105 250 c 0
 118 250 125 241 125 223 c 2
 125 93 l 1
 176 47 223 25 273 25 c 0
 354 25 419 87 419 165 c 2
 419 522 l 1
 260 522 l 2
 242 522 233 529 233 543 c 0
 233 556 242 563 260 563 c 2
 556 563 l 2
 574 563 583 556 583 543 c 0
 583 529 574 522 556 522 c 2
 460 522 l 1
EndSplineSet
EndChar

StartChar: K
Encoding: 43 75 54
Width: 600
Flags: W
HStem: 0 41<43.0066 124 165 266.993 489 571.993> 522 41<43.0066 124 165 266.993 372.007 445 502 545.993>
VStem: 124 41<41 221 273 522>
LayerCount: 2
Fore
SplineSet
165 221 m 1
 165 41 l 1
 240 41 l 2
 258 41 267 34 267 21 c 0
 267 7 258 0 240 0 c 2
 70 0 l 2
 52 0 43 7 43 21 c 0
 43 34 52 41 70 41 c 2
 124 41 l 1
 124 522 l 1
 70 522 l 2
 52 522 43 529 43 543 c 0
 43 556 52 563 70 563 c 2
 240 563 l 2
 258 563 267 556 267 543 c 0
 267 529 258 522 240 522 c 2
 165 522 l 1
 165 273 l 1
 445 522 l 1
 400 522 l 2
 381 522 372 529 372 543 c 0
 372 556 381 563 400 563 c 2
 518 563 l 2
 537 563 546 556 546 543 c 0
 546 529 537 522 518 522 c 2
 502 522 l 1
 280 324 l 1
 377 284 414 233 489 41 c 1
 545 41 l 2
 563 41 572 34 572 21 c 0
 572 7 563 0 545 0 c 2
 458 0 l 1
 385 203 341 263 246 294 c 1
 165 221 l 1
EndSplineSet
EndChar

StartChar: L
Encoding: 44 76 55
Width: 600
Flags: W
HStem: 0 41<63.0066 186 227 500> 522 41<63.0066 186 227 349.993>
VStem: 186 41<41 522> 500 41<41 227.993>
LayerCount: 2
Fore
SplineSet
227 522 m 1
 227 41 l 1
 500 41 l 1
 500 201 l 2
 500 219 507 228 521 228 c 0
 534 228 541 219 541 201 c 2
 541 0 l 1
 90 0 l 2
 72 0 63 7 63 21 c 0
 63 34 72 41 90 41 c 2
 186 41 l 1
 186 522 l 1
 90 522 l 2
 72 522 63 529 63 543 c 0
 63 556 72 563 90 563 c 2
 323 563 l 2
 341 563 350 556 350 543 c 0
 350 529 341 522 323 522 c 2
 227 522 l 1
EndSplineSet
EndChar

StartChar: M
Encoding: 45 77 56
Width: 600
Flags: W
HStem: 0 41<11.0066 72 113 214.993 390.007 491 532 592.993> 522 41<20.0066 72 113 121 483 491 532 583.993>
VStem: 72 41<41 522> 491 41<41 522>
LayerCount: 2
Fore
SplineSet
326 169 m 1
 280 169 l 1
 121 522 l 1
 113 522 l 1
 113 41 l 1
 187 41 l 2
 206 41 215 34 215 21 c 0
 215 7 205 0 187 0 c 2
 38 0 l 2
 20 0 11 7 11 21 c 0
 11 34 20 41 38 41 c 2
 72 41 l 1
 72 522 l 1
 47 522 l 2
 29 522 20 529 20 543 c 0
 20 556 29 563 47 563 c 2
 146 563 l 1
 303 215 l 1
 457 563 l 1
 557 563 l 2
 575 563 584 556 584 543 c 0
 584 529 575 522 557 522 c 2
 532 522 l 1
 532 41 l 1
 566 41 l 2
 584 41 593 34 593 21 c 0
 593 7 584 0 566 0 c 2
 417 0 l 2
 399 0 390 7 390 21 c 0
 390 34 399 41 417 41 c 2
 491 41 l 1
 491 522 l 1
 483 522 l 1
 326 169 l 1
EndSplineSet
EndChar

StartChar: N
Encoding: 46 78 57
Width: 600
Flags: W
HStem: 0 41<42.0066 103 144 236.052> 522 41<22.0066 103 358.007 460 501 561.993>
VStem: 103 41<41 504> 460 41<59 522>
LayerCount: 2
Fore
SplineSet
501 0 m 1
 449 0 l 1
 144 504 l 1
 144 41 l 1
 219 41 l 2
 237 41 246 34 246 21 c 0
 246 7 236 0 219 0 c 2
 69 0 l 2
 51 0 42 7 42 21 c 0
 42 34 51 41 69 41 c 2
 103 41 l 1
 103 522 l 1
 49 522 l 2
 31 522 22 529 22 543 c 0
 22 556 31 563 49 563 c 2
 155 563 l 1
 460 59 l 1
 460 522 l 1
 386 522 l 2
 367 522 358 529 358 543 c 0
 358 556 367 563 386 563 c 2
 535 563 l 2
 553 563 562 556 562 543 c 0
 562 529 553 522 535 522 c 2
 501 522 l 1
 501 0 l 1
EndSplineSet
EndChar

StartChar: O
Encoding: 47 79 58
Width: 600
Flags: W
HStem: -16 41<219.486 379.916> 535 41<219.275 381.323>
VStem: 51 41<170.323 389.677> 508 41<168.868 388.646>
LayerCount: 2
Fore
SplineSet
300 576 m 0
 441 576 549 446 549 276 c 0
 549 115 437 -16 300 -16 c 0
 161 -16 51 115 51 280 c 0
 51 445 161 576 300 576 c 0
300 535 m 0
 185 535 92 420 92 280 c 0
 92 140 186 25 300 25 c 0
 413 25 508 140 508 277 c 0
 508 421 416 535 300 535 c 0
EndSplineSet
EndChar

StartChar: P
Encoding: 48 80 59
Width: 600
Flags: W
HStem: 0 41<43.0066 124 165 330.993> 231 41<165 384.831> 522 41<43.0066 124 165 392.645>
VStem: 124 41<41 231 272 522> 458 41<335.996 462.55>
LayerCount: 2
Fore
SplineSet
165 231 m 1
 165 41 l 1
 303 41 l 2
 322 41 331 34 331 21 c 0
 331 7 321 0 303 0 c 2
 70 0 l 2
 52 0 43 7 43 21 c 0
 43 34 52 41 70 41 c 2
 124 41 l 1
 124 522 l 1
 70 522 l 2
 52 522 43 529 43 543 c 0
 43 556 52 563 70 563 c 2
 310 563 l 2
 416 563 499 491 499 398 c 0
 499 305 410 231 296 231 c 2
 165 231 l 1
165 272 m 1
 299 272 l 2
 386 272 458 329 458 398 c 0
 458 466 393 522 314 522 c 2
 165 522 l 1
 165 272 l 1
EndSplineSet
EndChar

StartChar: Q
Encoding: 49 81 60
Width: 600
Flags: W
HStem: -115 41<361.745 504.605> -89 41<276.014 413.124> -16 41<305 378.762> 535 41<219.275 380.936>
VStem: 51 41<168.35 389.677> 508 41<170.225 389.338>
LayerCount: 2
Fore
SplineSet
442 -115 m 0xbc
 399 -115 380 -89 318 -89 c 0
 288 -89 221 -100 178 -112 c 0
 174 -113 171 -114 168 -114 c 0
 157 -114 148 -105 148 -93 c 0
 148 -86 152 -80 159 -75 c 2
 249 -10 l 1
 135 15 51 139 51 280 c 0
 51 445 161 576 300 576 c 0
 439 576 549 445 549 280 c 0
 549 116 443 -12 305 -16 c 1
 251 -56 l 1
 281 -50 297 -48 318 -48 c 0x7c
 386 -48 412 -74 445 -74 c 0
 485 -74 511 -43 526 -43 c 0
 537 -43 546 -52 546 -64 c 0
 546 -84 484 -115 442 -115 c 0xbc
300 535 m 0
 185 535 92 420 92 280 c 0
 92 140 186 25 300 25 c 0
 413 25 508 140 508 277 c 0
 508 421 416 535 300 535 c 0
EndSplineSet
EndChar

StartChar: R
Encoding: 50 82 61
Width: 600
Flags: W
HStem: 0 41<43.0066 124 165 266.993 531 588.993> 251 41<165 297> 522 41<43.0066 124 165 394.986>
VStem: 124 41<41 251 292 522> 457 41<353.157 464.555>
LayerCount: 2
Fore
SplineSet
165 251 m 1
 165 41 l 1
 240 41 l 2
 258 41 267 34 267 21 c 0
 267 7 258 0 240 0 c 2
 70 0 l 2
 52 0 43 7 43 21 c 0
 43 34 52 41 70 41 c 2
 124 41 l 1
 124 522 l 1
 70 522 l 2
 52 522 43 529 43 543 c 0
 43 556 52 563 70 563 c 2
 318 563 l 2
 415 563 498 491 498 407 c 0
 498 342 452 294 359 262 c 1
 422 219 450 182 531 41 c 1
 562 41 l 2
 580 41 589 34 589 21 c 0
 589 7 580 0 562 0 c 2
 505 0 l 1
 417 162 373 216 297 251 c 1
 165 251 l 1
165 292 m 1
 279 292 l 2
 377 292 457 344 457 408 c 0
 457 468 390 522 318 522 c 2
 165 522 l 1
 165 292 l 1
EndSplineSet
EndChar

StartChar: S
Encoding: 51 83 62
Width: 600
Flags: W
HStem: -16 41<204.849 393.734> 535 41<217.829 387.935>
VStem: 92 41<0.0065918 56 85.6182 165.993> 115 44<359.689 482.714> 445 41<406.007 483.158 517 562.993> 464 44<87.8087 216.623>
LayerCount: 2
Fore
SplineSet
445 517 m 1xd8
 445 536 l 2
 445 554 452 563 466 563 c 0
 479 563 486 554 486 536 c 2
 486 433 l 2
 486 415 479 406 466 406 c 0
 453 406 446 414 445 430 c 0
 441 490 380 535 302 535 c 0
 220 535 159 486 159 420 c 0xd8
 159 344 225 323 311 309 c 0
 388 296 416 288 446 269 c 0
 485 245 508 202 508 151 c 0
 508 54 422 -16 302 -16 c 0
 233 -16 174 9 133 56 c 1
 133 27 l 2
 133 9 126 0 112 0 c 0
 99 0 92 9 92 27 c 2
 92 139 l 2
 92 157 99 166 113 166 c 0
 126 166 132 158 133 142 c 0
 136 76 210 25 301 25 c 0
 394 25 464 79 464 153 c 0xe4
 464 251 359 262 303 271 c 0
 233 283 197 295 167 317 c 0
 134 340 115 379 115 421 c 0
 115 509 194 576 299 576 c 0
 358 576 403 558 445 517 c 1xd8
EndSplineSet
EndChar

StartChar: T
Encoding: 52 84 63
Width: 600
Flags: W
HStem: 0 41<148.007 280 321 452.993> 422 21G<85.5 99 502 515> 522 41<113 280 321 487>
VStem: 72 41<422.007 522> 280 41<41 522> 487 41<422.008 522>
LayerCount: 2
Fore
SplineSet
321 41 m 1
 426 41 l 2
 444 41 453 34 453 21 c 0
 453 7 444 0 426 0 c 2
 175 0 l 2
 157 0 148 7 148 21 c 0
 148 34 157 41 175 41 c 2
 280 41 l 1
 280 522 l 1
 113 522 l 1
 113 449 l 2
 113 431 106 422 92 422 c 0
 79 422 72 431 72 449 c 2
 72 563 l 1
 528 563 l 1
 528 449 l 2
 528 430 522 422 508 422 c 0
 496 422 487 433 487 449 c 2
 487 522 l 1
 321 522 l 1
 321 41 l 1
EndSplineSet
EndChar

StartChar: U
Encoding: 53 85 64
Width: 600
Flags: W
HStem: -16 41<220.908 378.659> 522 41<40.0066 101 142 242.993 357.007 458 499 559.993>
VStem: 101 41<105.5 522> 458 41<105.5 522>
LayerCount: 2
Fore
SplineSet
499 522 m 1
 499 185 l 2
 499 71 412 -16 300 -16 c 0
 187 -16 101 71 101 185 c 2
 101 522 l 1
 67 522 l 2
 49 522 40 529 40 543 c 0
 40 557 49 563 67 563 c 2
 216 563 l 2
 234 563 243 556 243 543 c 0
 243 529 234 522 216 522 c 2
 142 522 l 1
 142 185 l 2
 142 95 211 25 300 25 c 0
 388 25 458 95 458 185 c 2
 458 522 l 1
 384 522 l 2
 366 522 357 529 357 543 c 0
 357 557 365 563 384 563 c 2
 533 563 l 2
 552 563 560 557 560 543 c 0
 560 529 551 522 533 522 c 2
 499 522 l 1
EndSplineSet
EndChar

StartChar: V
Encoding: 54 86 65
Width: 600
Flags: W
HStem: 0 21G<259.337 332.008> 522 41<9.00659 67 110 213.993 387.007 492 533 590.993>
LayerCount: 2
Fore
SplineSet
267 0 m 1
 67 522 l 1
 36 522 l 2
 18 522 9 529 9 543 c 0
 9 557 18 563 36 563 c 2
 187 563 l 2
 205 563 214 557 214 543 c 0
 214 529 205 522 187 522 c 2
 110 522 l 1
 296 41 l 1
 299 41 l 1
 492 522 l 1
 414 522 l 2
 396 522 387 529 387 543 c 0
 387 556 395 563 414 563 c 2
 564 563 l 2
 582 563 591 557 591 543 c 0
 591 529 582 522 564 522 c 2
 533 522 l 1
 324 0 l 1
 267 0 l 1
EndSplineSet
EndChar

StartChar: W
Encoding: 55 87 66
Width: 600
Flags: W
HStem: 0 21G<119.701 190.75 406.4 478.375> 522 41<20.0066 62 103 223.993 376.007 499 538 579.993>
LayerCount: 2
Fore
SplineSet
122 0 m 1
 62 522 l 1
 47 522 l 2
 29 522 20 529 20 543 c 0
 20 556 29 563 47 563 c 2
 196 563 l 2
 215 563 224 556 224 543 c 0
 224 529 215 522 196 522 c 2
 103 522 l 1
 159 46 l 1
 271 438 l 1
 333 438 l 1
 442 46 l 1
 499 522 l 1
 403 522 l 2
 385 522 376 529 376 543 c 0
 376 556 385 563 403 563 c 2
 553 563 l 2
 571 563 580 556 580 543 c 0
 580 529 571 522 553 522 c 2
 538 522 l 1
 476 0 l 1
 412 0 l 1
 300 400 l 1
 185 0 l 1
 122 0 l 1
EndSplineSet
EndChar

StartChar: X
Encoding: 56 88 67
Width: 600
Flags: W
HStem: 0 41<40.0066 84 134 224.993 374.007 463 516 559.993> 522 41<51.0066 93 145 214.993 381.007 453 504 545.993>
LayerCount: 2
Fore
SplineSet
325 288 m 1
 516 41 l 1
 533 41 l 2
 551 41 560 34 560 21 c 0
 560 7 551 0 533 0 c 2
 401 0 l 2
 383 0 374 7 374 21 c 0
 374 34 383 41 401 41 c 2
 463 41 l 1
 298 255 l 1
 134 41 l 1
 198 41 l 2
 216 41 225 34 225 21 c 0
 225 7 216 0 198 0 c 2
 67 0 l 2
 49 0 40 7 40 21 c 0
 40 34 49 41 67 41 c 2
 84 41 l 1
 272 288 l 1
 93 522 l 1
 78 522 l 2
 60 522 51 529 51 543 c 0
 51 556 60 563 78 563 c 6
 188 563 l 2
 206 563 215 556 215 543 c 0
 215 529 206 522 188 522 c 2
 145 522 l 1
 300 321 l 1
 453 522 l 1
 408 522 l 2
 390 522 381 529 381 543 c 0
 381 556 390 563 408 563 c 2
 519 563 l 2
 537 563 546 557 546 543 c 0
 546 529 537 522 519 522 c 2
 504 522 l 1
 325 288 l 1
EndSplineSet
EndChar

StartChar: Y
Encoding: 57 89 68
Width: 600
Flags: W
HStem: 0 41<149.007 281 322 453.993> 522 41<51.0066 102 151 215.993 384.007 452 498 538.104>
VStem: 281 41<41 254>
LayerCount: 2
Fore
SplineSet
322 254 m 1
 322 41 l 1
 427 41 l 2
 445 41 454 34 454 21 c 0
 454 7 445 0 427 0 c 2
 176 0 l 2
 158 0 149 7 149 21 c 0
 149 34 158 41 176 41 c 2
 281 41 l 1
 281 254 l 1
 102 522 l 1
 78 522 l 2
 60 522 51 529 51 543 c 0
 51 556 60 563 78 563 c 2
 189 563 l 2
 207 563 216 556 216 543 c 0
 216 529 207 522 189 522 c 2
 151 522 l 1
 303 295 l 1
 452 522 l 1
 412 522 l 2
 393 522 384 529 384 543 c 0
 384 556 393 563 412 563 c 2
 522 563 l 2
 539 563 549 555 549 543 c 0
 549 530 538 522 522 522 c 2
 498 522 l 1
 322 254 l 1
EndSplineSet
EndChar

StartChar: Z
Encoding: 58 90 69
Width: 600
Flags: W
HStem: 0 41<142 456> 522 41<162 431>
VStem: 103 394<0 41> 121 41<376.007 522> 456 41<41 208.993>
LayerCount: 2
Fore
SplineSet
497 0 m 1xe0
 103 0 l 1
 103 59 l 1xe0
 431 519 l 1
 431 522 l 1
 162 522 l 1
 162 404 l 2
 162 385 155 376 142 376 c 0
 128 376 121 385 121 404 c 2
 121 563 l 1
 470 563 l 1
 470 505 l 1
 142 45 l 1
 142 41 l 1
 456 41 l 1
 456 182 l 2
 456 200 462 209 476 209 c 0
 490 209 497 200 497 182 c 2xd8
 497 0 l 1xe0
EndSplineSet
EndChar

StartChar: bracketleft
Encoding: 59 91 70
Width: 600
Flags: W
HStem: -124 41<321 444.993> 563 41<321 444.993>
VStem: 280 41<-83 563>
LayerCount: 2
Fore
SplineSet
321 563 m 1
 321 -83 l 1
 418 -83 l 2
 436 -83 445 -90 445 -103 c 0
 445 -117 436 -124 418 -124 c 2
 280 -124 l 1
 280 604 l 1
 418 604 l 2
 436 604 445 597 445 584 c 0
 445 570 436 563 418 563 c 2
 321 563 l 1
EndSplineSet
EndChar

StartChar: backslash
Encoding: 60 92 71
Width: 600
Flags: W
VStem: 113 374
LayerCount: 2
Fore
SplineSet
155 650 m 2
 482 -46 l 2
 486 -53 487 -58 487 -62 c 0
 487 -72 477 -81 467 -81 c 0
 457 -81 452 -77 445 -63 c 2
 118 633 l 2
 114 641 113 645 113 649 c 0
 113 659 123 668 134 668 c 0
 143 668 148 664 155 650 c 2
EndSplineSet
EndChar

StartChar: bracketright
Encoding: 61 93 72
Width: 600
Flags: W
HStem: -124 41<155.007 279> 563 41<155.007 279>
VStem: 279 41<-83 563>
LayerCount: 2
Fore
SplineSet
279 -83 m 1
 279 563 l 1
 182 563 l 2
 164 563 155 570 155 583 c 0
 155 597 164 604 182 604 c 2
 320 604 l 1
 320 -124 l 1
 182 -124 l 2
 164 -124 155 -117 155 -104 c 0
 155 -90 164 -83 182 -83 c 2
 279 -83 l 1
EndSplineSet
EndChar

StartChar: asciicircum
Encoding: 62 94 73
Width: 600
Flags: W
HStem: 354 261<300 467 300 300>
VStem: 113 374<363 379 374 374 374 374>
LayerCount: 2
Fore
SplineSet
300 615 m 1
 478 392 l 2
 484 385 487 379 487 374 c 0
 487 363 478 354 467 354 c 0
 459 354 454 357 447 367 c 2
 300 552 l 1
 153 367 l 2
 146 357 141 354 133 354 c 0
 122 354 113 363 113 374 c 0
 113 380 115 384 122 392 c 2
 300 615 l 1
EndSplineSet
EndChar

StartChar: underscore
Encoding: 63 95 74
Width: 600
Flags: W
HStem: -125 50<-12 612>
LayerCount: 2
Fore
SplineSet
612 -75 m 1
 612 -125 l 1
 -12 -125 l 1
 -12 -75 l 1
 612 -75 l 1
EndSplineSet
EndChar

StartChar: grave
Encoding: 64 96 75
Width: 600
Flags: W
HStem: 490 149
VStem: 155 165
LayerCount: 2
Fore
SplineSet
194 630 m 2
 308 530 l 1
 315 522 l 2
 320 517 320 517 320 511 c 0
 320 499 311 490 299 490 c 0
 294 490 288 493 281 499 c 2
 167 599 l 2
 158 607 155 611 155 619 c 0
 155 630 164 639 175 639 c 0
 181 639 186 636 194 630 c 2
EndSplineSet
EndChar

StartChar: a
Encoding: 65 97 76
Width: 600
Flags: W
HStem: -16 41<147.63 327.128> 0 41<460 540.993> 217 41<178.262 345.075> 390 41<220.065 381.887>
VStem: 72 41<57.3261 165.246> 419 41<41 67 112 202 237 357.084>
LayerCount: 2
Fore
SplineSet
296 390 m 0xbc
 232 390 156 358 144 358 c 0
 134 358 125 367 125 378 c 0
 125 388 131 395 142 399 c 0
 197 418 262 431 299 431 c 0
 392 431 460 379 460 308 c 2
 460 41 l 1
 514 41 l 2
 532 41 541 34 541 21 c 0
 541 7 532 0 514 0 c 2
 419 0 l 1x7c
 419 67 l 1
 358 10 298 -16 228 -16 c 0
 135 -16 72 36 72 112 c 0
 72 199 158 258 283 258 c 0
 329 258 360 253 419 237 c 1
 419 308 l 2
 419 357 369 390 296 390 c 0xbc
419 112 m 1
 419 202 l 1
 383 211 335 217 291 217 c 0
 185 217 113 174 113 111 c 0
 113 59 158 25 227 25 c 0xbc
 298 25 352 49 419 112 c 1
EndSplineSet
EndChar

StartChar: b
Encoding: 66 98 77
Width: 600
Flags: W
HStem: -16 41<239.605 403.046> 0 41<22.0066 103> 390 41<237.951 406.026> 563 41<22.0066 103>
VStem: 22 122<0.251221 40.7501 563.251 603.75> 103 41<41 88 120.802 294.967 328 563> 500 41<120.89 292.914>
LayerCount: 2
Fore
SplineSet
144 604 m 1x76
 144 328 l 1
 194 399 250 431 324 431 c 0
 446 431 541 334 541 210 c 0
 541 85 444 -16 324 -16 c 0xb6
 251 -16 191 18 144 88 c 1
 144 0 l 1x76
 49 0 l 2
 31 0 22 7 22 21 c 0x7a
 22 34 31 41 49 41 c 2
 103 41 l 1
 103 563 l 1x76
 49 563 l 2
 31 563 22 570 22 584 c 0x7a
 22 597 31 604 49 604 c 2
 144 604 l 1x76
322 390 m 0
 223 390 144 309 144 208 c 0
 144 107 223 25 322 25 c 0
 419 25 500 107 500 205 c 0
 500 309 422 390 322 390 c 0
EndSplineSet
EndChar

StartChar: c
Encoding: 67 99 78
Width: 600
Flags: W
HStem: -16 41<219.069 420.873> 390 41<220.324 409.244>
VStem: 84 41<116.175 295.903> 470 41<271.007 340.519 376 416.993>
LayerCount: 2
Fore
SplineSet
535 88 m 0
 535 57 432 -16 309 -16 c 0
 178 -16 84 76 84 204 c 0
 84 336 180 431 314 431 c 0
 375 431 429 412 470 376 c 1
 470 389 l 2
 470 408 477 417 491 417 c 0
 504 417 511 408 511 389 c 2
 511 298 l 2
 511 280 504 271 491 271 c 0
 478 271 472 278 470 295 c 0
 466 348 395 390 311 390 c 0
 201 390 125 315 125 205 c 0
 125 100 202 25 311 25 c 0
 384 25 446 49 498 97 c 0
 506 105 509 107 516 107 c 0
 526 107 535 98 535 88 c 0
EndSplineSet
EndChar

StartChar: d
Encoding: 68 100 79
Width: 600
Flags: W
HStem: -16 41<198.546 366.886> 0 41<502 582.993> 390 41<198.383 368.308> 563 41<380.007 461>
VStem: 63 41<120.734 294.85> 461 41<41 89 119.708 294.76 327 563>
LayerCount: 2
Fore
SplineSet
502 604 m 1xbc
 502 41 l 1
 556 41 l 2
 574 41 583 34 583 21 c 0
 583 7 574 0 556 0 c 2
 461 0 l 1x7c
 461 89 l 1
 414 19 354 -16 279 -16 c 0
 160 -16 63 85 63 208 c 0
 63 331 160 431 279 431 c 0
 354 431 412 398 461 327 c 1
 461 563 l 1
 407 563 l 2
 389 563 380 570 380 584 c 0
 380 597 389 604 407 604 c 2
 502 604 l 1xbc
282 390 m 0
 183 390 104 309 104 208 c 0
 104 106 183 25 283 25 c 0xbc
 381 25 461 106 461 206 c 0
 461 310 383 390 282 390 c 0
EndSplineSet
EndChar

StartChar: e
Encoding: 69 101 80
Width: 600
Flags: W
HStem: -16 41<214.911 416.047> 199 41<104 478> 390 41<201.192 380.4>
LayerCount: 2
Fore
SplineSet
520 199 m 1
 104 199 l 1
 118 94 198 25 306 25 c 0
 368 25 441 47 481 79 c 0
 488 84 492 86 497 86 c 0
 507 86 516 77 516 66 c 0
 516 31 396 -16 305 -16 c 0
 170 -16 63 87 63 217 c 0
 63 338 163 431 291 431 c 0
 387 431 467 380 503 297 c 0
 517 264 520 245 520 199 c 1
104 240 m 1
 478 240 l 1
 462 331 388 390 291 390 c 0
 194 390 122 332 104 240 c 1
EndSplineSet
EndChar

StartChar: f
Encoding: 70 102 81
Width: 600
Flags: W
HStem: 0 41<105.007 230 271 466.052> 376 41<115.007 230 271 486.993> 551 40<490.814 532.332> 563 41<305.324 443.134>
VStem: 230 41<41 376 417 530.17>
LayerCount: 2
Fore
SplineSet
520 551 m 0xe8
 513 551 432 563 382 563 c 0
 316 563 271 528 271 478 c 2
 271 417 l 1
 460 417 l 2
 478 417 487 410 487 397 c 0
 487 383 478 376 460 376 c 2
 271 376 l 1
 271 41 l 1
 449 41 l 2
 467 41 476 34 476 21 c 0
 476 7 466 0 449 0 c 2
 132 0 l 2
 114 0 105 7 105 21 c 0
 105 34 114 41 132 41 c 2
 230 41 l 1
 230 376 l 1
 142 376 l 2
 124 376 115 383 115 397 c 0
 115 410 124 417 142 417 c 2
 230 417 l 1
 230 478 l 2
 230 551 294 604 384 604 c 0xd8
 422 604 491 597 523 591 c 0
 535 588 541 581 541 571 c 0
 541 559 532 551 520 551 c 0xe8
EndSplineSet
EndChar

StartChar: g
Encoding: 71 103 82
Width: 600
Flags: W
HStem: -186 41<175.007 384.032> -16 41<196.951 348.509> 376 41<481 561.993> 390 41<196.731 349.165>
VStem: 63 41<120.955 294.629> 440 41<-88.125 -22 -22 87 120.152 294.317 328 376>
LayerCount: 2
Back
SplineSet
440 334 m 1xdc
 440 417 l 1
 535 417 l 2
 553 417 562 410 562 397 c 0
 562 383 553 376 535 376 c 2
 481 376 l 1xec
 481 -28 l 2
 481 -111.796 408.805 -186 316 -186 c 2
 202 -186 l 2
 184 -186 175 -179 175 -165 c 0
 175 -152 184 -145 202 -145 c 2
 318 -145 l 2
 386 -145 440 -90 440 -22 c 2
 440 107 l 1
 395 41 341 10 269 10 c 0
 156 10 63 105 63 221 c 0
 63 337 156 431 269 431 c 0
 342 431 395 401 440 334 c 1xdc
272 390 m 0xdc
 178 390 104 315 104 221 c 0
 104 126 179 51 272 51 c 0
 365 51 440 126 440 219 c 0
 440 316 367 390 272 390 c 0xdc
EndSplineSet
Fore
SplineSet
440 328 m 1xdc
 440 417 l 1
 535 417 l 2
 553 417 562 410 562 397 c 0
 562 383 553 376 535 376 c 2
 481 376 l 1xec
 481 -28 l 2
 481 -112 409 -186 316 -186 c 2
 202 -186 l 2
 184 -186 175 -179 175 -165 c 0
 175 -152 184 -145 202 -145 c 2
 318 -145 l 2
 386 -145 440 -90 440 -22 c 2
 440 87 l 1
 395 17 341 -16 269 -16 c 0
 156 -16 63 85 63 208 c 0
 63 331 156 431 269 431 c 0
 342 431 395 399 440 328 c 1xdc
272 390 m 0xdc
 178 390 104 308 104 208 c 0
 104 107 179 25 272 25 c 0
 365 25 440 107 440 206 c 0
 440 309 367 390 272 390 c 0xdc
EndSplineSet
EndChar

StartChar: h
Encoding: 72 104 83
Width: 600
Flags: W
HStem: 0 41<60.9482 124 165 237.993 365.007 437 478 550.993> 390 41<237.571 393.758> 563 41<43.0066 124>
VStem: 124 41<41 296 347 563> 437 41<41 347.047>
LayerCount: 2
Fore
SplineSet
165 604 m 1
 165 347 l 1
 216 408 258 431 319 431 c 0
 412 431 478 372 478 291 c 2
 478 41 l 1
 523 41 l 2
 542 41 551 34 551 21 c 0
 551 7 542 0 523 0 c 2
 392 0 l 2
 374 0 365 7 365 21 c 0
 365 34 374 41 392 41 c 2
 437 41 l 1
 437 288 l 2
 437 324.284 412.559 390 314 390 c 0
 254.4 390 228.593 371.365 165 296 c 1
 165 41 l 1
 210 41 l 2
 229 41 238 34 238 21 c 0
 238 7 228 0 210 0 c 2
 78 0 l 2
 61 0 51 7 51 21 c 0
 51 34 60 41 78 41 c 2
 124 41 l 1
 124 563 l 1
 70 563 l 2
 52 563 43 570 43 584 c 0
 43 597 52 604 70 604 c 2
 165 604 l 1
EndSplineSet
EndChar

StartChar: i
Encoding: 73 105 84
Width: 600
Flags: W
HStem: 0 41<92.0066 279 320 507.993> 376 41<134.007 279> 520 104<259 318>
VStem: 92 416<0.328125 40.6738> 259 59<520 624> 279 41<41 376>
LayerCount: 2
Fore
SplineSet
320 417 m 1xe4
 320 41 l 1xe4
 480 41 l 2
 499 41 508 34 508 21 c 0
 508 7 498 0 480 0 c 2
 119 0 l 2
 101 0 92 7 92 21 c 0xf0
 92 34 101 41 119 41 c 2
 279 41 l 1
 279 376 l 1
 161 376 l 2
 143 376 134 383 134 397 c 0
 134 410 143 417 161 417 c 2
 320 417 l 1xe4
318 624 m 1xe8
 318 520 l 1
 259 520 l 1
 259 624 l 1
 318 624 l 1xe8
EndSplineSet
EndChar

StartChar: j
Encoding: 74 106 85
Width: 600
Flags: W
HStem: -186 41<147.007 369.107> 376 41<149.007 417> 520 104<355 414>
VStem: 355 59<520 624> 417 41<-97.2018 376>
LayerCount: 2
Fore
SplineSet
417 376 m 1
 176 376 l 2
 158 376 149 383 149 397 c 0
 149 410 158 417 176 417 c 2
 458 417 l 1
 458 -28 l 2
 458 -121 394 -186 303 -186 c 2
 174 -186 l 2
 156 -186 147 -179 147 -165 c 0
 147 -152 156 -145 174 -145 c 2
 302 -145 l 2
 368 -145 417 -96 417 -28 c 2
 417 376 l 1
414 624 m 1
 414 520 l 1
 355 520 l 1
 355 624 l 1
 414 624 l 1
EndSplineSet
EndChar

StartChar: k
Encoding: 75 107 86
Width: 600
Flags: W
HStem: 0 41<63.0066 144 356.007 411 469 540.993> 376 41<309.007 358 419 492.993> 563 41<63.0066 144>
VStem: 63 122<0.251221 40.7501 563.251 603.75> 144 41<41 180 229 563>
LayerCount: 2
Fore
SplineSet
185 180 m 1xe8
 185 0 l 1xe8
 90 0 l 2
 72 0 63 7 63 21 c 0xf0
 63 34 72 41 90 41 c 2
 144 41 l 1
 144 563 l 1xe8
 90 563 l 2
 72 563 63 570 63 584 c 0xf0
 63 597 72 604 90 604 c 2
 185 604 l 1
 185 229 l 1
 358 376 l 1
 336 376 l 2
 318 376 309 383 309 397 c 0
 309 410 318 417 336 417 c 2
 466 417 l 2
 484 417 493 410 493 397 c 0
 493 383 484 376 466 376 c 2
 419 376 l 1
 262 245 l 1
 469 41 l 1
 514 41 l 2
 532 41 541 34 541 21 c 0
 541 7 532 0 514 0 c 2
 383 0 l 2
 365 0 356 7 356 21 c 0
 356 34 365 41 383 41 c 2
 411 41 l 1
 231 219 l 1
 185 180 l 1xe8
EndSplineSet
EndChar

StartChar: l
Encoding: 76 108 87
Width: 600
Flags: W
HStem: 0 41<92.0066 279 320 507.993> 563 41<135.007 279>
VStem: 92 416<0.328125 40.6738> 279 41<41 563>
LayerCount: 2
Fore
SplineSet
320 604 m 1xd0
 320 41 l 1xd0
 480 41 l 2
 499 41 508 34 508 21 c 0
 508 7 498 0 480 0 c 2
 119 0 l 2
 101 0 92 7 92 21 c 0xe0
 92 34 101 41 119 41 c 2
 279 41 l 1
 279 563 l 1
 162 563 l 2
 144 563 135 570 135 584 c 0
 135 597 144 604 162 604 c 2
 320 604 l 1xd0
EndSplineSet
EndChar

StartChar: m
Encoding: 77 109 88
Width: 600
Flags: W
HStem: 0 431<217 566 7 58.0518> 0 41<11.0066 72 112 163.052 322 382.993 532 592.993> 376 41<11.0066 72> 390 41<163.546 260.95 371.534 472.326>
VStem: 72 40<41 308 365 376> 282 40<41 308> 492 40<41 369.541>
CounterMasks: 1 0e
LayerCount: 2
Fore
SplineSet
112 417 m 1x6e
 112 365 l 1
 146 413 175 431 217 431 c 0
 260 431 292 408 314 360 c 1
 353 410 386 431 427 431 c 0x8e
 485 431 532 382 532 323 c 2
 532 41 l 1
 566 41 l 2x4e
 584 41 593 34 593 21 c 0
 593 7 584 0 566 0 c 2
 492 0 l 1x8e
 492 319 l 2
 492 357 461 390 426 390 c 0
 390 390 360 366 322 308 c 1
 322 41 l 1
 356 41 l 2x5e
 374 41 383 34 383 21 c 0
 383 7 374 0 356 0 c 2
 282 0 l 1x8e
 282 316 l 2
 282 355 251 390 217 390 c 0
 182 390 150 365 112 308 c 1
 112 41 l 1
 146 41 l 2
 164 41 173 34 173 21 c 0
 173 7 163 0 146 0 c 2x5e
 37 0 l 2x8e
 20 0 11 7 11 21 c 0
 11 34 20 41 38 41 c 2
 72 41 l 1
 72 376 l 1
 38 376 l 2
 20 376 11 383 11 397 c 0
 11 410 20 417 38 417 c 2
 112 417 l 1x6e
EndSplineSet
EndChar

StartChar: n
Encoding: 78 110 89
Width: 600
Flags: W
HStem: 0 41<53.0066 126 167 238.993 378.007 439 480 540.993> 376 41<65.0066 126> 390 41<239.461 395.936>
VStem: 126 41<41 294 348 376> 439 41<41 345.646>
LayerCount: 2
Fore
SplineSet
319 390 m 0xb8
 244 390 210 349 167 294 c 1
 167 41 l 1
 212 41 l 2
 230 41 239 34 239 21 c 0
 239 7 230 0 212 0 c 2
 81 0 l 2
 62 0 53 7 53 21 c 0
 53 34 62 41 81 41 c 2
 126 41 l 1
 126 376 l 1
 92 376 l 2
 74 376 65 383 65 397 c 0
 65 410 74 417 92 417 c 2
 167 417 l 1xd8
 167 348 l 1
 225 412 261 431 323 431 c 0
 412 431 480 372 480 295 c 2
 480 41 l 1
 514 41 l 2
 532 41 541 34 541 21 c 0
 541 7 532 0 514 0 c 2
 405 0 l 2
 387 0 378 7 378 21 c 0
 378 34 387 41 405 41 c 2
 439 41 l 1
 439 288 l 2
 439 321 414 390 319 390 c 0xb8
EndSplineSet
EndChar

StartChar: o
Encoding: 79 111 90
Width: 600
Flags: W
HStem: -16 41<210.671 388.897> 390 41<210.671 389.762>
VStem: 72 41<124.806 290.386> 487 41<123.612 292.179>
LayerCount: 2
Fore
SplineSet
300 431 m 0
 428 431 528 332 528 205 c 0
 528 83 426 -16 300 -16 c 0
 173 -16 72 83 72 208 c 0
 72 331 173 431 300 431 c 0
300 390 m 0
 196 390 113 309 113 208 c 0
 113 106 196 25 300 25 c 0
 403 25 487 106 487 205 c 0
 487 310 405 390 300 390 c 0
EndSplineSet
EndChar

StartChar: p
Encoding: 80 112 91
Width: 600
Flags: W
HStem: -186 41<22.0066 103 144 268.993> -16 41<241.064 400.567> 376 41<22.0066 103> 390 41<241.29 404.118>
VStem: 103 41<-145 88 124.719 291.069 328 376> 500 41<125.366 290.931>
LayerCount: 2
Back
SplineSet
144 417 m 1xec
 144 335 l 1
 197 404 247 431 323 431 c 0xdc
 447 431 541 340 541 221 c 0
 541 102 446 10 323 10 c 0
 246 10 190 40 144 106 c 1
 144 -145 l 1
 242 -145 l 2
 260 -145 269 -152 269 -165 c 0
 269 -179 260 -186 242 -186 c 2
 49 -186 l 2
 31 -186 22 -179 22 -165 c 0
 22 -152 31 -145 49 -145 c 2
 103 -145 l 1
 103 376 l 1
 49 376 l 2
 31 376 22 383 22 397 c 0
 22 410 31 417 49 417 c 2
 144 417 l 1xec
322 390 m 0
 223 390 144 315 144 221 c 0
 144 126 223 51 322 51 c 0
 420 51 500 126 500 219 c 0
 500 316 423 390 322 390 c 0
EndSplineSet
Fore
SplineSet
322 390 m 0xdc
 223 390 144 309 144 208 c 0
 144 107 223 25 322 25 c 0
 419 25 500 107 500 205 c 0
 500 309 422 390 322 390 c 0xdc
144 88 m 1
 144 -145 l 1
 242 -145 l 2
 260 -145 269 -152 269 -165 c 0
 269 -179 260 -186 242 -186 c 2
 49 -186 l 2
 31 -186 22 -179 22 -165 c 0
 22 -152 31 -145 49 -145 c 2
 103 -145 l 1
 103 376 l 1
 49 376 l 2
 31 376 22 383 22 397 c 0
 22 410 31 417 49 417 c 2
 144 417 l 1xec
 144 328 l 1
 194 400 250 431 324 431 c 0
 446 431 541 334 541 210 c 0
 541 85 444 -16 324 -16 c 0
 251 -16 191 19 144 88 c 1
EndSplineSet
EndChar

StartChar: q
Encoding: 81 113 92
Width: 600
Flags: W
HStem: -186 41<336.007 461 502 582.993> -16 41<200.463 363.507> 376 41<502 582.993> 390 41<200.29 364.939>
VStem: 63 41<125.218 290.386> 461 41<-145 89 123.583 290.814 327 376>
LayerCount: 2
Back
SplineSet
461 335 m 1xdc
 461 417 l 1
 556 417 l 2
 574 417 583 410 583 397 c 0
 583 383 574 376 556 376 c 2
 502 376 l 1xec
 502 -145 l 1
 556 -145 l 2
 574 -145 583 -152 583 -165 c 0
 583 -179 574 -186 556 -186 c 2
 363 -186 l 2
 345 -186 336 -179 336 -165 c 0
 336 -152 345 -145 363 -145 c 2
 461 -145 l 1
 461 106 l 1
 415 40 359 10 281 10 c 0
 158 10 63 102 63 221 c 0
 63 340 158 431 282 431 c 0
 359 431 414 401 461 335 c 1xdc
282 390 m 0xdc
 182 390 104 316 104 221 c 0
 104 126 182 51 282 51 c 0
 381 51 461 126 461 219 c 0
 461 316 383 390 282 390 c 0xdc
EndSplineSet
Fore
SplineSet
282 390 m 0xdc
 183 390 104 309 104 208 c 0
 104 106 183 25 283 25 c 0
 381 25 461 106 461 206 c 0
 461 310 383 390 282 390 c 0xdc
461 89 m 1
 414 20 354 -16 279 -16 c 0
 160 -16 63 85 63 208 c 0
 63 331 160 431 279 431 c 0xdc
 354 431 412 399 461 327 c 1
 461 417 l 1
 556 417 l 2
 574 417 583 410 583 397 c 0
 583 383 574 376 556 376 c 2
 502 376 l 1xec
 502 -145 l 1
 556 -145 l 2
 574 -145 583 -152 583 -165 c 0
 583 -179 574 -186 556 -186 c 2
 363 -186 l 2
 345 -186 336 -179 336 -165 c 0
 336 -152 345 -145 363 -145 c 2
 461 -145 l 1
 461 89 l 1
EndSplineSet
EndChar

StartChar: r
Encoding: 82 114 93
Width: 600
Flags: W
HStem: 0 41<84.0073 207 248 453.993> 376 41<105.007 207> 386 41<371.957 489.897>
VStem: 207 41<41 262 315 376>
LayerCount: 2
Fore
SplineSet
520 344 m 0xb0
 502 344 482 386 438 386 c 0xb0
 393 386 358 363 248 262 c 1
 248 41 l 1
 427 41 l 2
 444 41 454 33 454 20 c 0
 454 8 444 0 427 0 c 2
 111 0 l 2
 94 0 84 8 84 21 c 0
 84 33 94 41 111 41 c 2
 207 41 l 1
 207 376 l 1
 132 376 l 2
 115 376 105 384 105 397 c 0
 105 409 115 417 132 417 c 2
 248 417 l 1xd0
 248 315 l 1
 341 399 390 427 441 427 c 0
 470 427 492 418 518 396 c 0
 535 382 541 374 541 365 c 0
 541 353 532 344 520 344 c 0xb0
EndSplineSet
EndChar

StartChar: s
Encoding: 83 115 94
Width: 600
Flags: W
HStem: -16 41<197.269 396.857> 390 41<208.379 392.203>
VStem: 103 41<0.0065918 38 66.6149 136.993> 124 45<277.368 357.759> 432 41<316 354.67 385 416.992> 452 45<68.8475 163.349>
LayerCount: 2
Fore
SplineSet
432 385 m 1xd8
 432 389 l 2
 432 406 440 417 453 417 c 0
 466 417 473 408 473 389 c 2
 473 320 l 2
 473 302 466 293 453 293 c 0
 441 293 434 300 432 316 c 0
 427 361 375 390 299 390 c 0
 225 390 169 358 169 315 c 0xd8
 169 299 180 282 201 270 c 0
 258 233 363 261 447 206 c 0
 478 185 497 151 497 116 c 0
 497 40 414 -16 301 -16 c 0
 236 -16 186 1 144 38 c 1
 144 27 l 2xe4
 144 9 137 0 124 0 c 0xd0
 110 0 103 9 103 27 c 2
 103 110 l 2xe0
 103 128 110 137 124 137 c 0xd0
 136 137 144 128 144 115 c 2
 144 108 l 2
 144 62 213 25 298 25 c 0
 386 25 452 64 452 117 c 0xe4
 452 140 435 165 408 180 c 0
 335 219 240 197 170 239 c 0
 142 257 124 287 124 318 c 0
 124 383 197 431 295 431 c 0
 352 431 397 416 432 385 c 1xd8
EndSplineSet
EndChar

StartChar: t
Encoding: 84 116 95
Width: 600
Flags: W
HStem: -16 41<218.542 421.07> 376 41<43.0066 145 186 432.993> 543 20G<159 173>
VStem: 145 41<56.1406 376 417 562.993>
LayerCount: 2
Fore
SplineSet
186 417 m 1
 406 417 l 2
 424 417 433 410 433 397 c 0
 433 383 424 376 406 376 c 2
 186 376 l 1
 186 109 l 2
 186 58 229 25 298 25 c 0
 354 25 425 42 464 65 c 0
 472 70 475 71 480 71 c 0
 490 71 499 61 499 51 c 0
 499 22 385 -16 300 -16 c 0
 206 -16 145 32 145 107 c 2
 145 376 l 1
 71 376 l 2
 52 376 43 383 43 397 c 0
 43 410 52 417 71 417 c 2
 145 417 l 1
 145 536 l 2
 145 554 152 563 166 563 c 0
 180 563 186 555 186 536 c 2
 186 417 l 1
EndSplineSet
EndChar

StartChar: u
Encoding: 85 117 96
Width: 600
Flags: W
HStem: -16 41<198.63 346.339> 0 41<480 540.993> 376 41<43.0066 124 337.007 439>
VStem: 124 41<59.3106 376> 439 41<41 66 115 376> 439 102<0.251221 40.7501>
LayerCount: 2
Fore
SplineSet
439 0 m 1x74
 439 66 l 1
 384 12 323 -16 257 -16 c 0
 177 -16 124 36 124 115 c 2
 124 376 l 1
 70 376 l 2
 52 376 43 383 43 397 c 0
 43 410 52 417 70 417 c 2
 165 417 l 1
 165 115 l 2
 165 65 205 25 256 25 c 0xb8
 323 25 384 55 439 115 c 1
 439 376 l 1
 365 376 l 2
 346 376 337 383 337 397 c 0
 337 410 346 417 365 417 c 2
 480 417 l 1
 480 41 l 1x78
 514 41 l 2
 532 41 541 34 541 21 c 0
 541 7 532 0 514 0 c 2
 439 0 l 1x74
EndSplineSet
EndChar

StartChar: v
Encoding: 86 118 97
Width: 600
Flags: W
HStem: 0 21G<257.064 344.83> 376 41<30.0066 98 143 235.993 364.007 459 502 569.993>
LayerCount: 2
Fore
SplineSet
336 0 m 1
 266 0 l 1
 98 376 l 1
 57 376 l 2
 39 376 30 383 30 397 c 0
 30 410 39 417 57 417 c 2
 208 417 l 2
 227 417 236 410 236 397 c 0
 236 383 227 376 208 376 c 2
 143 376 l 1
 293 41 l 1
 312 41 l 1
 459 376 l 1
 391 376 l 2
 373 376 364 383 364 397 c 0
 364 410 373 417 391 417 c 2
 543 417 l 2
 561 417 570 410 570 397 c 0
 570 383 561 376 543 376 c 2
 502 376 l 1
 336 0 l 1
EndSplineSet
EndChar

StartChar: w
Encoding: 87 119 98
Width: 600
Flags: W
HStem: 0 21G<155.532 217.873 383.973 445.415> 376 41<30.0066 76 115 194.993 405.007 482 524 569.993>
LayerCount: 2
Fore
SplineSet
441 0 m 1
 391 0 l 1
 300 259 l 1
 211 0 l 1
 160 0 l 1
 76 376 l 1
 57 376 l 2
 39 376 30 383 30 397 c 0
 30 410 39 417 57 417 c 2
 168 417 l 2
 186 417 195 410 195 397 c 0
 195 383 186 376 168 376 c 2
 115 376 l 1
 187 56 l 1
 273 311 l 1
 324 311 l 1
 413 56 l 1
 482 376 l 1
 432 376 l 2
 414 376 405 383 405 397 c 0
 405 410 414 417 432 417 c 2
 543 417 l 2
 561 417 570 410 570 397 c 0
 570 383 561 376 543 376 c 2
 524 376 l 1
 441 0 l 1
EndSplineSet
EndChar

StartChar: x
Encoding: 88 120 99
Width: 600
Flags: W
HStem: 0 41<51.0066 87 143 237.993 363.007 455 513 548.993> 376 41<74.0066 108 166 238.993 362.007 437 492 525.993>
VStem: 51 498<7 34 21 21 282.007 357>
LayerCount: 2
Fore
SplineSet
329 219 m 1
 513 41 l 1
 522 41 l 2
 540 41 549 34 549 21 c 0
 549 7 540 0 522 0 c 2
 390 0 l 2
 372 0 363 7 363 21 c 0
 363 34 372 41 390 41 c 2
 455 41 l 1
 300 190 l 1
 143 41 l 1
 211 41 l 2
 229 41 238 34 238 21 c 0
 238 7 229 0 211 0 c 2
 78 0 l 2
 60 0 51 7 51 21 c 4
 51 34 60 41 78 41 c 2
 87 41 l 1
 271 219 l 1
 108 376 l 1
 101 376 l 2
 83 376 74 383 74 397 c 0
 74 410 83 417 101 417 c 2
 212 417 l 2
 230 417 239 411 239 397 c 0
 239 383 230 376 212 376 c 2
 166 376 l 1
 300 246 l 1
 437 376 l 1
 389 376 l 2
 371 376 362 383 362 397 c 0
 362 410 371 417 389 417 c 2
 499 417 l 2
 517 417 526 410 526 397 c 0
 526 383 517 376 499 376 c 2
 492 376 l 1
 329 219 l 1
EndSplineSet
EndChar

StartChar: y
Encoding: 89 121 100
Width: 600
Flags: W
HStem: -186 41<57.0066 211 252 343.993> 376 41<51.0066 94 141 219.993 385.007 466 508 548.993>
VStem: 51 498<383 410 397 397 704.007 785>
LayerCount: 2
Fore
SplineSet
282 0 m 1
 94 376 l 1
 78 376 l 2
 60 376 51 383 51 397 c 0
 51 410 60 417 78 417 c 2
 193 417 l 2
 211 417 220 410 220 397 c 0
 220 383 211 376 193 376 c 2
 141 376 l 1
 305 45 l 1
 466 376 l 1
 412 376 l 2
 394 376 385 383 385 397 c 0
 385 410 394 417 412 417 c 2
 522 417 l 2
 540 417 549 410 549 397 c 0
 549 383 540 376 522 376 c 2
 508 376 l 1
 252 -145 l 1
 317 -145 l 2
 335 -145 344 -152 344 -165 c 0
 344 -179 335 -186 317 -186 c 2
 84 -186 l 2
 66 -186 57 -179 57 -165 c 0
 57 -152 66 -145 84 -145 c 2
 211 -145 l 1
 282 0 l 1
EndSplineSet
EndChar

StartChar: z
Encoding: 90 122 101
Width: 600
Flags: MW
HStem: 0 41<171 448> 376 41<165 416>
VStem: 115 374<0 36 0 97 1.53064e-18 1.53064e-18> 124 41<294.007 376> 448 41<41 123.993>
LayerCount: 2
Fore
SplineSet
474 417 m 1
 474 381 l 1
 171 41 l 1
 448 41 l 1
 448 97 l 2
 448 115 455 124 469 124 c 0
 482 124 489 115 489 97 c 2
 489 0 l 1
 115 0 l 1
 115 36 l 1
 416 376 l 1
 165 376 l 1
 165 321 l 2
 165 303 158 294 145 294 c 0
 131 294 124 303 124 321 c 2
 124 417 l 1
 474 417 l 1
EndSplineSet
EndChar

StartChar: braceleft
Encoding: 91 123 102
Width: 600
Flags: W
HStem: -124 41<338.293 402.993> 563 41<338.293 402.993>
VStem: 281 41<-67.2462 203.375 276.625 547.246>
LayerCount: 2
Fore
SplineSet
322 499 m 2
 322 326 l 2
 322 285 311 264 278 240 c 1
 311 216 322 195 322 154 c 2
 322 -19 l 2
 322 -53 345 -80 377 -83 c 0
 396 -85 403 -90 403 -104 c 0
 403 -116 394 -124 379 -124 c 0
 324 -124 281 -78 281 -19 c 2
 281 154 l 2
 281 190 257 216 221 219 c 0
 205 220 197 226 197 240 c 0
 197 253 205 260 221 261 c 0
 257 264 281 289 281 326 c 2
 281 499 l 2
 281 558 324 604 379 604 c 0
 394 604 403 596 403 584 c 0
 403 570 396 565 377 563 c 0
 345 560 322 533 322 499 c 2
EndSplineSet
EndChar

StartChar: bar
Encoding: 92 124 103
Width: 600
Flags: W
HStem: 584 20G<293.5 306.5>
VStem: 280 40<-123.993 603.993>
LayerCount: 2
Fore
SplineSet
320 577 m 2
 320 -97 l 2
 320 -115 313 -124 300 -124 c 0
 287 -124 280 -115 280 -97 c 2
 280 577 l 2
 280 595 287 604 300 604 c 0
 313 604 320 595 320 577 c 2
EndSplineSet
EndChar

StartChar: braceright
Encoding: 93 125 104
Width: 600
Flags: W
HStem: -124 41<197.007 261.707> 563 41<197.007 261.707>
VStem: 278 41<-67.2462 203.375 276.625 547.246>
LayerCount: 2
Fore
SplineSet
278 -19 m 2
 278 154 l 2
 278 195 289 216 322 240 c 1
 289 264 278 285 278 326 c 2
 278 499 l 2
 278 533 255 560 223 563 c 0
 204 565 197 570 197 584 c 0
 197 596 206 604 221 604 c 0
 276 604 319 558 319 499 c 2
 319 326 l 2
 319 290 343 264 379 261 c 0
 395 260 403 254 403 240 c 0
 403 227 395 220 379 219 c 0
 343 216 319 191 319 154 c 2
 319 -19 l 2
 319 -78 276 -124 221 -124 c 0
 206 -124 197 -116 197 -104 c 0
 197 -90 204 -85 223 -83 c 0
 255 -80 278 -53 278 -19 c 2
EndSplineSet
EndChar

StartChar: asciitilde
Encoding: 94 126 105
Width: 600
Flags: W
HStem: 212 41<341.927 431.703> 307 41<167.162 260.813>
VStem: 92 416<249 311 249 249>
LayerCount: 2
Fore
SplineSet
212 307 m 0
 157 307 141 230 111 230 c 0
 101 230 92 239 92 249 c 0
 92 260.292 144.2 348 212 348 c 0
 287.343 348 338.524 253 386 253 c 0
 441.144 253 461.962 330 488 330 c 0
 499 330 508 321 508 311 c 0
 508 299 451 212 389 212 c 0
 317 212 267 307 212 307 c 0
EndSplineSet
EndChar

StartChar: exclamdown
Encoding: 96 161 107
Width: 600
Flags: W
HStem: 317 100<249.176 351.141>
VStem: 240 120<326.82 407.18> 261 79<-211.819 -161.374>
LayerCount: 2
Fore
SplineSet
262 -161 m 2xa0
 280 165 l 2
 281 185 287 193 301 193 c 0
 314 193 320 184 321 165 c 2
 339 -161 l 2
 340 -168 340 -173 340 -177 c 0
 340 -199 323 -216 300 -216 c 0
 278 -216 261 -199 261 -177 c 0
 261 -175 261 -169 262 -161 c 2xa0
307 317 m 2
 294 317 l 2
 264 317 240 339 240 367 c 0
 240 395 264 417 294 417 c 2
 307 417 l 2
 337 417 360 395 360 367 c 0xc0
 360 339 337 317 307 317 c 2
EndSplineSet
EndChar

StartChar: cent
Encoding: 97 162 108
Width: 600
Flags: W
HStem: -13 21G<294 307.5> 127 88<321 450> 458 39<321 392.73>
VStem: 113 356<195 311 195 311 311 311> 113 41<234.894 388.476> 280 41<-12.9934 127 497 629.993> 426 40<364.007 387 387 426.944>
LayerCount: 2
Fore
SplineSet
307 165 m 0xee
 399 165 432 215 450 215 c 0
 461 215 469 207 469 195 c 0xf0
 469 168 388 130 321 127 c 1
 321 14 l 2
 321 -4 314 -13 301 -13 c 0
 287 -13 280 -4 280 14 c 2
 280 127 l 1xe4
 183 138 113 216 113 311 c 0xf0
 113 373 143 429 194 463 c 0
 217 478 238 487 280 496 c 1
 280 603 l 2
 280 621 287 630 301 630 c 0
 314 630 321 621 321 603 c 2
 321 497 l 1
 359 497 400 483 425 461 c 1
 428 472 435 478 445 478 c 0
 458 478 466 469 466 453 c 2
 466 392 l 2
 466 373 459 364 446 364 c 0
 434 364 428 371 426 387 c 0
 420 430 375 458 311 458 c 0
 220 458 154 397 154 311 c 0
 154 227 219 165 307 165 c 0xee
EndSplineSet
EndChar

StartChar: sterling
Encoding: 98 163 109
Width: 600
Flags: W
HStem: 0 41<86.0066 147.781 182 470.401> 273 41<63.0066 184 234 350.993> 537 41<239.627 360.155>
VStem: 157 41<402.041 496.231> 198 41<105.261 253.23 253.15 253.311 253.311 273> 479 41<48.8313 106.105>
LayerCount: 2
Fore
SplineSet
198 435 m 0
 198 411 201 398 225 314 c 1
 324 314 l 2
 342 314 351 307 351 293 c 0
 351 280 342 273 324 273 c 2
 234 273 l 1
 237 252 239 234 239 216 c 0
 239 148 219 87 182 41 c 1
 434 41 l 2
 459 41 477 60 479 92 c 0
 481 108 487 115 500 115 c 0
 512 115 520 106 520 93 c 0
 520 42 482 0 436 0 c 2
 113 0 l 2
 95 0 86 7 86 21 c 0
 86 32 94 40 108 40 c 0
 155 42 198 128 198 220 c 0
 198 237 196 260 194 273 c 1
 90 273 l 2
 72 273 63 280 63 294 c 0
 63 307 72 314 90 314 c 2
 184 314 l 1
 163 380 157 409 157 435 c 0
 157 514 220 578 298 578 c 0
 377 578 427 512 427 495 c 0
 427 486 416 476 407 476 c 0
 386 476 369 537 299 537 c 0
 245 537 198 490 198 435 c 0
EndSplineSet
EndChar

StartChar: currency
Encoding: 99 164 110
Width: 600
Flags: W
HStem: 127 41<231.099 369.001> 417 41<230.513 369.928>
VStem: 135 41<223.01 362.209> 424 42<222.891 361.868>
LayerCount: 2
Fore
SplineSet
199 162 m 1
 142 106 l 2
 134 97 130 95 124 95 c 0
 112 95 103 104 103 115 c 0
 103 122 106 127 114 135 c 2
 170 191 l 1
 146 223 135 256 135 292 c 0
 135 329 147 366 169 394 c 1
 114 450 l 2
 105 458 103 462 103 469 c 0
 103 480 112 489 123 489 c 0
 130 489 134 486 142 478 c 2
 198 423 l 1
 227 446 263 458 300 458 c 0
 337 458 374 445 402 423 c 1
 457 478 l 2
 466 487 470 489 477 489 c 0
 488 489 497 480 497 468 c 0
 497 461 496 459 487 450 c 2
 432 394 l 1
 455 362 466 329 466 293 c 0
 466 256 454 220 431 191 c 1
 486 135 l 2
 492 129 496 121 496 115 c 0
 496 104 487 95 476 95 c 0
 470 95 464 98 457 106 c 2
 401 162 l 1
 369 138 337 127 300 127 c 0
 263 127 229 139 199 162 c 1
300 417 m 0
 232 417 176 361 176 293 c 0
 176 224 232 168 300 168 c 0
 367 168 424 224 424 291 c 0
 424 361 369 417 300 417 c 0
EndSplineSet
EndChar

StartChar: yen
Encoding: 100 165 111
Width: 600
Flags: W
HStem: 0 41<167.007 280 321 433.993> 141 37<128.004 280 321 467.126> 238 37<128.004 266 334 472.996> 522 41<51.0066 102 149 214.993 385.007 451 498 548.993>
VStem: 280 41<41 141 178 238>
LayerCount: 2
Fore
SplineSet
321 238 m 1
 321 178 l 1
 452 178 l 2
 467 178 473 173 473 160 c 0
 473 146 467 141 452 141 c 2
 321 141 l 1
 321 41 l 1
 407 41 l 2
 425 41 434 34 434 21 c 0
 434 7 425 0 407 0 c 2
 194 0 l 2
 176 0 167 7 167 21 c 0
 167 34 176 41 194 41 c 2
 280 41 l 1
 280 141 l 1
 150 141 l 2
 134 141 128 146 128 160 c 0
 128 173 134 178 150 178 c 2
 280 178 l 1
 280 238 l 1
 150 238 l 2
 134 238 128 243 128 257 c 0
 128 270 133 275 150 275 c 2
 266 275 l 1
 102 522 l 1
 78 522 l 2
 60 522 51 529 51 543 c 0
 51 556 60 563 78 563 c 2
 188 563 l 2
 206 563 215 556 215 543 c 0
 215 529 206 522 188 522 c 2
 149 522 l 1
 300 295 l 1
 451 522 l 1
 412 522 l 2
 394 522 385 529 385 543 c 0
 385 556 394 563 412 563 c 2
 522 563 l 2
 540 563 549 556 549 543 c 0
 549 529 540 522 522 522 c 2
 498 522 l 1
 334 275 l 1
 452 275 l 2
 468 275 473 270 473 257 c 0
 473 243 468 238 452 238 c 2
 321 238 l 1
EndSplineSet
EndChar

StartChar: brokenbar
Encoding: 101 166 112
Width: 600
Flags: W
HStem: 584 20G<293.5 306.5>
VStem: 280 40<-123.993 196.993 283.007 603.993>
LayerCount: 2
Fore
SplineSet
320 577 m 2
 320 310 l 2
 320 292 313 283 300 283 c 0
 287 283 280 292 280 310 c 2
 280 577 l 2
 280 595 287 604 300 604 c 0
 313 604 320 595 320 577 c 2
320 170 m 2
 320 -97 l 2
 320 -115 313 -124 300 -124 c 0
 287 -124 280 -115 280 -97 c 2
 280 170 l 2
 280 188 287 197 300 197 c 0
 313 197 320 188 320 170 c 2
EndSplineSet
EndChar

StartChar: section
Encoding: 102 167 113
Width: 600
Flags: W
HStem: -62 40<146 376.524> 563 40<226.473 455>
VStem: 66 43<316.998 389.25> 105 41<-22 64.1094> 156 40<452.2 534.61> 404 41<4.63053 88.3522> 455 41<478.891 563> 491 43<153.573 226.676>
LayerCount: 2
Fore
SplineSet
534 185 m 0xcd
 534 151 515 111 432 101 c 1
 441 86 445 71 445 52 c 0
 445 -13 388 -62 312 -62 c 2
 105 -62 l 1
 105 49 l 2
 105 64 112 73 126 73 c 0
 139 73 146 64 146 49 c 2
 146 -22 l 1xdd
 311 -22 l 2
 364 -22 404 11 404 53 c 0
 404 88 369 121 273 175 c 2
 208 211 l 2
 110 266 66 312 66 358 c 0
 66 403 107 436 169 441 c 1
 160 456 156 469 156 487 c 0
 156 550 215 603 284 603 c 2
 496 603 l 1
 496 494 l 2
 496 479 489 470 476 470 c 0
 463 470 455 479 455 494 c 2
 455 563 l 1xee
 287 563 l 2
 238 563 196 528 196 487 c 0
 196 450 226 424 345 358 c 2
 401 327 l 2
 495 276 534 234 534 185 c 0xcd
400 139 m 1
 408 143 491 138 491 184 c 0
 491 213 449 255 384 290 c 2
 320 326 l 2
 256 361 228 379 201 403 c 1
 195 402 195 402 183 402 c 0
 141 402 109 383 109 357 c 0xed
 109 328 151 290 234 243 c 2
 296 208 l 2
 351 177 382 157 400 139 c 1
EndSplineSet
EndChar

StartChar: dieresis
Encoding: 103 168 114
Width: 600
Flags: W
HStem: 511 100<149.396 230.604 370.396 451.604>
VStem: 140 100<520.396 601.544> 361 100<520.396 601.544>
LayerCount: 2
Fore
SplineSet
190 611 m 0
 218 611 240 588 240 560 c 0
 240 534 217 511 190 511 c 0
 163 511 140 534 140 561 c 0
 140 588 163 611 190 611 c 0
411 611 m 0
 439 611 461 588 461 560 c 0
 461 534 438 511 411 511 c 0
 384 511 361 534 361 561 c 0
 361 588 384 611 411 611 c 0
EndSplineSet
EndChar

StartChar: copyright
Encoding: 104 169 115
Width: 600
Flags: W
HStem: -15 41<197.407 398.859> 111 36<237.8 365.312> 414 36<232.312 341.745> 537 41<199.204 400.245>
VStem: 3 41<181.816 382.456> 153 36<196.837 369.073> 381 36<357 391.988 421 435.376> 555 41<180.382 382.245>
LayerCount: 2
Fore
SplineSet
425 185 m 0
 425 168 373 111 302 111 c 0
 223 111 153 181 153 260 c 2
 153 305 l 2
 153 385 216 450 292 450 c 0
 324 450 346 443 381 421 c 1
 381 435 388 443 399 443 c 0
 410 443 417 435 417 423 c 2
 417 358 l 2
 417 346 410 338 399 338 c 0
 389 338 383 345 381 357 c 0
 378 388 338 414 293 414 c 0
 235 414 189 364 189 302 c 2
 189 263 l 2
 189 200 240 147 302 147 c 0
 374 147 385 202 408 202 c 0
 417 202 425 194 425 185 c 0
300 578 m 0
 463 578 596 445 596 282 c 0
 596 116 464 -15 296 -15 c 0
 136 -15 3 120 3 282 c 0
 3 445 136 578 300 578 c 0
300 537 m 0
 159 537 44 423 44 282 c 0
 44 142 159 26 296 26 c 0
 441 26 555 139 555 282 c 0
 555 422 440 537 300 537 c 0
EndSplineSet
EndChar

StartChar: ordfeminine
Encoding: 105 170 116
Width: 600
Flags: W
HStem: 282 37<197.196 316.969 398 438.319> 420 35<214.837 329.488> 537 37<240.084 351.698>
VStem: 155 37<325.173 397.3> 361 37<350 409 446 525.69>
LayerCount: 2
Fore
SplineSet
296 537 m 0
 260 537 215 514 206 514 c 0
 197 514 189 523 189 533 c 0
 189 542 193 547 203 552 c 0
 233 564 274 574 298 574 c 0
 356 574 398 539 398 490 c 2
 398 319 l 1
 424 319 l 2
 439 319 447 312 447 300 c 0
 447 289 438 282 424 282 c 2
 361 282 l 1
 361 308 l 1
 320 286 293 279 254 279 c 0
 195 279 155 311 155 358 c 0
 155 415 211 455 288 455 c 0
 311 455 331 452 361 446 c 1
 361 490 l 2
 361 518 335 537 296 537 c 0
361 350 m 1
 361 409 l 1
 345 415 313 420 290 420 c 0
 233 420 192 393 192 356 c 0
 192 332 217 316 254 316 c 0
 292 316 326 327 361 350 c 1
EndSplineSet
EndChar

StartChar: guillemotleft
Encoding: 106 171 117
Width: 600
Flags: W
HStem: 0 417<286 303 292 292 292 292>
VStem: 63 478<209 397 209 209>
LayerCount: 2
Fore
SplineSet
63 209 m 1
 271 406 l 2
 279 414 285 417 292 417 c 0
 303 417 312 408 312 397 c 0
 312 390 311 388 301 377 c 2
 158 209 l 1
 301 40 l 2
 311 29 312 27 312 20 c 0
 312 9 303 0 292 0 c 0
 286 0 279 4 271 11 c 2
 63 209 l 1
292 209 m 1
 500 406 l 2
 508 414 514 417 521 417 c 0
 532 417 541 408 541 397 c 0
 541 390 540 388 530 377 c 2
 387 209 l 1
 530 40 l 2
 540 29 541 27 541 20 c 0
 541 9 532 0 521 0 c 0
 515 0 508 4 500 11 c 2
 292 209 l 1
EndSplineSet
EndChar

StartChar: logicalnot
Encoding: 107 172 118
Width: 600
Flags: W
HStem: 397 41<72.0066 487>
VStem: 487 41<168.007 397>
LayerCount: 2
Fore
SplineSet
487 397 m 1
 99 397 l 2
 81 397 72 404 72 418 c 0
 72 431 81 438 99 438 c 2
 528 438 l 1
 528 195 l 2
 528 177 521 168 507 168 c 0
 494 168 487 177 487 195 c 2
 487 397 l 1
EndSplineSet
EndChar

StartChar: registered
Encoding: 109 174 120
Width: 600
Flags: W
HStem: -15 41<197.407 398.859> 120 36<159.833 197 233 281.376 431 458.376> 258 36<233 296> 407 36<159.833 197 233 366.781> 537 41<199.204 400.245>
VStem: 3 41<181.816 382.456> 197 36<156 258 294 407> 380 36<311.864 391.936> 555 41<180.382 382.245>
LayerCount: 2
Fore
SplineSet
233 258 m 1
 233 156 l 1
 269 156 l 2
 281 156 289 149 289 138 c 0
 289 127 281 120 269 120 c 2
 173 120 l 2
 160 120 152 127 152 138 c 0
 152 149 160 156 173 156 c 2
 197 156 l 1
 197 407 l 1
 173 407 l 2
 160 407 152 414 152 425 c 0
 152 436 160 443 173 443 c 2
 311 443 l 2
 372 443 416 404 416 350 c 0
 416 312 389 281 346 269 c 1
 379 243 390 228 431 156 c 1
 446 156 l 2
 458 156 466 149 466 138 c 0
 466 127 458 120 446 120 c 2
 407 120 l 1
 370 198 331 246 296 258 c 1
 233 258 l 1
233 294 m 1
 289 294 l 2
 345 294 380 316 380 352 c 0
 380 384 351 407 310 407 c 2
 233 407 l 1
 233 294 l 1
300 578 m 0
 463 578 596 445 596 282 c 0
 596 116 464 -15 296 -15 c 0
 136 -15 3 120 3 282 c 0
 3 445 136 578 300 578 c 0
300 537 m 0
 159 537 44 423 44 282 c 0
 44 142 159 26 296 26 c 0
 441 26 555 139 555 282 c 0
 555 422 440 537 300 537 c 0
EndSplineSet
EndChar

StartChar: macron
Encoding: 110 175 121
Width: 600
Flags: W
HStem: 536 40<155.007 444.993>
VStem: 155 290<536.25 575.75>
LayerCount: 2
Fore
SplineSet
418 536 m 2
 182 536 l 2
 164 536 155 543 155 556 c 0
 155 569 164 576 182 576 c 2
 418 576 l 2
 436 576 445 569 445 556 c 0
 445 543 436 536 418 536 c 2
EndSplineSet
EndChar

StartChar: degree
Encoding: 111 176 122
Width: 600
Flags: W
HStem: 346 41<237.135 362.432> 595 41<237.785 362.432>
VStem: 155 41<429.044 553.908> 404 41<428.568 553.432>
LayerCount: 2
Fore
SplineSet
300 636 m 0
 380 636 445 571 445 491 c 0
 445 411 380 346 300 346 c 0
 219 346 155 411 155 493 c 0
 155 571 221 636 300 636 c 0
300 595 m 0
 243 595 196 548 196 492 c 0
 196 434 242 387 300 387 c 0
 357 387 404 434 404 491 c 0
 404 548 357 595 300 595 c 0
EndSplineSet
EndChar

StartChar: plusminus
Encoding: 112 177 123
Width: 600
Flags: W
HStem: 0 40<72.0066 527.993> 301 40<72.0066 279 320 527.993>
VStem: 279 41<112.007 301 341 528.993>
LayerCount: 2
Fore
SplineSet
320 301 m 1
 320 139 l 2
 320 121 313 112 300 112 c 0
 286 112 279 121 279 139 c 2
 279 301 l 1
 99 301 l 2
 81 301 72 308 72 321 c 0
 72 334 81 341 99 341 c 2
 279 341 l 1
 279 502 l 2
 279 520 286 529 300 529 c 0
 313 529 320 520 320 502 c 2
 320 341 l 1
 500 341 l 2
 519 341 528 335 528 321 c 0
 528 308 519 301 500 301 c 2
 320 301 l 1
99 40 m 2
 501 40 l 2
 519 40 528 33 528 20 c 0
 528 7 519 0 501 0 c 2
 99 0 l 2
 81 0 72 7 72 20 c 0
 72 33 81 40 99 40 c 2
EndSplineSet
EndChar

StartChar: twosuperior
Encoding: 113 178 124
Width: 600
Flags: W
HStem: 259 59<369.005 404.995> 259 36<219 369> 576 36<239.496 347.852>
VStem: 369 36<295 310.376 465.95 556.411>
LayerCount: 2
Fore
SplineSet
186 525 m 0x70
 186 553 227 612 295 612 c 0
 353 612 403 565 403 511 c 0
 403 468 386 448 219 295 c 1
 369 295 l 1x70
 369 298 l 2
 369 310 376 318 387 318 c 0xb0
 398 318 405 310 405 298 c 2
 405 259 l 1
 175 259 l 1
 175 302 l 1
 307 425 l 2
 357 475 367 489 367 511 c 0
 367 546 333 576 295 576 c 0
 261 576 230 555 221 524 c 0
 218 513 212 508 203 508 c 0
 194 508 186 516 186 525 c 0x70
EndSplineSet
EndChar

StartChar: threesuperior
Encoding: 114 179 125
Width: 600
Flags: W
HStem: 251 36<222.806 354.806> 431 36<274.373 353.875> 576 36<236.652 354.282>
VStem: 181 235<299 313 304 358 304 304> 368 36<479.839 561.116> 380 36<311.84 405.222>
LayerCount: 2
Fore
SplineSet
300 576 m 0xe8
 237 576 232 539 215 539 c 0
 205 539 197 547 197 556 c 0
 197 581 254 612 300 612 c 0
 359 612 404 572 404 520 c 0xe8
 404 490 391 468 358 446 c 1
 397 422 416 394 416 358 c 0
 416 299 361 251 295 251 c 0
 245 251 181 281 181 304 c 0xf0
 181 313 189 321 198 321 c 0
 213 321 236 287 295 287 c 0
 341 287 380 320 380 358 c 0xe4
 380 398 341 430 288 431 c 0
 275 432 267 438 267 449 c 0
 267 473 298 467 304 467 c 0
 341 467 368 490 368 520 c 0
 368 552 339 576 300 576 c 0xe8
EndSplineSet
EndChar

StartChar: acute
Encoding: 115 180 126
Width: 600
Flags: W
HStem: 490 149
VStem: 280 165
LayerCount: 2
Fore
SplineSet
433 599 m 2
 319 499 l 2
 310 492 306 490 300 490 c 0
 289 490 280 499 280 511 c 0
 280 518 282 521 292 530 c 2
 406 630 l 2
 415 637 419 639 425 639 c 0
 436 639 445 630 445 618 c 0
 445 611 442 607 433 599 c 2
EndSplineSet
EndChar

StartChar: paragraph
Encoding: 117 182 127
Width: 600
Flags: W
HStem: -62 41<161.007 284 325 345.993 437 524.993> 260 47<201.307 284> 563 41<224.258 284 325 397 437 522.993>
VStem: 79 70<361.01 503.986> 284 41<-21 260 307 558> 397 40<-21 563>
LayerCount: 2
Fore
SplineSet
284 260 m 1
 147 269 79 335 79 406 c 2
 79 453 l 2
 79 543 168 604 298 604 c 2
 498 604 l 2
 514 604 523 596 523 584 c 0
 523 571 514 563 498 563 c 2
 437 563 l 1
 437 -21 l 1
 499 -21 l 2
 516 -21 525 -28 525 -41 c 0
 525 -55 516 -62 499 -62 c 2
 401 -62 l 2
 386 -62 376 -54 376 -41 c 0
 376 -30 384 -22 397 -21 c 1
 397 563 l 1
 325 563 l 1
 325 -21 l 1
 338 -22 346 -30 346 -41 c 0
 346 -55 337 -62 321 -62 c 2
 187 -62 l 2
 171 -62 161 -54 161 -41 c 0
 161 -28 170 -21 187 -21 c 2
 284 -21 l 1
 284 260 l 1
284 307 m 1
 284 558 l 1
 207 550 149 504 149 451 c 2
 149 414 l 2
 149 361 207 315 284 307 c 1
EndSplineSet
EndChar

StartChar: periodcentered
Encoding: 118 183 128
Width: 600
Flags: W
HStem: 217 131<243.612 356.388>
VStem: 226 148<235.025 330.451>
LayerCount: 2
Fore
SplineSet
295 348 m 2
 305 348 l 2
 344 348 374 320 374 283 c 0
 374 245 344 217 305 217 c 2
 295 217 l 2
 256 217 226 246 226 283 c 0
 226 320 256 348 295 348 c 2
EndSplineSet
EndChar

StartChar: cedilla
Encoding: 119 184 129
Width: 600
Flags: W
HStem: -173 38<251.222 338.77> -81 34<312 339.453> -20 20G<274 312>
VStem: 274 38<-47 0> 340 37<-131.481 -83.6783>
LayerCount: 2
Fore
SplineSet
230 -114 m 0
 243 -114 264 -135 296 -135 c 0
 322 -135 340 -123 340 -106 c 0
 340 -89 325 -81 294 -81 c 2
 274 -81 l 1
 274 0 l 1
 312 0 l 1
 312 -47 l 1
 353 -48 377 -70 377 -108 c 0
 377 -147 345 -173 298 -173 c 0
 285 -173 210 -162 210 -133 c 0
 210 -122 219 -114 230 -114 c 0
EndSplineSet
EndChar

StartChar: onesuperior
Encoding: 120 185 130
Width: 600
Flags: W
HStem: 259 353<286.525 319 319 390 319 402.376> 259 36<198.833 246.992 246.992 283 319 402.376>
VStem: 191 219<259.005 294.995> 283 36<295 563>
LayerCount: 2
Fore
SplineSet
319 612 m 1x90
 319 295 l 1
 390 295 l 2x50
 402 295 410 288 410 277 c 0
 410 266 402 259 390 259 c 2xa0
 212 259 l 2
 199 259 191 266 191 277 c 0x60
 191 290 201 295 212 295 c 2
 212 295 261 296 283 295 c 1x50
 283 563 l 1
 218 542 l 2
 214 541 211 540 209 540 c 0
 201 540 192 549 192 558 c 0
 192 573 192 573 319 612 c 1x90
EndSplineSet
EndChar

StartChar: ordmasculine
Encoding: 121 186 131
Width: 600
Flags: W
HStem: 284 37<236.429 365.353> 540 37<236.214 366.218>
VStem: 154 37<367.282 495.076> 411 37<366.685 494.713>
LayerCount: 2
Fore
SplineSet
301 577 m 0
 383 577 448 512 448 429 c 0
 448 350 381 284 301 284 c 0
 220 284 154 350 154 431 c 0
 154 511 220 577 301 577 c 0
301 540 m 0
 240 540 191 491 191 431 c 0
 191 370 241 321 301 321 c 0
 361 321 411 370 411 429 c 0
 411 491 363 540 301 540 c 0
EndSplineSet
EndChar

StartChar: guillemotright
Encoding: 122 187 132
Width: 600
Flags: W
HStem: 0 417<72 89 83 83 83 83>
VStem: 63 478<20 208 20 20>
LayerCount: 2
Fore
SplineSet
311 208 m 1
 104 11 l 2
 96 3 90 0 83 0 c 0
 72 0 63 9 63 20 c 0
 63 27 64 29 74 40 c 2
 216 208 l 1
 74 377 l 2
 64 388 63 390 63 397 c 0
 63 408 72 417 83 417 c 0
 89 417 96 413 104 406 c 2
 311 208 l 1
541 208 m 1
 334 11 l 2
 326 3 320 0 313 0 c 0
 302 0 293 9 293 20 c 0
 293 27 294 29 304 40 c 2
 446 208 l 1
 304 377 l 2
 294 388 293 390 293 397 c 0
 293 408 302 417 313 417 c 0
 319 417 326 413 334 406 c 2
 541 208 l 1
EndSplineSet
EndChar

StartChar: onequarter
Encoding: 123 188 133
Width: 600
Flags: W
HStem: 0 36<460.833 510 546 572.167> 93 36<401 510 546 571.813> 259 36<23.833 71.9924 71.9924 108 144 227.737> 592 20G<80.5 144>
VStem: 108 36<295 563> 510 36<36 93 129 309>
LayerCount: 2
Fore
SplineSet
144 612 m 1
 144 295 l 1
 215 295 l 2
 228 295 236 288 236 277 c 0
 236 266 227 259 215 259 c 2
 37 259 l 2
 24 259 16 266 16 277 c 0
 16 290 26 295 37 295 c 2
 37 295 86 296 108 295 c 1
 108 563 l 1
 43 542 l 2
 39 541 36 540 34 540 c 0
 26 540 17 549 17 558 c 0
 17 573 17 573 144 612 c 1
492 477 m 2
 141 63 l 2
 133 53 129 51 123 51 c 0
 112 51 103 60 103 71 c 0
 103 75 106 81 112 88 c 2
 462 502 l 2
 471 512 474 514 480 514 c 0
 491 514 500 505 500 494 c 0
 500 490 496 483 492 477 c 2
453 18 m 0
 453 42 483 36 510 36 c 1
 510 93 l 1
 361 93 l 1
 361 127 l 1
 489 345 l 1
 546 345 l 1
 546 129 l 1
 559 129 l 2
 572 129 580 122 580 111 c 0
 580 99 571 93 555 93 c 2
 546 93 l 1
 546 36 l 1
 559 36 l 2
 572 36 580 29 580 18 c 0
 580 7 572 0 559 0 c 2
 474 0 l 2
 461 0 453 7 453 18 c 0
510 129 m 1
 510 309 l 1
 508 309 l 1
 401 129 l 1
 510 129 l 1
EndSplineSet
LCarets2: 2 0 0 
Ligature2: "'frac' Diagonal Fractions lookup 3" one slash four
Ligature2: "'frac' Diagonal Fractions lookup 3" one fraction four
EndChar

StartChar: onehalf
Encoding: 124 189 134
Width: 600
Flags: W
HStem: 0 59<537.005 572.995> 0 36<387 537> 259 36<30.833 78.9924 78.9924 115 151 234.376> 317 36<407.496 515.852> 592 20G<87.5 151>
VStem: 115 36<295 563> 537 36<36 51.3763 206.95 297.411>
LayerCount: 2
Fore
SplineSet
485 477 m 2x3e
 134 63 l 2
 126 53 122 51 116 51 c 0
 105 51 96 60 96 71 c 0
 96 75 99 81 105 88 c 2
 455 502 l 2
 464 512 467 514 473 514 c 0
 484 514 493 505 493 494 c 0
 493 490 489 483 485 477 c 2x3e
151 612 m 1
 151 295 l 1
 222 295 l 2
 234 295 242 288 242 277 c 0
 242 266 234 259 222 259 c 2
 44 259 l 2
 31 259 23 266 23 277 c 0
 23 290 33 295 44 295 c 2
 44 295 93 296 115 295 c 1
 115 563 l 1
 50 542 l 2
 46 541 43 540 41 540 c 0
 33 540 24 549 24 558 c 0
 24 573 24 573 151 612 c 1
354 266 m 0
 354 294 395 353 463 353 c 0
 521 353 571 306 571 252 c 0
 571 209 554 189 387 36 c 1
 537 36 l 1x7e
 537 39 l 2
 537 51 544 59 555 59 c 0xbe
 566 59 573 51 573 39 c 2
 573 0 l 1
 343 0 l 1x7e
 343 43 l 1
 475 166 l 2
 525 216 535 230 535 252 c 0
 535 287 501 317 463 317 c 0
 429 317 398 296 389 265 c 0
 386 254 380 249 371 249 c 0
 362 249 354 257 354 266 c 0
EndSplineSet
LCarets2: 2 0 0 
Ligature2: "'frac' Diagonal Fractions lookup 3" one slash two
Ligature2: "'frac' Diagonal Fractions lookup 3" one fraction two
EndChar

StartChar: threequarters
Encoding: 125 190 135
Width: 600
Flags: W
HStem: 0 36<460.833 510 546 572.167> 93 36<401 510 546 571.813> 251 36<47.8061 179.806> 431 36<99.373 178.875> 576 36<61.6516 179.282>
VStem: 193 36<479.839 561.116> 205 36<311.84 405.222> 510 36<36 93 129 309>
LayerCount: 2
Fore
SplineSet
125 576 m 0xfd
 62 576 57 539 40 539 c 0
 30 539 22 547 22 556 c 0
 22 581 79 612 125 612 c 0
 184 612 229 572 229 520 c 0xfd
 229 490 216 468 183 446 c 1
 222 422 241 394 241 358 c 0
 241 299 186 251 120 251 c 0
 70 251 6 281 6 304 c 0
 6 313 14 321 23 321 c 0
 38 321 61 287 120 287 c 0
 166 287 205 320 205 358 c 0xfb
 205 398 166 430 113 431 c 0
 100 432 92 438 92 449 c 0
 92 473 123 467 129 467 c 0
 166 467 193 490 193 520 c 0
 193 552 164 576 125 576 c 0xfd
491 477 m 2
 140 63 l 2
 132 53 128 51 122 51 c 0
 111 51 102 60 102 71 c 0
 102 76 104 80 111 88 c 2
 461 502 l 2
 470 512 473 514 479 514 c 0
 490 514 499 505 499 494 c 0
 499 490 495 483 491 477 c 2
453 18 m 0
 453 42 483 36 510 36 c 1
 510 93 l 1
 361 93 l 1
 361 127 l 1
 489 345 l 1
 546 345 l 1
 546 129 l 1
 559 129 l 2
 572 129 580 122 580 111 c 0
 580 99 571 93 555 93 c 2
 546 93 l 1
 546 36 l 1
 559 36 l 2
 572 36 580 29 580 18 c 0
 580 7 572 0 559 0 c 2
 474 0 l 2
 461 0 453 7 453 18 c 0
510 129 m 1
 510 309 l 1
 508 309 l 1
 401 129 l 1
 510 129 l 1
EndSplineSet
LCarets2: 2 0 0 
Ligature2: "'frac' Diagonal Fractions lookup 3" three slash four
Ligature2: "'frac' Diagonal Fractions lookup 3" three fraction four
EndChar

StartChar: questiondown
Encoding: 126 191 136
Width: 600
Flags: W
HStem: -175 41<209.775 367.55> 317 100<238.07 361.646>
VStem: 113 41<-83.6851 38.2383> 229 141<326.928 407.072> 278 41<155 222.993> 425 41<-100 -32.0066>
LayerCount: 2
Fore
SplineSet
466 -126 m 1xec
 368 -175 320 -175 291 -175 c 0
 185 -175 113 -113 113 -21 c 0
 113 53 153 96 278 155 c 1
 278 196 l 2
 278 214 285 223 298 223 c 0
 312 223 319 214 319 196 c 2
 319 128 l 1
 203 80 154 36 154 -21 c 0
 154 -87 213 -134 296 -134 c 0
 341 -134 372 -126 425 -100 c 1
 425 -59 l 2
 425 -41 432 -32 445 -32 c 0
 459 -32 466 -41 466 -59 c 2
 466 -126 l 1xec
313 317 m 2
 286 317 l 2
 252 317 229 338 229 367 c 0
 229 396 252 417 286 417 c 2
 313 417 l 2
 347 417 370 397 370 367 c 0xf4
 370 337 347 317 313 317 c 2
EndSplineSet
EndChar

StartChar: Agrave
Encoding: 127 192 137
Width: 600
Flags: W
HStem: 0 41<9.00659 67 108 213.993 381.007 484 527 590.993> 188 41<178 413> 522 41<99.0066 246 286 301>
LayerCount: 2
Fore
SplineSet
428 188 m 1
 162 188 l 1
 108 41 l 1
 187 41 l 2
 205 41 214 34 214 21 c 0
 214 7 205 0 187 0 c 2
 36 0 l 2
 18 0 9 7 9 21 c 0
 9 34 18 41 36 41 c 2
 67 41 l 1
 246 522 l 1
 126 522 l 2
 108 522 99 529 99 543 c 0
 99 556 108 563 126 563 c 2
 330 563 l 1
 527 41 l 1
 564 41 l 2
 582 41 591 34 591 21 c 0
 591 7 582 0 564 0 c 2
 408 0 l 2
 390 0 381 7 381 21 c 0
 381 34 390 41 408 41 c 2
 484 41 l 1
 428 188 l 1
413 229 m 1
 301 522 l 1
 286 522 l 1
 178 229 l 1
 413 229 l 1
204 780 m 2
 318 680 l 2
 327 672 330 669 330 661 c 0
 330 649 321 640 309 640 c 0
 304 640 298 643 291 649 c 2
 177 749 l 2
 168 757 165 761 165 769 c 0
 165 780 174 789 185 789 c 0
 191 789 196 786 204 780 c 2
EndSplineSet
EndChar

StartChar: Aacute
Encoding: 128 193 138
Width: 600
Flags: W
HStem: 0 41<9.00659 67 108 213.993 381.007 484 527 590.993> 188 41<178 413> 522 41<99.0066 246 286 301>
LayerCount: 2
Fore
SplineSet
428 188 m 1
 162 188 l 1
 108 41 l 1
 187 41 l 2
 205 41 214 34 214 21 c 0
 214 7 205 0 187 0 c 2
 36 0 l 2
 18 0 9 7 9 21 c 0
 9 34 18 41 36 41 c 2
 67 41 l 1
 246 522 l 1
 126 522 l 2
 108 522 99 529 99 543 c 0
 99 556 108 563 126 563 c 2
 330 563 l 1
 527 41 l 1
 564 41 l 2
 582 41 591 34 591 21 c 0
 591 7 582 0 564 0 c 2
 408 0 l 2
 390 0 381 7 381 21 c 0
 381 34 390 41 408 41 c 2
 484 41 l 1
 428 188 l 1
413 229 m 1
 301 522 l 1
 286 522 l 1
 178 229 l 1
 413 229 l 1
371 749 m 2
 257 649 l 2
 248 642 244 640 238 640 c 0
 227 640 218 649 218 661 c 0
 218 668 220 671 230 680 c 2
 344 780 l 2
 353 787 357 789 363 789 c 0
 374 789 383 780 383 768 c 0
 383 761 380 757 371 749 c 2
EndSplineSet
EndChar

StartChar: Acircumflex
Encoding: 129 194 139
Width: 600
Flags: W
HStem: 0 41<9.00659 67 108 213.993 381.007 484 527 590.993> 188 41<178 413> 522 41<99.0066 246 286 301>
LayerCount: 2
Fore
SplineSet
428 188 m 1
 162 188 l 1
 108 41 l 1
 187 41 l 2
 205 41 214 34 214 21 c 0
 214 7 205 0 187 0 c 2
 36 0 l 2
 18 0 9 7 9 21 c 0
 9 34 18 41 36 41 c 2
 67 41 l 1
 246 522 l 1
 126 522 l 2
 108 522 99 529 99 543 c 0
 99 556 108 563 126 563 c 2
 330 563 l 1
 527 41 l 1
 564 41 l 2
 582 41 591 34 591 21 c 0
 591 7 582 0 564 0 c 2
 408 0 l 2
 390 0 381 7 381 21 c 0
 381 34 390 41 408 41 c 2
 484 41 l 1
 428 188 l 1
413 229 m 1
 301 522 l 1
 286 522 l 1
 178 229 l 1
 413 229 l 1
273 789 m 1
 405 681 l 2
 416 672 418 668 418 660 c 0
 418 649 409 640 398 640 c 0
 393 640 387 643 380 648 c 2
 273 736 l 1
 166 648 l 2
 159 643 153 640 148 640 c 0
 137 640 128 649 128 660 c 0
 128 668 131 673 141 680 c 2
 273 789 l 1
EndSplineSet
EndChar

StartChar: Atilde
Encoding: 130 195 140
Width: 600
Flags: W
HStem: 0 41<9.00659 67 108 213.993 381.007 484 527 590.993> 188 41<178 413> 522 41<99.0066 246 286 301> 666 87<163 165.322 337 408> 666 41<283.226 376.095> 714 41<170.297 263.763>
LayerCount: 2
Fore
SplineSet
428 188 m 1xe0
 162 188 l 1
 108 41 l 1
 187 41 l 2
 205 41 214 34 214 21 c 0
 214 7 205 0 187 0 c 2
 36 0 l 2
 18 0 9 7 9 21 c 0
 9 34 18 41 36 41 c 2
 67 41 l 1
 246 522 l 1
 126 522 l 2
 108 522 99 529 99 543 c 0
 99 556 108 563 126 563 c 2
 330 563 l 1
 527 41 l 1
 564 41 l 2
 582 41 591 34 591 21 c 0
 591 7 582 0 564 0 c 2
 408 0 l 2
 390 0 381 7 381 21 c 0
 381 34 390 41 408 41 c 2
 484 41 l 1
 428 188 l 1xe0
413 229 m 1
 301 522 l 1
 286 522 l 1
 178 229 l 1
 413 229 l 1
335 707 m 0xec
 371 707 387 753 408 753 c 0
 418 753 428 744 428 733 c 0
 428 720 382 666 337 666 c 0xf0
 285 666 247 714 213 714 c 0
 171 714 163 669 138 669 c 0
 127 669 118 677 118 688 c 0
 118 703 163 755 212 755 c 0
 260 755 301 707 335 707 c 0xec
EndSplineSet
EndChar

StartChar: Adieresis
Encoding: 131 196 141
Width: 600
Flags: W
HStem: 0 41<9.00659 67 108 213.993 381.007 484 527 590.993> 188 41<178 413> 522 41<99.0066 246 286 301> 661 100<121.396 202.604 342.396 423.604>
VStem: 112 100<670.396 751.544> 333 100<670.396 751.544>
LayerCount: 2
Fore
SplineSet
428 188 m 1
 162 188 l 1
 108 41 l 1
 187 41 l 2
 205 41 214 34 214 21 c 0
 214 7 205 0 187 0 c 2
 36 0 l 2
 18 0 9 7 9 21 c 0
 9 34 18 41 36 41 c 2
 67 41 l 1
 246 522 l 1
 126 522 l 2
 108 522 99 529 99 543 c 0
 99 556 108 563 126 563 c 2
 330 563 l 1
 527 41 l 1
 564 41 l 2
 582 41 591 34 591 21 c 0
 591 7 582 0 564 0 c 2
 408 0 l 2
 390 0 381 7 381 21 c 0
 381 34 390 41 408 41 c 2
 484 41 l 1
 428 188 l 1
413 229 m 1
 301 522 l 1
 286 522 l 1
 178 229 l 1
 413 229 l 1
162 761 m 0
 190 761 212 738 212 710 c 0
 212 684 189 661 162 661 c 0
 135 661 112 684 112 711 c 0
 112 738 135 761 162 761 c 0
383 761 m 0
 411 761 433 738 433 710 c 0
 433 684 410 661 383 661 c 0
 356 661 333 684 333 711 c 0
 333 738 356 761 383 761 c 0
EndSplineSet
EndChar

StartChar: Aring
Encoding: 132 197 142
Width: 600
Flags: W
HStem: 0 41<9.00659 67 108 213.993 381.007 484 527 590.993> 188 41<178 413> 522 41<99.0066 246 286 301> 630 33<230.808 323.192> 778 33<230.808 323.415>
VStem: 184 33<676.997 764.208> 337 33<676.63 764.062>
LayerCount: 2
Fore
SplineSet
428 188 m 1
 162 188 l 1
 108 41 l 1
 187 41 l 2
 205 41 214 34 214 21 c 0
 214 7 205 0 187 0 c 2
 36 0 l 2
 18 0 9 7 9 21 c 0
 9 34 18 41 36 41 c 2
 67 41 l 1
 246 522 l 1
 126 522 l 2
 108 522 99 529 99 543 c 0
 99 556 108 563 126 563 c 2
 330 563 l 1
 527 41 l 1
 564 41 l 2
 582 41 591 34 591 21 c 0
 591 7 582 0 564 0 c 2
 408 0 l 2
 390 0 381 7 381 21 c 0
 381 34 390 41 408 41 c 2
 484 41 l 1
 428 188 l 1
413 229 m 1
 301 522 l 1
 286 522 l 1
 178 229 l 1
 413 229 l 1
277 811 m 0
 329 811 370 771 370 719 c 0
 370 671 328 630 277 630 c 0
 226 630 184 671 184 721 c 0
 184 770 226 811 277 811 c 0
277 778 m 0
 244 778 217 752 217 721 c 0
 217 689 244 663 277 663 c 0
 310 663 337 689 337 720 c 0
 337 752 310 778 277 778 c 0
EndSplineSet
EndChar

StartChar: AE
Encoding: 133 198 143
Width: 600
Flags: W
HStem: 0 41<10.0066 74 115 167.993 218.007 297 338 549> 189 41<167 297> 273 41<338 416> 522 41<117.007 207 247 297 338 529>
VStem: 297 41<41 189 230 273 314 522> 416 40<228.948 273 314 368.993> 529 41<384.007 522> 549 41<41 149.33>
LayerCount: 2
Fore
SplineSet
297 189 m 1xfd
 156 189 l 1
 115 41 l 1
 141 41 l 2
 159 41 168 34 168 21 c 0
 168 7 159 0 141 0 c 2
 37 0 l 2
 19 0 10 7 10 21 c 0
 10 34 19 41 37 41 c 2
 74 41 l 1
 207 522 l 1
 144 522 l 2
 126 522 117 529 117 543 c 0
 117 556 126 563 144 563 c 2
 570 563 l 1
 570 411 l 2xfe
 570 393 563 384 549 384 c 0xfd
 536 384 529 393 529 411 c 2
 529 522 l 1xfe
 338 522 l 1
 338 314 l 1
 416 314 l 1
 416 342 l 2
 416 360 423 369 436 369 c 0
 450 369 456 360 456 342 c 2
 456 246 l 2
 456 228 449 219 436 219 c 0
 423 219 416 229 416 246 c 2
 416 273 l 1
 338 273 l 1
 338 41 l 1
 549 41 l 1
 549 134 l 2
 549 153 555 160 569 160 c 0
 582 160 590 149 590 134 c 2
 590 0 l 1
 245 0 l 2
 227 0 218 7 218 21 c 0
 218 34 227 41 245 41 c 2
 297 41 l 1
 297 189 l 1xfd
297 230 m 1
 297 522 l 1
 247 522 l 1
 167 230 l 1
 297 230 l 1
EndSplineSet
EndChar

StartChar: Ccedilla
Encoding: 134 199 144
Width: 600
Flags: W
HStem: -173 38<256.223 343.77> -81 34<317 344.453> -16 41<317 414.625> 535 41<219.444 401.266>
VStem: 63 41<155.521 416.548> 279 38<-47 -16> 345 37<-131.481 -83.6783> 478 41<397.007 472.035 507 562.993>
LayerCount: 2
Fore
SplineSet
534 106 m 0
 534 79 435 -16 330 -16 c 2
 317 -16 l 1
 317 -47 l 1
 358 -48 382 -70 382 -108 c 0
 382 -147 350 -173 303 -173 c 0
 290 -173 215 -162 215 -133 c 0
 215 -122 224 -114 235 -114 c 0
 248 -114 270 -135 301 -135 c 0
 327 -135 345 -123 345 -106 c 0
 345 -89 330 -81 299 -81 c 2
 279 -81 l 1
 279 -12 l 1
 235 -1 211 8 183 28 c 0
 110 78 63 161 63 242 c 2
 63 325 l 2
 63 424 139 576 305 576 c 0
 371 576 431 552 478 507 c 1
 478 536 l 2
 478 554 485 563 499 563 c 0
 512 563 519 554 519 536 c 2
 519 424 l 2
 519 406 512 397 498 397 c 0
 486 397 479 405 478 421 c 0
 474 482 394 535 305 535 c 0
 194 535 104 438 104 319 c 2
 104 248 l 2
 104 128 204 25 322 25 c 0
 391 25 442 51 496 115 c 0
 503 123 507 125 514 125 c 0
 526 125 534 117 534 106 c 0
EndSplineSet
EndChar

StartChar: Egrave
Encoding: 135 200 145
Width: 600
Flags: W
HStem: 0 41<43.0066 124 165 479> 272 41<165 310> 522 41<43.0066 124 165 458>
VStem: 124 41<41 272 313 522> 310 41<200.007 272 313 384.993> 458 41<397.007 522> 479 41<41 186.993>
LayerCount: 2
Fore
SplineSet
165 272 m 1xfc
 165 41 l 1
 479 41 l 1
 479 160 l 2
 479 178 486 187 500 187 c 0
 513 187 520 178 520 160 c 2
 520 0 l 1xfa
 70 0 l 2
 52 0 43 7 43 21 c 0
 43 34 52 41 70 41 c 2
 124 41 l 1
 124 522 l 1
 70 522 l 2
 52 522 43 529 43 543 c 0
 43 556 52 563 70 563 c 2
 499 563 l 1
 499 424 l 2
 499 406 492 397 478 397 c 0
 465 397 458 406 458 424 c 2
 458 522 l 1
 165 522 l 1
 165 313 l 1
 310 313 l 1
 310 358 l 2
 310 376 317 385 331 385 c 0
 344 385 351 376 351 358 c 2
 351 227 l 2
 351 209 344 200 331 200 c 0
 317 200 310 209 310 227 c 2
 310 272 l 1
 165 272 l 1xfc
215 780 m 2
 329 680 l 2
 338.045 672.054 341 668.6 341 661 c 0
 341 649 332 640 320 640 c 0
 315 640 309 643 302 649 c 2
 188 749 l 2
 179 757 176 761 176 769 c 0
 176 780 185 789 196 789 c 0
 202 789 207 786 215 780 c 2
EndSplineSet
EndChar

StartChar: Eacute
Encoding: 136 201 146
Width: 600
Flags: W
HStem: 0 41<43.0066 124 165 479> 272 41<165 310> 522 41<43.0066 124 165 458>
VStem: 124 41<41 272 313 522> 310 41<200.007 272 313 384.993> 458 41<397.007 522> 479 41<41 186.993>
LayerCount: 2
Fore
SplineSet
165 272 m 1xfc
 165 41 l 1
 479 41 l 1
 479 160 l 2
 479 178 486 187 500 187 c 0
 513 187 520 178 520 160 c 2
 520 0 l 1xfa
 70 0 l 2
 52 0 43 7 43 21 c 0
 43 34 52 41 70 41 c 2
 124 41 l 1
 124 522 l 1
 70 522 l 2
 52 522 43 529 43 543 c 0
 43 556 52 563 70 563 c 2
 499 563 l 1
 499 424 l 2
 499 406 492 397 478 397 c 0
 465 397 458 406 458 424 c 2
 458 522 l 1
 165 522 l 1
 165 313 l 1
 310 313 l 1
 310 358 l 2
 310 376 317 385 331 385 c 0
 344 385 351 376 351 358 c 2
 351 227 l 2
 351 209 344 200 331 200 c 0
 317 200 310 209 310 227 c 2
 310 272 l 1
 165 272 l 1xfc
389 749 m 2
 275 649 l 2
 266 642 262 640 256 640 c 0
 245 640 236 649 236 661 c 0
 236 668 238 671 248 680 c 2
 362 780 l 2
 371 787 375 789 381 789 c 0
 392 789 401 780 401 768 c 0
 401 761 398 757 389 749 c 2
EndSplineSet
EndChar

StartChar: Ecircumflex
Encoding: 137 202 147
Width: 600
Flags: W
HStem: 0 41<43.0066 124 165 479> 272 41<165 310> 522 41<43.0066 124 165 458>
VStem: 124 41<41 272 313 522> 310 41<200.007 272 313 384.993> 458 41<397.007 522> 479 41<41 186.993>
LayerCount: 2
Fore
SplineSet
165 272 m 1xfc
 165 41 l 1
 479 41 l 1
 479 160 l 2
 479 178 486 187 500 187 c 0
 513 187 520 178 520 160 c 2
 520 0 l 1xfa
 70 0 l 2
 52 0 43 7 43 21 c 0
 43 34 52 41 70 41 c 2
 124 41 l 1
 124 522 l 1
 70 522 l 2
 52 522 43 529 43 543 c 0
 43 556 52 563 70 563 c 2
 499 563 l 1
 499 424 l 2
 499 406 492 397 478 397 c 0
 465 397 458 406 458 424 c 2
 458 522 l 1
 165 522 l 1
 165 313 l 1
 310 313 l 1
 310 358 l 2
 310 376 317 385 331 385 c 0
 344 385 351 376 351 358 c 2
 351 227 l 2
 351 209 344 200 331 200 c 0
 317 200 310 209 310 227 c 2
 310 272 l 1
 165 272 l 1xfc
291 789 m 1
 423 681 l 2
 434 672 436 668 436 660 c 0
 436 649 427 640 416 640 c 0
 411 640 405 643 398 648 c 2
 291 736 l 1
 184 648 l 2
 177 643 171 640 166 640 c 0
 155 640 146 649 146 660 c 0
 146 668 149 673 159 680 c 2
 291 789 l 1
EndSplineSet
EndChar

StartChar: Edieresis
Encoding: 138 203 148
Width: 600
Flags: W
HStem: 0 41<43.0066 124 165 479> 272 41<165 310> 522 41<43.0066 124 165 458> 661 100<140.396 221.604 361.396 442.604>
VStem: 124 41<41 272 313 522> 131 100<670.396 751.544> 310 41<200.007 272 313 384.993> 352 100<670.396 751.544> 458 41<397.007 522> 479 41<41 186.993>
LayerCount: 2
Fore
SplineSet
165 272 m 1xfb80
 165 41 l 1
 479 41 l 1
 479 160 l 2
 479 178 486 187 500 187 c 0
 513 187 520 178 520 160 c 2
 520 0 l 1xfb40
 70 0 l 2
 52 0 43 7 43 21 c 0
 43 34 52 41 70 41 c 2
 124 41 l 1
 124 522 l 1
 70 522 l 2
 52 522 43 529 43 543 c 0
 43 556 52 563 70 563 c 2
 499 563 l 1
 499 424 l 2
 499 406 492 397 478 397 c 0
 465 397 458 406 458 424 c 2
 458 522 l 1
 165 522 l 1
 165 313 l 1
 310 313 l 1
 310 358 l 2
 310 376 317 385 331 385 c 0
 344 385 351 376 351 358 c 2
 351 227 l 2
 351 209 344 200 331 200 c 0
 317 200 310 209 310 227 c 2
 310 272 l 1
 165 272 l 1xfb80
181 761 m 0
 209 761 231 738 231 710 c 0
 231 684 208 661 181 661 c 0
 154 661 131 684 131 711 c 0xf7
 131 738 154 761 181 761 c 0
402 761 m 0
 430 761 452 738 452 710 c 0
 452 684 429 661 402 661 c 0
 375 661 352 684 352 711 c 0
 352 738 375 761 402 761 c 0
EndSplineSet
EndChar

StartChar: Igrave
Encoding: 139 204 149
Width: 600
Flags: W
HStem: 0 41<113.007 279 320 486.993> 522 41<113.007 279 320 486.993>
VStem: 279 41<41 522>
LayerCount: 2
Fore
SplineSet
320 522 m 1
 320 41 l 1
 459 41 l 2
 478 41 487 34 487 21 c 0
 487 7 477 0 459 0 c 2
 140 0 l 2
 122 0 113 7 113 21 c 0
 113 34 122 41 140 41 c 2
 279 41 l 1
 279 522 l 1
 140 522 l 2
 122 522 113 529 113 543 c 0
 113 556 122 563 140 563 c 2
 459 563 l 2
 478 563 487 556 487 543 c 0
 487 529 478 522 459 522 c 2
 320 522 l 1
230 780 m 2
 344 680 l 2
 353 672 356 669 356 661 c 0
 356 649 347 640 335 640 c 0
 330 640 324 643 317 649 c 2
 203 749 l 2
 194 757 191 761 191 769 c 0
 191 780 200 789 211 789 c 0
 217 789 222 786 230 780 c 2
EndSplineSet
EndChar

StartChar: Iacute
Encoding: 140 205 150
Width: 600
Flags: W
HStem: 0 41<113.007 279 320 486.993> 522 41<113.007 279 320 486.993>
VStem: 279 41<41 522>
LayerCount: 2
Fore
SplineSet
320 522 m 1
 320 41 l 1
 459 41 l 2
 478 41 487 34 487 21 c 0
 487 7 477 0 459 0 c 2
 140 0 l 2
 122 0 113 7 113 21 c 0
 113 34 122 41 140 41 c 2
 279 41 l 1
 279 522 l 1
 140 522 l 2
 122 522 113 529 113 543 c 0
 113 556 122 563 140 563 c 2
 459 563 l 2
 478 563 487 556 487 543 c 0
 487 529 478 522 459 522 c 2
 320 522 l 1
433 749 m 2
 319 649 l 2
 310 642 306 640 300 640 c 0
 289 640 280 649 280 661 c 0
 280 668 282 671 292 680 c 2
 406 780 l 2
 415 787 419 789 425 789 c 0
 436 789 445 780 445 768 c 0
 445 761 442 757 433 749 c 2
EndSplineSet
EndChar

StartChar: Icircumflex
Encoding: 141 206 151
Width: 600
Flags: W
HStem: 0 41<113.007 279 320 486.993> 522 41<113.007 279 320 486.993>
VStem: 279 41<41 522>
LayerCount: 2
Fore
SplineSet
320 522 m 1
 320 41 l 1
 459 41 l 2
 478 41 487 34 487 21 c 0
 487 7 477 0 459 0 c 2
 140 0 l 2
 122 0 113 7 113 21 c 0
 113 34 122 41 140 41 c 2
 279 41 l 1
 279 522 l 1
 140 522 l 2
 122 522 113 529 113 543 c 0
 113 556 122 563 140 563 c 2
 459 563 l 2
 478 563 487 556 487 543 c 0
 487 529 478 522 459 522 c 2
 320 522 l 1
300 789 m 1
 432 681 l 2
 443 672 445 668 445 660 c 0
 445 649 436 640 425 640 c 0
 420 640 414 643 407 648 c 2
 300 736 l 1
 193 648 l 2
 186 643 180 640 175 640 c 0
 164 640 155 649 155 660 c 0
 155 668 158 673 168 680 c 2
 300 789 l 1
EndSplineSet
EndChar

StartChar: Idieresis
Encoding: 142 207 152
Width: 600
Flags: W
HStem: 0 41<113.007 279 320 486.993> 522 41<113.007 279 320 486.993> 661 100<148.396 229.604 370.396 451.604>
VStem: 139 100<670.396 751.544> 279 41<41 522> 361 100<670.396 751.544>
LayerCount: 2
Fore
SplineSet
320 522 m 1
 320 41 l 1
 459 41 l 2
 478 41 487 34 487 21 c 0
 487 7 477 0 459 0 c 2
 140 0 l 2
 122 0 113 7 113 21 c 0
 113 34 122 41 140 41 c 2
 279 41 l 1
 279 522 l 1
 140 522 l 2
 122 522 113 529 113 543 c 0
 113 556 122 563 140 563 c 2
 459 563 l 2
 478 563 487 556 487 543 c 0
 487 529 478 522 459 522 c 2
 320 522 l 1
189 761 m 0
 217 761 239 738 239 710 c 0
 239 684 216 661 189 661 c 0
 162 661 139 684 139 711 c 0
 139 738 162 761 189 761 c 0
411 761 m 0
 439 761 461 738 461 710 c 0
 461 684 438 661 411 661 c 0
 384 661 361 684 361 711 c 0
 361 738 384 761 411 761 c 0
EndSplineSet
EndChar

StartChar: Eth
Encoding: 143 208 153
Width: 600
Flags: W
HStem: 0 41<43.0066 104 145 368.671> 272 41<0.0065918 104 145 333.993> 522 41<43.0066 104 145 373.913>
VStem: 104 41<41 272 313 522> 479 41<155.672 407.75>
LayerCount: 2
Fore
SplineSet
104 272 m 1
 27 272 l 2
 9 272 0 279 0 293 c 0
 0 306 9 313 27 313 c 2
 104 313 l 1
 104 522 l 1
 70 522 l 2
 52 522 43 529 43 543 c 0
 43 556 52 563 70 563 c 2
 290 563 l 2
 416 563 520 448 520 310 c 2
 520 254 l 2
 520 115 416 0 290 0 c 2
 70 0 l 2
 52 0 43 7 43 21 c 0
 43 34 52 41 70 41 c 2
 104 41 l 1
 104 272 l 1
479 319 m 2
 479 381 434 522 288 522 c 2
 145 522 l 1
 145 313 l 1
 307 313 l 2
 325 313 334 306 334 293 c 0
 334 279 325 272 307 272 c 2
 145 272 l 1
 145 41 l 1
 295 41 l 2
 389 41 479 140 479 245 c 2
 479 319 l 2
EndSplineSet
EndChar

StartChar: Ntilde
Encoding: 144 209 154
Width: 600
Flags: W
HStem: 0 41<42.0066 103 144 236.052> 522 41<22.0066 103 358.007 460 501 561.993> 666 87<188 190.322 362 433> 666 41<308.226 401.095> 714 41<195.297 288.763>
VStem: 103 41<41 504> 460 41<59 522>
LayerCount: 2
Back
SplineSet
501 0 m 1
 449 0 l 1
 144 504 l 1
 144 41 l 1
 219 41 l 2
 237 41 246 34 246 21 c 0
 246 7 236 0 219 0 c 2
 69 0 l 2
 51 0 42 7 42 21 c 0
 42 34 51 41 69 41 c 2
 103 41 l 1
 103 522 l 1
 49 522 l 2
 31 522 22 529 22 543 c 0
 22 556 31 563 49 563 c 2
 155 563 l 1
 460 59 l 1
 460 522 l 1
 386 522 l 2
 367 522 358 529 358 543 c 0
 358 556 367 563 386 563 c 2
 535 563 l 2
 553 563 562 556 562 543 c 0
 562 529 553 522 535 522 c 2
 501 522 l 1
 501 0 l 1
433 753 m 0
 443 753 453 744 453 733 c 0
 453 725 449 719 431 702 c 0
 405 676 385 666 362 666 c 0
 340 666 321 673 281 697 c 0
 261 710 250 714 238 714 c 0
 218 714 209 708 180 677 c 0
 176 672 169 669 163 669 c 0
 152 669 143 677 143 688 c 0
 143 696 149 705 162 718 c 0
 191 745 212 755 237 755 c 0
 257 755 269 751 301 732 c 0
 339 711 347 707 360 707 c 0
 377 707 387 714 417 745 c 0
 423 751 427 753 433 753 c 0
EndSplineSet
Fore
SplineSet
501 0 m 1xc6
 449 0 l 1
 144 504 l 1
 144 41 l 1
 219 41 l 2
 237 41 246 34 246 21 c 0
 246 7 236 0 219 0 c 2
 69 0 l 2
 51 0 42 7 42 21 c 0
 42 34 51 41 69 41 c 2
 103 41 l 1
 103 522 l 1
 49 522 l 2
 31 522 22 529 22 543 c 0
 22 556 31 563 49 563 c 2
 155 563 l 1
 460 59 l 1
 460 522 l 1
 386 522 l 2
 367 522 358 529 358 543 c 0
 358 556 367 563 386 563 c 2
 535 563 l 2
 553 563 562 556 562 543 c 0
 562 529 553 522 535 522 c 2
 501 522 l 1
 501 0 l 1xc6
360 707 m 0xde
 396 707 412 753 433 753 c 0
 443 753 453 744 453 733 c 0
 453 720 407 666 362 666 c 0xe6
 310 666 272 714 238 714 c 0
 196 714 188 669 163 669 c 0
 152 669 143 677 143 688 c 0
 143 703 188 755 237 755 c 0
 285 755 326 707 360 707 c 0xde
EndSplineSet
EndChar

StartChar: Ograve
Encoding: 145 210 155
Width: 600
Flags: W
HStem: -16 41<219.486 379.916> 535 41<219.275 381.323>
VStem: 51 41<170.323 389.677> 508 41<168.868 388.646>
LayerCount: 2
Back
SplineSet
300 576 m 0
 441 576 549 446 549 276 c 0
 549 115 437 -16 300 -16 c 0
 161 -16 51 115 51 280 c 0
 51 445 161 576 300 576 c 0
300 535 m 0
 185 535 92 420 92 280 c 0
 92 140 186 25 300 25 c 0
 413 25 508 140 508 277 c 0
 508 421 416 535 300 535 c 0
224 780 m 2
 338 680 l 1
 345 672 l 2
 350 667 350 667 350 661 c 0
 350 649 341 640 329 640 c 0
 324 640 318 643 311 649 c 2
 197 749 l 2
 188 757 185 761 185 769 c 0
 185 780 194 789 205 789 c 0
 211 789 216 786 224 780 c 2
EndSplineSet
Fore
SplineSet
300 576 m 0
 441 576 549 446 549 276 c 0
 549 115 437 -16 300 -16 c 0
 161 -16 51 115 51 280 c 0
 51 445 161 576 300 576 c 0
300 535 m 0
 185 535 92 420 92 280 c 0
 92 140 186 25 300 25 c 0
 413 25 508 140 508 277 c 0
 508 421 416 535 300 535 c 0
224 780 m 2
 338 680 l 2
 347 672 350 669 350 661 c 0
 350 649 341 640 329 640 c 0
 324 640 318 643 311 649 c 2
 197 749 l 2
 188 757 185 761 185 769 c 0
 185 780 194 789 205 789 c 0
 211 789 216 786 224 780 c 2
EndSplineSet
EndChar

StartChar: Oacute
Encoding: 146 211 156
Width: 600
Flags: W
HStem: -16 41<219.486 379.916> 535 41<219.275 381.323>
VStem: 51 41<170.323 389.677> 508 41<168.868 388.646>
LayerCount: 2
Back
SplineSet
300 576 m 0
 441 576 549 446 549 276 c 0
 549 115 437 -16 300 -16 c 0
 161 -16 51 115 51 280 c 0
 51 445 161 576 300 576 c 0
300 535 m 0
 185 535 92 420 92 280 c 0
 92 140 186 25 300 25 c 0
 413 25 508 140 508 277 c 0
 508 421 416 535 300 535 c 0
404 749 m 2
 290 649 l 2
 281 642 277 640 271 640 c 0
 260 640 251 649 251 661 c 0
 251 668 253 671 263 680 c 2
 377 780 l 2
 386 787 390 789 396 789 c 0
 407 789 416 780 416 768 c 0
 416 761 413 757 404 749 c 2
EndSplineSet
Fore
SplineSet
300 576 m 0
 441 576 549 446 549 276 c 0
 549 115 437 -16 300 -16 c 0
 161 -16 51 115 51 280 c 0
 51 445 161 576 300 576 c 0
300 535 m 0
 185 535 92 420 92 280 c 0
 92 140 186 25 300 25 c 0
 413 25 508 140 508 277 c 0
 508 421 416 535 300 535 c 0
404 749 m 2
 290 649 l 2
 281 642 277 640 271 640 c 0
 260 640 251 649 251 661 c 0
 251 668 253 671 263 680 c 2
 377 780 l 2
 386 787 390 789 396 789 c 0
 407 789 416 780 416 768 c 0
 416 761 413 757 404 749 c 2
EndSplineSet
EndChar

StartChar: Ocircumflex
Encoding: 147 212 157
Width: 600
Flags: W
HStem: -16 41<219.486 379.916> 535 41<219.275 381.323>
VStem: 51 41<170.323 389.677> 508 41<168.868 388.646>
LayerCount: 2
Back
SplineSet
300 576 m 0
 441 576 549 446 549 276 c 0
 549 115 437 -16 300 -16 c 0
 161 -16 51 115 51 280 c 0
 51 445 161 576 300 576 c 0
300 535 m 0
 185 535 92 420 92 280 c 0
 92 140 186 25 300 25 c 0
 413 25 508 140 508 277 c 0
 508 421 416 535 300 535 c 0
300 789 m 1
 432 681 l 2
 443 672 445 668 445 660 c 0
 445 649 436 640 425 640 c 0
 420 640 414 643 407 648 c 2
 300 736 l 1
 193 648 l 2
 186 643 180 640 175 640 c 0
 164 640 155 649 155 660 c 0
 155 668 158 673 168 680 c 1
 300 789 l 1
EndSplineSet
Fore
SplineSet
300 576 m 0
 441 576 549 446 549 276 c 0
 549 115 437 -16 300 -16 c 0
 161 -16 51 115 51 280 c 0
 51 445 161 576 300 576 c 0
300 535 m 0
 185 535 92 420 92 280 c 0
 92 140 186 25 300 25 c 0
 413 25 508 140 508 277 c 0
 508 421 416 535 300 535 c 0
300 789 m 1
 432 681 l 2
 443 672 445 668 445 660 c 0
 445 649 436 640 425 640 c 0
 420 640 414 643 407 648 c 2
 300 736 l 1
 193 648 l 2
 186 643 180 640 175 640 c 0
 164 640 155 649 155 660 c 0
 155 668 158 673 168 680 c 2
 300 789 l 1
EndSplineSet
EndChar

StartChar: Otilde
Encoding: 148 213 158
Width: 600
Flags: W
HStem: -16 41<219.486 379.916> 535 41<219.275 381.323> 666 87<196 198.322 370 441> 666 41<316.226 408.178> 714 41<203.297 296.763>
VStem: 51 41<170.323 389.677> 508 41<168.868 388.646>
LayerCount: 2
Back
SplineSet
300 576 m 0
 441 576 549 446 549 276 c 0
 549 115 437 -16 300 -16 c 0
 161 -16 51 115 51 280 c 0
 51 445 161 576 300 576 c 0
300 535 m 0
 185 535 92 420 92 280 c 0
 92 140 186 25 300 25 c 0
 413 25 508 140 508 277 c 0
 508 421 416 535 300 535 c 0
441 753 m 0
 451 753 461 744 461 733 c 0
 461 725 457 719 439 702 c 0
 413 676 393 666 370 666 c 0
 348 666 329 673 289 697 c 0
 269 710 258 714 246 714 c 0
 226 714 217 708 188 677 c 0
 184 672 177 669 171 669 c 0
 160 669 151 677 151 688 c 0
 151 696 157 705 170 718 c 0
 199 745 220 755 245 755 c 0
 265 755 277 751 309 732 c 0
 347 711 355 707 368 707 c 0
 385 707 395 714 425 745 c 0
 431 751 435 753 441 753 c 0
EndSplineSet
Fore
SplineSet
300 576 m 0xc6
 441 576 549 446 549 276 c 0
 549 115 437 -16 300 -16 c 0
 161 -16 51 115 51 280 c 0
 51 445 161 576 300 576 c 0xc6
300 535 m 0
 185 535 92 420 92 280 c 0
 92 140 186 25 300 25 c 0
 413 25 508 140 508 277 c 0
 508 421 416 535 300 535 c 0
368 707 m 0xde
 404 707 420 753 441 753 c 0
 451 753 461 744 461 733 c 0
 461 719.85 415.272 666 370 666 c 0xe6
 318 666 280 714 246 714 c 0
 204 714 196 669 171 669 c 0
 160 669 151 677 151 688 c 0
 151 703 196 755 245 755 c 0
 293 755 334 707 368 707 c 0xde
EndSplineSet
EndChar

StartChar: Odieresis
Encoding: 149 214 159
Width: 600
Flags: W
HStem: -16 41<219.486 379.916> 535 41<219.275 381.323> 661 100<148.396 229.604 369.396 450.604>
VStem: 51 41<170.323 389.677> 139 100<670.396 751.544> 360 100<670.396 751.544> 508 41<168.868 388.646>
LayerCount: 2
Back
SplineSet
300 576 m 0
 441 576 549 446 549 276 c 0
 549 115 437 -16 300 -16 c 0
 161 -16 51 115 51 280 c 0
 51 445 161 576 300 576 c 0
300 535 m 0
 185 535 92 420 92 280 c 0
 92 140 186 25 300 25 c 0
 413 25 508 140 508 277 c 0
 508 421 416 535 300 535 c 0
189 761 m 0
 217 761 239 738 239 710 c 0
 239 684 216 661 189 661 c 0
 162 661 139 684 139 711 c 0
 139 738 162 761 189 761 c 0
410 761 m 0
 438 761 460 738 460 710 c 0
 460 684 437 661 410 661 c 0
 383 661 360 684 360 711 c 0
 360 738 383 761 410 761 c 0
EndSplineSet
Fore
SplineSet
300 576 m 0
 441 576 549 446 549 276 c 0
 549 115 437 -16 300 -16 c 0
 161 -16 51 115 51 280 c 0
 51 445 161 576 300 576 c 0
300 535 m 0
 185 535 92 420 92 280 c 0
 92 140 186 25 300 25 c 0
 413 25 508 140 508 277 c 0
 508 421 416 535 300 535 c 0
189 761 m 0
 217 761 239 738 239 710 c 0
 239 684 216 661 189 661 c 0
 162 661 139 684 139 711 c 0
 139 738 162 761 189 761 c 0
410 761 m 0
 438 761 460 738 460 710 c 0
 460 684 437 661 410 661 c 0
 383 661 360 684 360 711 c 0
 360 738 383 761 410 761 c 0
EndSplineSet
EndChar

StartChar: multiply
Encoding: 150 215 160
Width: 600
Flags: W
HStem: 100 364<455 472 461 461 461 461>
VStem: 118 364<120 443 120 120>
LayerCount: 2
Back
SplineSet
300 311 m 1
 442 453 l 2
 451 462 455 464 461 464 c 0
 472 464 482 455 482 443 c 0
 482 437 479 432 471 424 c 2
 329 282 l 1
 471 139 l 1
 480 131 482 127 482 120 c 0
 482 109 473 100 461 100 c 0
 455 100 450 102 442 110 c 2
 300 253 l 1
 158 110 l 1
 150 103 145 100 139 100 c 0
 127 100 118 109 118 120 c 0
 118 127 121 132 128 139 c 2
 271 282 l 1
 128 424 l 1
 121 432 118 437 118 443 c 0
 118 455 127 464 139 464 c 0
 145 464 149 461 157 453 c 2
 300 311 l 1
EndSplineSet
Fore
SplineSet
300 311 m 1
 442 453 l 2
 451 462 455 464 461 464 c 0
 472 464 482 455 482 443 c 0
 482 437 479 432 471 424 c 2
 329 282 l 1
 471 139 l 2
 480 131 482 127 482 120 c 0
 482 109 473 100 461 100 c 0
 455 100 450 102 442 110 c 2
 300 253 l 1
 158 110 l 2
 150 103 145 100 139 100 c 0
 127 100 118 109 118 120 c 0
 118 127 121 132 128 139 c 2
 271 282 l 1
 128 424 l 2
 121 432 118 437 118 443 c 0
 118 455 127 464 139 464 c 0
 145 464 149 461 157 453 c 2
 300 311 l 1
EndSplineSet
EndChar

StartChar: Oslash
Encoding: 151 216 161
Width: 600
Flags: W
HStem: -16 41<217.372 380.514> 535 41<219.275 383.349> 585 20G<538.5 547>
VStem: 51 41<169.491 389.883> 508 41<170.323 393.264>
LayerCount: 2
Back
SplineSet
141 51 m 1
 76 -31 l 2
 69 -40 64 -43 58 -43 c 0
 48 -43 40 -35 40 -25 c 0
 40 -21 41 -18 48 -9 c 2
 117 78 l 1
 72 138 51 204 51 280 c 0
 51 446 161 576 300 576 c 0
 360 576 409 555 458 510 c 1
 524 593 l 2
 531 602 535 605 542 605 c 0
 552 605 560 597 560 587 c 0
 560 582 558 579 552 571 c 2
 482 483 l 1
 525 430 549 356 549 280 c 0
 549 115 439 -16 300 -16 c 0
 240 -16 186 7 141 51 c 1
144 112 m 1
 432 476 l 1
 392 516 349 535 300 535 c 0
 185 535 92 420 92 280 c 0
 92 218 109 164 144 112 c 1
456 449 m 1
 167 84 l 1
 206 45 251 25 300 25 c 0
 414 25 508 140 508 280 c 0
 508 343 490 400 456 449 c 1
EndSplineSet
Fore
SplineSet
141 51 m 1
 76 -31 l 2
 69 -40 64 -43 58 -43 c 0
 48 -43 40 -35 40 -25 c 0
 40 -21 41 -18 48 -9 c 2
 117 78 l 1
 72 138 51 204 51 280 c 0
 51 446 161 576 300 576 c 0
 360 576 409 555 458 510 c 1
 524 593 l 2
 531 602 535 605 542 605 c 0
 552 605 560 597 560 587 c 0
 560 582 558 579 552 571 c 2
 482 483 l 1
 525 430 549 356 549 280 c 0
 549 115 439 -16 300 -16 c 0
 240 -16 186 7 141 51 c 1
144 112 m 1
 432 476 l 1
 392 516 349 535 300 535 c 0
 185 535 92 420 92 280 c 0
 92 218 109 164 144 112 c 1
456 449 m 1
 167 84 l 1
 206 45 251 25 300 25 c 0
 414 25 508 140 508 280 c 0
 508 343 490 400 456 449 c 1
EndSplineSet
EndChar

StartChar: Ugrave
Encoding: 152 217 162
Width: 600
Flags: W
HStem: -16 41<220.908 378.659> 522 41<40.0066 101 142 242.993 357.007 458 499 559.993>
VStem: 101 41<105.5 522> 458 41<105.5 522>
LayerCount: 2
Back
SplineSet
499 522 m 1
 499 185 l 2
 499 71 412 -16 300 -16 c 0
 187 -16 101 71 101 185 c 2
 101 522 l 1
 67 522 l 2
 49 522 40 529 40 543 c 0
 40 557 49 563 67 563 c 2
 216 563 l 2
 234 563 243 556 243 543 c 0
 243 529 234 522 216 522 c 2
 142 522 l 1
 142 185 l 2
 142 95 211 25 300 25 c 0
 388 25 458 95 458 185 c 2
 458 522 l 1
 384 522 l 2
 366 522 357 529 357 543 c 0
 357 557 365 563 384 563 c 2
 533 563 l 2
 552 563 560 557 560 543 c 0
 560 529 551 522 533 522 c 2
 499 522 l 1
227 780 m 2
 341 680 l 1
 348 672 l 2
 353 667 353 667 353 661 c 0
 353 649 344 640 332 640 c 0
 327 640 321 643 314 649 c 2
 200 749 l 2
 191 757 188 761 188 769 c 0
 188 780 197 789 208 789 c 0
 214 789 219 786 227 780 c 2
EndSplineSet
Fore
SplineSet
499 522 m 1
 499 185 l 2
 499 71 412 -16 300 -16 c 0
 187 -16 101 71 101 185 c 2
 101 522 l 1
 67 522 l 2
 49 522 40 529 40 543 c 0
 40 557 49 563 67 563 c 2
 216 563 l 2
 234 563 243 556 243 543 c 0
 243 529 234 522 216 522 c 2
 142 522 l 1
 142 185 l 2
 142 95 211 25 300 25 c 0
 388 25 458 95 458 185 c 2
 458 522 l 1
 384 522 l 2
 366 522 357 529 357 543 c 0
 357 557 365 563 384 563 c 2
 533 563 l 2
 552 563 560 557 560 543 c 0
 560 529 551 522 533 522 c 2
 499 522 l 1
227 780 m 2
 341 680 l 2
 350 672 353 669 353 661 c 0
 353 649 344 640 332 640 c 0
 327 640 321 643 314 649 c 2
 200 749 l 2
 191 757 188 761 188 769 c 0
 188 780 197 789 208 789 c 0
 214 789 219 786 227 780 c 2
EndSplineSet
EndChar

StartChar: Uacute
Encoding: 153 218 163
Width: 600
Flags: W
HStem: -16 41<220.908 378.659> 522 41<40.0066 101 142 242.993 357.007 458 499 559.993>
VStem: 101 41<105.5 522> 458 41<105.5 522>
LayerCount: 2
Fore
SplineSet
499 522 m 1
 499 185 l 2
 499 71 412 -16 300 -16 c 0
 187 -16 101 71 101 185 c 2
 101 522 l 1
 67 522 l 2
 49 522 40 529 40 543 c 0
 40 557 49 563 67 563 c 2
 216 563 l 2
 234 563 243 556 243 543 c 0
 243 529 234 522 216 522 c 2
 142 522 l 1
 142 185 l 2
 142 95 211 25 300 25 c 0
 388 25 458 95 458 185 c 2
 458 522 l 1
 384 522 l 2
 366 522 357 529 357 543 c 0
 357 557 365 563 384 563 c 2
 533 563 l 2
 552 563 560 557 560 543 c 0
 560 529 551 522 533 522 c 2
 499 522 l 1
401 749 m 2
 287 649 l 2
 278 642 274 640 268 640 c 0
 257 640 248 649 248 661 c 0
 248 668 250 671 260 680 c 2
 374 780 l 2
 383 787 387 789 393 789 c 0
 404 789 413 780 413 768 c 0
 413 761 410 757 401 749 c 2
EndSplineSet
EndChar

StartChar: Ucircumflex
Encoding: 154 219 164
Width: 600
Flags: W
HStem: -16 41<220.908 378.659> 522 41<40.0066 101 142 242.993 357.007 458 499 559.993>
VStem: 101 41<105.5 522> 458 41<105.5 522>
LayerCount: 2
Fore
SplineSet
499 522 m 1
 499 185 l 2
 499 71 412 -16 300 -16 c 0
 187 -16 101 71 101 185 c 2
 101 522 l 1
 67 522 l 2
 49 522 40 529 40 543 c 0
 40 557 49 563 67 563 c 2
 216 563 l 2
 234 563 243 556 243 543 c 0
 243 529 234 522 216 522 c 2
 142 522 l 1
 142 185 l 2
 142 95 211 25 300 25 c 0
 388 25 458 95 458 185 c 2
 458 522 l 1
 384 522 l 2
 366 522 357 529 357 543 c 0
 357 557 365 563 384 563 c 2
 533 563 l 2
 552 563 560 557 560 543 c 0
 560 529 551 522 533 522 c 2
 499 522 l 1
300 789 m 1
 432 681 l 2
 443 672 445 668 445 660 c 0
 445 649 436 640 425 640 c 0
 420 640 414 643 407 648 c 2
 300 736 l 1
 193 648 l 2
 186 643 180 640 175 640 c 0
 164 640 155 649 155 660 c 0
 155 668 158 673 168 680 c 2
 300 789 l 1
EndSplineSet
EndChar

StartChar: Udieresis
Encoding: 155 220 165
Width: 600
Flags: W
HStem: -16 41<220.908 378.659> 522 41<40.0066 101 142 242.993 357.007 458 499 559.993> 661 100<148.396 229.604 369.396 450.604>
VStem: 101 41<105.5 522> 139 100<670.396 751.544> 360 100<670.396 751.544> 458 41<105.5 522>
LayerCount: 2
Fore
SplineSet
499 522 m 1xf2
 499 185 l 2
 499 71 412 -16 300 -16 c 0
 187 -16 101 71 101 185 c 2
 101 522 l 1
 67 522 l 2
 49 522 40 529 40 543 c 0
 40 557 49 563 67 563 c 2
 216 563 l 2
 234 563 243 556 243 543 c 0
 243 529 234 522 216 522 c 2
 142 522 l 1
 142 185 l 2
 142 95 211 25 300 25 c 0
 388 25 458 95 458 185 c 2
 458 522 l 1
 384 522 l 2
 366 522 357 529 357 543 c 0
 357 557 365 563 384 563 c 2
 533 563 l 2
 552 563 560 557 560 543 c 0
 560 529 551 522 533 522 c 2
 499 522 l 1xf2
189 761 m 0
 217 761 239 738 239 710 c 0
 239 684 216 661 189 661 c 0
 162 661 139 684 139 711 c 0xe8
 139 738 162 761 189 761 c 0
410 761 m 0
 438 761 460 738 460 710 c 0
 460 684 437 661 410 661 c 0
 383 661 360 684 360 711 c 0xe4
 360 738 383 761 410 761 c 0
EndSplineSet
EndChar

StartChar: Yacute
Encoding: 156 221 166
Width: 600
Flags: W
HStem: 0 41<149.007 281 322 453.993> 522 41<51.0066 102 151 215.993 384.007 452 498 538.104>
VStem: 281 41<41 254>
LayerCount: 2
Fore
SplineSet
322 254 m 1
 322 41 l 1
 427 41 l 2
 445 41 454 34 454 21 c 0
 454 7 445 0 427 0 c 2
 176 0 l 2
 158 0 149 7 149 21 c 0
 149 34 158 41 176 41 c 2
 281 41 l 1
 281 254 l 1
 102 522 l 1
 78 522 l 2
 60 522 51 529 51 543 c 0
 51 556 60 563 78 563 c 2
 189 563 l 2
 207 563 216 556 216 543 c 0
 216 529 207 522 189 522 c 2
 151 522 l 1
 303 295 l 1
 452 522 l 1
 412 522 l 2
 393 522 384 529 384 543 c 0
 384 556 393 563 412 563 c 2
 522 563 l 2
 539 563 549 555 549 543 c 0
 549 530 538 522 522 522 c 2
 498 522 l 1
 322 254 l 1
401 749 m 2
 287 649 l 2
 278 642 274 640 268 640 c 0
 257 640 248 649 248 661 c 0
 248 668 250 671 260 680 c 2
 374 780 l 2
 383 787 387 789 393 789 c 0
 404 789 413 780 413 768 c 0
 413 761 410 757 401 749 c 2
EndSplineSet
EndChar

StartChar: Thorn
Encoding: 157 222 167
Width: 600
Flags: W
HStem: 0 41<43.0066 124 165 330.993> 131 41<165 384.831> 422 41<165 392.645> 522 41<43.0066 124 165 330.993>
VStem: 124 41<41 131 172 422 463 522> 458 41<235.996 362.55>
LayerCount: 2
Fore
SplineSet
165 131 m 1
 165 41 l 1
 303 41 l 2
 322 41 331 34 331 21 c 0
 331 7 321 0 303 0 c 2
 70 0 l 2
 52 0 43 7 43 21 c 0
 43 34 52 41 70 41 c 2
 124 41 l 1
 124 522 l 1
 70 522 l 2
 52 522 43 529 43 543 c 0
 43 556 52 563 70 563 c 2
 303 563 l 2
 322 563 331 556 331 543 c 0
 331 529 322 522 303 522 c 2
 165 522 l 1
 165 463 l 1
 310 463 l 2
 416 463 499 391 499 298 c 0
 499 205 410 131 296 131 c 2
 165 131 l 1
165 172 m 1
 299 172 l 2
 386 172 458 229 458 298 c 0
 458 366 393 422 314 422 c 2
 165 422 l 1
 165 172 l 1
EndSplineSet
EndChar

StartChar: germandbls
Encoding: 158 223 168
Width: 600
Flags: W
HStem: -16 41<318.377 415.182> 0 41<43.0066 124 165 206.993> 334 41<247.007 336.5> 563 41<199.158 329.142>
VStem: 124 41<41 528.809> 259 41<44.6182 123.993> 371 41<408.009 521.247> 458 41<74.7466 242.597>
LayerCount: 2
Fore
SplineSet
458 162 m 0xbf
 458 278 349 334 279 334 c 2
 274 334 l 2
 256 334 247 341 247 355 c 0
 247 367 256 375 270 375 c 2
 275 375 l 2
 326 375 371 415 371 459 c 0
 371 516 324 563 266 563 c 0
 210 563 165 525 165 476 c 2
 165 41 l 1
 180 41 l 2
 198 41 207 34 207 21 c 0
 207 7 198 0 180 0 c 2
 70 0 l 2
 52 0 43 7 43 21 c 0
 43 34 52 41 70 41 c 2
 124 41 l 1x7f
 124 476 l 2
 124 547 188 604 266 604 c 0
 347 604 412 539 412 458 c 0
 412 417 394 386 354 359 c 1
 450 320 499 253 499 161 c 0
 499 60 441 -16 365 -16 c 0
 305 -16 259 35 259 101 c 0
 259 115 267 124 279 124 c 0
 292 124 299 116 300 100 c 0
 303 54 327 25 365 25 c 0
 417 25 458 85 458 162 c 0xbf
EndSplineSet
EndChar

StartChar: agrave
Encoding: 159 224 169
Width: 600
Flags: W
HStem: -16 41<147.63 327.128> 0 41<460 540.993> 217 41<178.262 345.075> 390 41<220.065 381.887>
VStem: 72 41<57.3261 165.246> 419 41<41 67 112 202 237 357.084>
LayerCount: 2
Fore
SplineSet
296 390 m 0xbc
 232 390 156 358 144 358 c 0
 134 358 125 367 125 378 c 0
 125 388 131 395 142 399 c 0
 197 418 262 431 299 431 c 0
 392 431 460 379 460 308 c 2
 460 41 l 1
 514 41 l 2
 532 41 541 34 541 21 c 0
 541 7 532 0 514 0 c 2
 419 0 l 1x7c
 419 67 l 1
 358 10 298 -16 228 -16 c 0
 135 -16 72 36 72 112 c 0
 72 199 158 258 283 258 c 0
 329 258 360 253 419 237 c 1
 419 308 l 2
 419 357 369 390 296 390 c 0xbc
419 112 m 1
 419 202 l 1
 383 211 335 217 291 217 c 0
 185 217 113 174 113 111 c 0
 113 59 158 25 227 25 c 0xbc
 298 25 352 49 419 112 c 1
213 630 m 2
 327 530 l 2
 336 522 339 519 339 511 c 0
 339 499 330 490 318 490 c 0
 313 490 307 493 300 499 c 2
 186 599 l 2
 177 607 174 611 174 619 c 0
 174 630 183 639 194 639 c 0
 200 639 205 636 213 630 c 2
EndSplineSet
EndChar

StartChar: aacute
Encoding: 160 225 170
Width: 600
Flags: W
HStem: -16 41<147.63 327.128> 0 41<460 540.993> 217 41<178.262 345.075> 390 41<220.065 381.887>
VStem: 72 41<57.3261 165.246> 419 41<41 67 112 202 237 357.084>
LayerCount: 2
Fore
SplineSet
296 390 m 0xbc
 232 390 156 358 144 358 c 0
 134 358 125 367 125 378 c 0
 125 388 131 395 142 399 c 0
 197 418 262 431 299 431 c 0
 392 431 460 379 460 308 c 2
 460 41 l 1
 514 41 l 2
 532 41 541 34 541 21 c 0
 541 7 532 0 514 0 c 2
 419 0 l 1x7c
 419 67 l 1
 358 10 298 -16 228 -16 c 0
 135 -16 72 36 72 112 c 0
 72 199 158 258 283 258 c 0
 329 258 360 253 419 237 c 1
 419 308 l 2
 419 357 369 390 296 390 c 0xbc
419 112 m 1
 419 202 l 1
 383 211 335 217 291 217 c 0
 185 217 113 174 113 111 c 0
 113 59 158 25 227 25 c 0xbc
 298 25 352 49 419 112 c 1
387 599 m 2
 273 499 l 2
 264 492 260 490 254 490 c 0
 243 490 234 499 234 511 c 0
 234 518 236 521 246 530 c 2
 360 630 l 2
 369 637 373 639 379 639 c 0
 390 639 399 630 399 618 c 0
 399 611 396 607 387 599 c 2
EndSplineSet
EndChar

StartChar: acircumflex
Encoding: 161 226 171
Width: 600
Flags: W
HStem: -16 41<147.63 327.128> 0 41<460 540.993> 217 41<178.262 345.075> 390 41<220.065 381.887>
VStem: 72 41<57.3261 165.246> 419 41<41 67 112 202 237 357.084>
LayerCount: 2
Fore
SplineSet
296 390 m 0xbc
 232 390 156 358 144 358 c 0
 134 358 125 367 125 378 c 0
 125 388 131 395 142 399 c 0
 197 418 262 431 299 431 c 0
 392 431 460 379 460 308 c 2
 460 41 l 1
 514 41 l 2
 532 41 541 34 541 21 c 0
 541 7 532 0 514 0 c 2
 419 0 l 1x7c
 419 67 l 1
 358 10 298 -16 228 -16 c 0
 135 -16 72 36 72 112 c 0
 72 199 158 258 283 258 c 0
 329 258 360 253 419 237 c 1
 419 308 l 2
 419 357 369 390 296 390 c 0xbc
419 112 m 1
 419 202 l 1
 383 211 335 217 291 217 c 0
 185 217 113 174 113 111 c 0
 113 59 158 25 227 25 c 0xbc
 298 25 352 49 419 112 c 1
290 639 m 1
 422 531 l 2
 433 522 435 518 435 510 c 0
 435 499 426 490 415 490 c 0
 410 490 404 493 397 498 c 2
 290 586 l 1
 183 498 l 2
 176 493 170 490 165 490 c 0
 154 490 145 499 145 510 c 0
 145 518 148 523 158 530 c 2
 290 639 l 1
EndSplineSet
EndChar

StartChar: atilde
Encoding: 162 227 172
Width: 600
Flags: W
HStem: -16 41<147.63 327.128> 0 41<460 540.993> 217 41<178.262 345.075> 390 41<220.065 381.887> 516 87<180 182.322 354 425> 516 41<300.226 393.095> 564 41<187.297 280.763>
VStem: 72 41<57.3261 165.246> 419 41<41 67 112 202 237 357.084>
LayerCount: 2
Fore
SplineSet
296 390 m 0xb180
 232 390 156 358 144 358 c 0
 134 358 125 367 125 378 c 0
 125 388 131 395 142 399 c 0
 197 418 262 431 299 431 c 0
 392 431 460 379 460 308 c 2
 460 41 l 1
 514 41 l 2
 532 41 541 34 541 21 c 0
 541 7 532 0 514 0 c 2
 419 0 l 1x7180
 419 67 l 1
 358 10 298 -16 228 -16 c 0
 135 -16 72 36 72 112 c 0
 72 199 158 258 283 258 c 0
 329 258 360 253 419 237 c 1
 419 308 l 2
 419 357 369 390 296 390 c 0xb180
419 112 m 1
 419 202 l 1
 383 211 335 217 291 217 c 0
 185 217 113 174 113 111 c 0
 113 59 158 25 227 25 c 0xb180
 298 25 352 49 419 112 c 1
352 557 m 0x3780
 388 557 404 603 425 603 c 0
 435 603 445 594 445 583 c 0
 445 570 399 516 354 516 c 0x3980
 302 516 264 564 230 564 c 0
 188 564 180 519 155 519 c 0
 144 519 135 527 135 538 c 0
 135 553 180 605 229 605 c 0
 277 605 318 557 352 557 c 0x3780
EndSplineSet
EndChar

StartChar: adieresis
Encoding: 163 228 173
Width: 600
Flags: W
HStem: -16 41<147.63 327.128> 0 41<460 540.993> 217 41<178.262 345.075> 390 41<220.065 381.887> 511 100<138.396 219.604 359.396 440.604>
VStem: 72 41<57.3261 165.246> 129 100<520.396 601.544> 350 100<520.396 601.544> 419 41<41 67 112 202 237 357.084>
LayerCount: 2
Fore
SplineSet
296 390 m 0xbe80
 232 390 156 358 144 358 c 0
 134 358 125 367 125 378 c 0
 125 388 131 395 142 399 c 0
 197 418 262 431 299 431 c 0
 392 431 460 379 460 308 c 2
 460 41 l 1
 514 41 l 2
 532 41 541 34 541 21 c 0
 541 7 532 0 514 0 c 2
 419 0 l 1x7e80
 419 67 l 1
 358 10 298 -16 228 -16 c 0
 135 -16 72 36 72 112 c 0
 72 199 158 258 283 258 c 0
 329 258 360 253 419 237 c 1
 419 308 l 2
 419 357 369 390 296 390 c 0xbe80
419 112 m 1
 419 202 l 1
 383 211 335 217 291 217 c 0
 185 217 113 174 113 111 c 0
 113 59 158 25 227 25 c 0xbe80
 298 25 352 49 419 112 c 1
179 611 m 0
 207 611 229 588 229 560 c 0
 229 534 206 511 179 511 c 0
 152 511 129 534 129 561 c 0
 129 588 152 611 179 611 c 0
400 611 m 0
 428 611 450 588 450 560 c 0
 450 534 427 511 400 511 c 0
 373 511 350 534 350 561 c 0x3f
 350 588 373 611 400 611 c 0
EndSplineSet
EndChar

StartChar: aring
Encoding: 164 229 174
Width: 600
Flags: W
HStem: -16 41<147.63 327.128> 0 41<460 540.993> 217 41<178.262 345.075> 390 41<220.065 381.887> 480 33<243.808 336.192> 628 33<243.808 336.415>
VStem: 72 41<57.3261 165.246> 197 33<526.997 614.208> 350 33<526.63 614.062> 419 41<41 67 112 202 237 357.084>
LayerCount: 2
Fore
SplineSet
296 390 m 0xbfc0
 232 390 156 358 144 358 c 0
 134 358 125 367 125 378 c 0
 125 388 131 395 142 399 c 0
 197 418 262 431 299 431 c 0
 392 431 460 379 460 308 c 2
 460 41 l 1
 514 41 l 2
 532 41 541 34 541 21 c 0
 541 7 532 0 514 0 c 2
 419 0 l 1x7fc0
 419 67 l 1
 358 10 298 -16 228 -16 c 0
 135 -16 72 36 72 112 c 0
 72 199 158 258 283 258 c 0
 329 258 360 253 419 237 c 1
 419 308 l 2
 419 357 369 390 296 390 c 0xbfc0
419 112 m 1
 419 202 l 1
 383 211 335 217 291 217 c 0
 185 217 113 174 113 111 c 0
 113 59 158 25 227 25 c 0xbfc0
 298 25 352 49 419 112 c 1
290 661 m 0
 342 661 383 621 383 569 c 0
 383 521 341 480 290 480 c 0
 239 480 197 521 197 571 c 0
 197 620 239 661 290 661 c 0
290 628 m 0
 257 628 230 602 230 571 c 0
 230 539 257 513 290 513 c 0
 323 513 350 539 350 570 c 0
 350 602 323 628 290 628 c 0
EndSplineSet
EndChar

StartChar: ae
Encoding: 165 230 175
Width: 600
Flags: W
HStem: -16 41<94.1871 218.611 386.266 502.821> 199 41<202.082 280 320 535> 216 41<108.363 238.755> 390 41<138.866 249.504 371.696 485.779>
VStem: 12 45<60.2395 160.312> 280 40<0.0065918 52 305 325.4>
LayerCount: 2
Fore
SplineSet
192 390 m 0xbc
 136 390 103 358 90 358 c 0
 81 358 71 369 71 378 c 0
 71 389 79 397 100 406 c 0
 138 423 169 431 199 431 c 0
 248 431 293 398 312 347 c 1
 336 399 382 431 430 431 c 0
 533 431 574 332 577 199 c 1
 319 199 l 1xdc
 326 97 379 25 446 25 c 0
 502 25 537 87 558 87 c 0
 569 87 578 77 578 67 c 0
 578 57 570 48 547 29 c 0
 506 -2 476 -16 444 -16 c 0
 398 -16 352 12 320 61 c 1
 320 27 l 2
 320 9 313 0 300 0 c 0
 287 0 280 9 280 27 c 2
 280 52 l 1
 241 5 204 -16 160 -16 c 0
 75 -16 12 47 12 132 c 0
 12 232 140 257 195 257 c 0
 223 257 251 253 280 245 c 1
 280 305 l 2
 280 352 241 390 192 390 c 0xbc
280 110 m 1
 280 203 l 1
 253 211 224 216 201 216 c 0xbc
 158 216 100 197 78 176 c 0
 64 162 57 145 57 121 c 0
 57 65 101 25 162 25 c 0
 199 25 233 50 280 110 c 1
320 240 m 1xdc
 535 240 l 1
 529 288 523 313 512 335 c 0
 495 370 464 390 429 390 c 0
 369 390 333 340 320 240 c 1xdc
EndSplineSet
EndChar

StartChar: ccedilla
Encoding: 166 231 176
Width: 600
Flags: W
HStem: -173 38<254.454 341.77> -81 34<315 342.453> -16 123<315 516> 390 41<220.324 409.244>
VStem: 84 451<88 204 88 204 204 204> 84 41<116.904 295.903> 277 38<-47 -16> 343 37<-131.481 -83.6783> 470 41<271.007 338.484 376 416.993>
LayerCount: 2
Fore
SplineSet
535 88 m 0xf8
 535 67 465 -8 315 -16 c 1
 315 -47 l 1
 356 -48 380 -70 380 -108 c 0
 380 -147 348 -173 301 -173 c 0
 285 -173 213 -161 213 -134 c 0
 213 -123 222 -114 233 -114 c 0
 246 -114 268 -135 299 -135 c 0
 325 -135 343 -123 343 -106 c 0
 343 -89 328 -81 298 -81 c 2
 277 -81 l 1
 277 -14 l 1xf3
 228 -7 202 3 172 25 c 0
 116 66 84 131 84 204 c 0xf8
 84 336 180 431 314 431 c 0
 376 431 429 412 470 376 c 1
 470 389 l 2
 470 408 477 417 491 417 c 0
 504 417 511 408 511 389 c 2
 511 298 l 2
 511 280 504 271 491 271 c 0
 478 271 471 278 470 295 c 0
 465 348 395 390 311 390 c 0
 201 390 125 315 125 205 c 0xf480
 125 100 202 25 311 25 c 0
 384 25 446 49 498 97 c 0
 506 105 509 107 516 107 c 0
 526 107 535 98 535 88 c 0xf8
EndSplineSet
EndChar

StartChar: egrave
Encoding: 167 232 177
Width: 600
Flags: W
HStem: -16 41<210.154 420.958> 199 41<104 478> 390 41<196.865 384.117>
VStem: 63 41<131.529 199> 63 457<204.894 238.532>
LayerCount: 2
Fore
SplineSet
520 199 m 1xe8
 104 199 l 1xf0
 118 94 198 25 306 25 c 0
 368 25 441 47 481 79 c 0
 488 84 492 86 497 86 c 0
 507 86 516 77 516 66 c 0
 516 31 396 -16 305 -16 c 0
 170 -16 63 87 63 217 c 0
 63 338 163 431 291 431 c 0
 387 431 467 380 503 297 c 0
 517 264 520 245 520 199 c 1xe8
104 240 m 1
 478 240 l 1
 462 331 388 390 291 390 c 0
 194 390 122 332 104 240 c 1
228 630 m 2
 342 530 l 2
 351 522 354 519 354 511 c 0
 354 499 345 490 333 490 c 0
 328 490 322 493 315 499 c 2
 201 599 l 2
 192 607 189 611 189 619 c 0
 189 630 198 639 209 639 c 0
 215 639 220 636 228 630 c 2
EndSplineSet
EndChar

StartChar: eacute
Encoding: 168 233 178
Width: 600
Flags: W
HStem: -16 41<210.154 420.958> 199 41<104 478> 390 41<196.865 384.117>
VStem: 63 41<131.529 199> 63 457<204.894 238.532>
LayerCount: 2
Fore
SplineSet
520 199 m 1xe8
 104 199 l 1xf0
 118 94 198 25 306 25 c 0
 368 25 441 47 481 79 c 0
 488 84 492 86 497 86 c 0
 507 86 516 77 516 66 c 0
 516 31 396 -16 305 -16 c 0
 170 -16 63 87 63 217 c 0
 63 338 163 431 291 431 c 0
 387 431 467 380 503 297 c 0
 517 264 520 245 520 199 c 1xe8
104 240 m 1
 478 240 l 1
 462 331 388 390 291 390 c 0
 194 390 122 332 104 240 c 1
402 599 m 2
 288 499 l 2
 279 492 275 490 269 490 c 0
 258 490 249 499 249 511 c 0
 249 518 251 521 261 530 c 2
 375 630 l 2
 384 637 388 639 394 639 c 0
 405 639 414 630 414 618 c 0
 414 611 411 607 402 599 c 2
EndSplineSet
EndChar

StartChar: ecircumflex
Encoding: 169 234 179
Width: 600
Flags: W
HStem: -16 41<210.154 420.958> 199 41<104 478> 390 41<196.865 384.117>
VStem: 63 41<131.529 199> 63 457<204.894 238.532>
LayerCount: 2
Fore
SplineSet
520 199 m 1xe8
 104 199 l 1xf0
 118 94 198 25 306 25 c 0
 368 25 441 47 481 79 c 0
 488 84 492 86 497 86 c 0
 507 86 516 77 516 66 c 0
 516 31 396 -16 305 -16 c 0
 170 -16 63 87 63 217 c 0
 63 338 163 431 291 431 c 0
 387 431 467 380 503 297 c 0
 517 264 520 245 520 199 c 1xe8
104 240 m 1
 478 240 l 1
 462 331 388 390 291 390 c 0
 194 390 122 332 104 240 c 1
305 639 m 1
 437 531 l 2
 448 522 450 518 450 510 c 0
 450 499 441 490 430 490 c 0
 425 490 419 493 412 498 c 2
 305 586 l 1
 198 498 l 2
 191 493 185 490 180 490 c 0
 169 490 160 499 160 510 c 0
 160 518 163 523 173 530 c 2
 305 639 l 1
EndSplineSet
EndChar

StartChar: edieresis
Encoding: 170 235 180
Width: 600
Flags: W
HStem: -16 41<210.154 420.958> 199 41<104 478> 390 41<196.865 384.117> 511 100<153.396 234.604 374.396 455.604>
VStem: 63 41<131.529 199> 63 457<204.894 238.532> 144 100<520.396 601.544> 365 100<520.396 601.544>
LayerCount: 2
Fore
SplineSet
520 199 m 1xf4
 104 199 l 1xf8
 118 94 198 25 306 25 c 0
 368 25 441 47 481 79 c 0
 488 84 492 86 497 86 c 0
 507 86 516 77 516 66 c 0
 516 31 396 -16 305 -16 c 0
 170 -16 63 87 63 217 c 0
 63 338 163 431 291 431 c 0
 387 431 467 380 503 297 c 0
 517 264 520 245 520 199 c 1xf4
104 240 m 1
 478 240 l 1
 462 331 388 390 291 390 c 0
 194 390 122 332 104 240 c 1
194 611 m 0
 222 611 244 588 244 560 c 0
 244 534 221 511 194 511 c 0
 167 511 144 534 144 561 c 0xf2
 144 588 167 611 194 611 c 0
415 611 m 0
 443 611 465 588 465 560 c 0
 465 534 442 511 415 511 c 0
 388 511 365 534 365 561 c 0xf1
 365 588 388 611 415 611 c 0
EndSplineSet
EndChar

StartChar: igrave
Encoding: 171 236 181
Width: 600
Flags: W
HStem: 0 41<92.0066 279 320 507.993> 376 41<134.007 279>
VStem: 92 416<0.328125 40.6738> 279 41<41 376>
LayerCount: 2
Fore
SplineSet
320 417 m 1xd0
 320 41 l 1xd0
 480 41 l 2
 499 41 508 34 508 21 c 0
 508 7 498 0 480 0 c 2
 119 0 l 2
 101 0 92 7 92 21 c 0xe0
 92 34 101 41 119 41 c 2
 279 41 l 1
 279 376 l 1
 161 376 l 2
 143 376 134 383 134 397 c 0
 134 410 143 417 161 417 c 2
 320 417 l 1xd0
217 630 m 2
 331 530 l 2
 340 522 343 519 343 511 c 0
 343 499 334 490 322 490 c 0
 317 490 311 493 304 499 c 2
 190 599 l 2
 181 607 178 611 178 619 c 0
 178 630 187 639 198 639 c 0
 204 639 209 636 217 630 c 2
EndSplineSet
EndChar

StartChar: iacute
Encoding: 172 237 182
Width: 600
Flags: W
HStem: 0 41<92.0066 279 320 507.993> 376 41<134.007 279>
VStem: 92 416<0.328125 40.6738> 279 41<41 376>
LayerCount: 2
Fore
SplineSet
320 417 m 1xd0
 320 41 l 1xd0
 480 41 l 2
 499 41 508 34 508 21 c 0
 508 7 498 0 480 0 c 2
 119 0 l 2
 101 0 92 7 92 21 c 0xe0
 92 34 101 41 119 41 c 2
 279 41 l 1
 279 376 l 1
 161 376 l 2
 143 376 134 383 134 397 c 0
 134 410 143 417 161 417 c 2
 320 417 l 1xd0
391 599 m 2
 277 499 l 2
 268 492 264 490 258 490 c 0
 247 490 238 499 238 511 c 0
 238 518 240 521 250 530 c 2
 364 630 l 2
 373 637 377 639 383 639 c 0
 394 639 403 630 403 618 c 0
 403 611 400 607 391 599 c 2
EndSplineSet
EndChar

StartChar: icircumflex
Encoding: 173 238 183
Width: 600
Flags: W
HStem: 0 41<92.0066 279 320 507.993> 376 41<134.007 279>
VStem: 92 416<0.328125 40.6738> 279 41<41 376>
LayerCount: 2
Fore
SplineSet
320 417 m 1xd0
 320 41 l 1xd0
 480 41 l 2
 499 41 508 34 508 21 c 0
 508 7 498 0 480 0 c 2
 119 0 l 2
 101 0 92 7 92 21 c 0xe0
 92 34 101 41 119 41 c 2
 279 41 l 1
 279 376 l 1
 161 376 l 2
 143 376 134 383 134 397 c 0
 134 410 143 417 161 417 c 2
 320 417 l 1xd0
283 639 m 1
 415 531 l 2
 426 522 428 518 428 510 c 0
 428 499 419 490 408 490 c 0
 403 490 397 493 390 498 c 2
 283 586 l 1
 176 498 l 2
 169 493 163 490 158 490 c 0
 147 490 138 499 138 510 c 0
 138 518 141 523 151 530 c 2
 283 639 l 1
EndSplineSet
EndChar

StartChar: idieresis
Encoding: 174 239 184
Width: 600
Flags: W
HStem: 0 41<92.0066 279 320 507.993> 376 41<134.007 279> 511 100<135.396 216.604 357.396 438.604>
VStem: 92 416<0.328125 40.6738> 126 100<520.396 601.544> 279 41<41 376> 348 100<520.396 601.544>
LayerCount: 2
Fore
SplineSet
320 417 m 1xe4
 320 41 l 1xe4
 480 41 l 2
 499 41 508 34 508 21 c 0
 508 7 498 0 480 0 c 2
 119 0 l 2
 101 0 92 7 92 21 c 0xf0
 92 34 101 41 119 41 c 2
 279 41 l 1
 279 376 l 1
 161 376 l 2
 143 376 134 383 134 397 c 0
 134 410 143 417 161 417 c 2
 320 417 l 1xe4
176 611 m 0
 204 611 226 588 226 560 c 0
 226 534 203 511 176 511 c 0
 149 511 126 534 126 561 c 0xe8
 126 588 149 611 176 611 c 0
398 611 m 0
 426 611 448 588 448 560 c 0
 448 534 425 511 398 511 c 0
 371 511 348 534 348 561 c 0xe2
 348 588 371 611 398 611 c 0
EndSplineSet
EndChar

StartChar: eth
Encoding: 175 240 185
Width: 600
Flags: W
HStem: -17 42<213.749 389.069> 390 40<213.3 390.821> 595 20G<423 435>
VStem: 72 42<124.306 292.402> 488 40<122.287 290.004>
LayerCount: 2
Fore
SplineSet
440 577 m 2
 365 543 l 1
 465 457 528 331 528 221 c 0
 528 148 507 93 462 48 c 0
 419 6 362 -17 300 -17 c 0
 173 -17 72 82 72 207 c 0
 72 330 173 430 298 430 c 0
 353 430 390 416 444 377 c 1
 410 441 365 495 323 525 c 1
 232 483 l 2
 230 482 228 482 225 482 c 0
 215 482 205 493 205 505 c 0
 205 512 208 519 214 521 c 2
 277 549 l 1
 239 565 219 572 179 580 c 0
 165 583 159 588 159 598 c 0
 159 611 168 620 180 620 c 0
 207 620 269 600 328 572 c 1
 423 614 l 1
 430 615 l 2
 440 615 449 606 449 594 c 0
 449 586 445 579 440 577 c 2
301 390 m 0
 197 390 114 309 114 208 c 0
 114 106 197 25 301 25 c 0
 404 25 488 106 488 205 c 0
 488 310 406 390 301 390 c 0
EndSplineSet
EndChar

StartChar: ntilde
Encoding: 176 241 186
Width: 600
Flags: W
HStem: 0 41<53.0066 126 167 238.993 378.007 439 480 540.993> 376 41<65.0066 126> 390 41<239.461 395.936> 516 87<180 182.322 354 425> 516 41<300.226 393.095> 564 41<187.297 280.763>
VStem: 126 41<41 294 348 376> 439 41<41 345.646>
LayerCount: 2
Fore
SplineSet
319 390 m 0xa3
 244 390 210 349 167 294 c 1
 167 41 l 1
 212 41 l 2
 230 41 239 34 239 21 c 0
 239 7 230 0 212 0 c 2
 81 0 l 2
 62 0 53 7 53 21 c 0
 53 34 62 41 81 41 c 2
 126 41 l 1
 126 376 l 1
 92 376 l 2
 74 376 65 383 65 397 c 0
 65 410 74 417 92 417 c 2
 167 417 l 1xc3
 167 348 l 1
 225 412 261 431 323 431 c 0
 412 431 480 372 480 295 c 2
 480 41 l 1
 514 41 l 2
 532 41 541 34 541 21 c 0
 541 7 532 0 514 0 c 2
 405 0 l 2
 387 0 378 7 378 21 c 0
 378 34 387 41 405 41 c 2
 439 41 l 1
 439 288 l 2
 439 321 414 390 319 390 c 0xa3
352 557 m 0x8f
 388 557 404 603 425 603 c 0
 435 603 445 594 445 583 c 0
 445 570 399 516 354 516 c 0x93
 302 516 264 564 230 564 c 0
 188 564 180 519 155 519 c 0
 144 519 135 527 135 538 c 0
 135 553 180 605 229 605 c 0
 277 605 318 557 352 557 c 0x8f
EndSplineSet
EndChar

StartChar: ograve
Encoding: 177 242 187
Width: 600
Flags: W
HStem: -16 41<210.671 388.897> 390 41<210.671 389.762>
VStem: 72 41<124.806 290.386> 487 41<123.612 292.179>
LayerCount: 2
Fore
SplineSet
300 431 m 0
 428 431 528 332 528 205 c 0
 528 83 426 -16 300 -16 c 0
 173 -16 72 83 72 208 c 0
 72 331 173 431 300 431 c 0
300 390 m 0
 196 390 113 309 113 208 c 0
 113 106 196 25 300 25 c 0
 403 25 487 106 487 205 c 0
 487 310 405 390 300 390 c 0
230 630 m 2
 344 530 l 2
 353.045 522.054 356 518.6 356 511 c 0
 356 499 347 490 335 490 c 0
 330 490 324 493 317 499 c 2
 203 599 l 2
 194 607 191 611 191 619 c 0
 191 630 200 639 211 639 c 0
 217 639 222 636 230 630 c 2
EndSplineSet
EndChar

StartChar: oacute
Encoding: 178 243 188
Width: 600
Flags: W
HStem: -16 41<210.671 388.897> 390 41<210.671 389.762>
VStem: 72 41<124.806 290.386> 487 41<123.612 292.179>
LayerCount: 2
Fore
SplineSet
300 431 m 0
 428 431 528 332 528 205 c 0
 528 83 426 -16 300 -16 c 0
 173 -16 72 83 72 208 c 0
 72 331 173 431 300 431 c 0
300 390 m 0
 196 390 113 309 113 208 c 0
 113 106 196 25 300 25 c 0
 403 25 487 106 487 205 c 0
 487 310 405 390 300 390 c 0
398 599 m 2
 284 499 l 2
 275 492 271 490 265 490 c 0
 254 490 245 499 245 511 c 0
 245 518 247 521 257 530 c 2
 371 630 l 2
 380 637 384 639 390 639 c 0
 401 639 410 630 410 618 c 0
 410 611 407 607 398 599 c 2
EndSplineSet
EndChar

StartChar: ocircumflex
Encoding: 179 244 189
Width: 600
Flags: W
HStem: -16 41<210.671 388.897> 390 41<210.671 389.762>
VStem: 72 41<124.806 290.386> 487 41<123.612 292.179>
LayerCount: 2
Fore
SplineSet
300 431 m 0
 428 431 528 332 528 205 c 0
 528 83 426 -16 300 -16 c 0
 173 -16 72 83 72 208 c 0
 72 331 173 431 300 431 c 0
300 390 m 0
 196 390 113 309 113 208 c 0
 113 106 196 25 300 25 c 0
 403 25 487 106 487 205 c 0
 487 310 405 390 300 390 c 0
300 639 m 1
 432 531 l 2
 443 522 445 518 445 510 c 0
 445 499 436 490 425 490 c 0
 420 490 414 493 407 498 c 2
 300 586 l 1
 193 498 l 2
 186 493 180 490 175 490 c 0
 164 490 155 499 155 510 c 0
 155 518 158 523 168 530 c 2
 300 639 l 1
EndSplineSet
EndChar

StartChar: otilde
Encoding: 180 245 190
Width: 600
Flags: W
HStem: -16 41<210.671 388.897> 390 41<210.671 389.762> 516 87<196 198.322 370 441> 516 41<316.226 408.178> 564 41<203.297 296.763>
VStem: 72 41<124.806 290.386> 487 41<123.612 292.179>
LayerCount: 2
Fore
SplineSet
300 431 m 0xc6
 428 431 528 332 528 205 c 0
 528 83 426 -16 300 -16 c 0
 173 -16 72 83 72 208 c 0
 72 331 173 431 300 431 c 0xc6
300 390 m 0
 196 390 113 309 113 208 c 0
 113 106 196 25 300 25 c 0
 403 25 487 106 487 205 c 0
 487 310 405 390 300 390 c 0
368 557 m 0xde
 404 557 420 603 441 603 c 0
 451 603 461 594 461 583 c 0
 461 569.85 415.272 516 370 516 c 0xe6
 318 516 280 564 246 564 c 0
 204 564 196 519 171 519 c 0
 160 519 151 527 151 538 c 0
 151 553 196 605 245 605 c 0
 293 605 334 557 368 557 c 0xde
EndSplineSet
EndChar

StartChar: odieresis
Encoding: 181 246 191
Width: 600
Flags: W
HStem: -16 41<210.671 388.897> 390 41<210.671 389.762> 511 100<148.396 229.604 369.396 450.604>
VStem: 72 41<124.806 290.386> 139 100<520.396 601.544> 360 100<520.396 601.544> 487 41<123.612 292.179>
LayerCount: 2
Fore
SplineSet
300 431 m 0
 428 431 528 332 528 205 c 0
 528 83 426 -16 300 -16 c 0
 173 -16 72 83 72 208 c 0
 72 331 173 431 300 431 c 0
300 390 m 0
 196 390 113 309 113 208 c 0
 113 106 196 25 300 25 c 0
 403 25 487 106 487 205 c 0
 487 310 405 390 300 390 c 0
189 611 m 0
 217 611 239 588 239 560 c 0
 239 534 216 511 189 511 c 0
 162 511 139 534 139 561 c 0
 139 588 162 611 189 611 c 0
410 611 m 0
 438 611 460 588 460 560 c 0
 460 534 437 511 410 511 c 0
 383 511 360 534 360 561 c 0
 360 588 383 611 410 611 c 0
EndSplineSet
EndChar

StartChar: divide
Encoding: 182 247 192
Width: 600
Flags: W
HStem: 25 99<260.058 340.883> 262 40<72.0066 527.993> 441 99<260.058 340.883>
VStem: 72 456<262.25 301.75> 251 99<34.1171 115.352 450.117 531.352>
LayerCount: 2
Fore
SplineSet
501 262 m 2xf0
 99 262 l 2
 81 262 72 269 72 282 c 0
 72 295 81 302 99 302 c 2
 501 302 l 2
 519 302 528 295 528 282 c 0
 528 269 519 262 501 262 c 2xf0
300 124 m 0
 328 124 350 102 350 74 c 0
 350 47 327 25 300 25 c 0
 273 25 251 47 251 75 c 0xe8
 251 101 273 124 300 124 c 0
300 540 m 0
 328 540 350 518 350 490 c 0
 350 463 327 441 300 441 c 0
 273 441 251 463 251 491 c 0
 251 517 273 540 300 540 c 0
EndSplineSet
EndChar

StartChar: oslash
Encoding: 183 248 193
Width: 600
Flags: W
HStem: -16 41<211.194 389.329> 390 41<210.671 389.499>
VStem: 72 41<122.185 290.592> 487 41<124.408 292.554>
LayerCount: 2
Fore
SplineSet
154 35 m 1
 88 -33 l 2
 80 -41 76 -43 71 -43 c 0
 61 -43 53 -35 53 -25 c 0
 53 -20 55 -16 63 -8 c 2
 129 59 l 1
 92 102 72 153 72 208 c 0
 72 332 173 431 300 431 c 0
 354 431 402 415 444 382 c 1
 508 448 l 2
 517 456 520 458 526 458 c 0
 535 458 543 450 543 440 c 0
 543 435 541 431 533 423 c 2
 469 358 l 1
 508 315 528 264 528 207 c 0
 528 83 427 -16 300 -16 c 0
 245 -16 198 1 154 35 c 1
441 329 m 1
 183 65 l 1
 216 39 256 25 300 25 c 0
 404 25 487 106 487 207 c 0
 487 253 471 294 441 329 c 1
158 89 m 1
 415 352 l 1
 382 377 343 390 300 390 c 0
 196 390 113 309 113 208 c 0
 113 164 129 122 158 89 c 1
EndSplineSet
EndChar

StartChar: ugrave
Encoding: 184 249 194
Width: 600
Flags: W
HStem: -16 41<196.316 349.205> 0 41<480 540.993> 376 41<43.0066 124 337.007 439>
VStem: 43 498<21 397 569.007 671> 124 41<58.2305 376> 439 41<41 66 115 376>
LayerCount: 2
Fore
SplineSet
439 0 m 1x64
 439 66 l 1
 384 12 323 -16 257 -16 c 0
 177 -16 124 36 124 115 c 2
 124 376 l 1xac
 70 376 l 2
 52 376 43 383 43 397 c 0xb0
 43 410 52 417 70 417 c 2
 165 417 l 1
 165 115 l 2
 165 65 205 25 256 25 c 0xa8
 323 25 384 55 439 115 c 1
 439 376 l 1
 365 376 l 2
 346 376 337 383 337 397 c 0
 337 410 346 417 365 417 c 2
 480 417 l 1
 480 41 l 1x6c
 514 41 l 2
 532 41 541 34 541 21 c 0x70
 541 7 532 0 514 0 c 2
 439 0 l 1x64
222 630 m 2
 336 530 l 2
 345 522 348 519 348 511 c 0
 348 499 339 490 327 490 c 0
 322 490 316 493 309 499 c 2
 195 599 l 2
 186 607 183 611 183 619 c 0
 183 630 192 639 203 639 c 0
 209 639 214 636 222 630 c 2
EndSplineSet
EndChar

StartChar: uacute
Encoding: 185 250 195
Width: 600
Flags: W
HStem: -16 41<196.316 349.205> 0 41<480 540.993> 376 41<43.0066 124 337.007 439>
VStem: 43 498<21 397 569.007 671> 124 41<58.2305 376> 439 41<41 66 115 376>
LayerCount: 2
Fore
SplineSet
439 0 m 1x64
 439 66 l 1
 384 12 323 -16 257 -16 c 0
 177 -16 124 36 124 115 c 2
 124 376 l 1xac
 70 376 l 2
 52 376 43 383 43 397 c 0xb0
 43 410 52 417 70 417 c 2
 165 417 l 1
 165 115 l 2
 165 65 205 25 256 25 c 0xa8
 323 25 384 55 439 115 c 1
 439 376 l 1
 365 376 l 2
 346 376 337 383 337 397 c 0
 337 410 346 417 365 417 c 2
 480 417 l 1
 480 41 l 1x6c
 514 41 l 2
 532 41 541 34 541 21 c 0x70
 541 7 532 0 514 0 c 2
 439 0 l 1x64
383 599 m 2
 269 499 l 2
 260 492 256 490 250 490 c 0
 239 490 230 499 230 511 c 0
 230 518 232 521 242 530 c 2
 356 630 l 2
 365 637 369 639 375 639 c 0
 386 639 395 630 395 618 c 0
 395 611 392 607 383 599 c 2
EndSplineSet
EndChar

StartChar: ucircumflex
Encoding: 186 251 196
Width: 600
Flags: W
HStem: -16 41<196.316 349.205> 0 41<480 540.993> 376 41<43.0066 124 337.007 439>
VStem: 43 498<21 397 569.007 671> 124 41<58.2305 376> 439 41<41 66 115 376>
LayerCount: 2
Fore
SplineSet
439 0 m 1x64
 439 66 l 1
 384 12 323 -16 257 -16 c 0
 177 -16 124 36 124 115 c 2
 124 376 l 1xac
 70 376 l 2
 52 376 43 383 43 397 c 0xb0
 43 410 52 417 70 417 c 2
 165 417 l 1
 165 115 l 2
 165 65 205 25 256 25 c 0xa8
 323 25 384 55 439 115 c 1
 439 376 l 1
 365 376 l 2
 346 376 337 383 337 397 c 0
 337 410 346 417 365 417 c 2
 480 417 l 1
 480 41 l 1x6c
 514 41 l 2
 532 41 541 34 541 21 c 0x70
 541 7 532 0 514 0 c 2
 439 0 l 1x64
292 639 m 1
 424 531 l 2
 435 522 437 518 437 510 c 0
 437 499 428 490 417 490 c 0
 412 490 406 493 399 498 c 2
 292 586 l 1
 185 498 l 2
 178 493 172 490 167 490 c 0
 156 490 147 499 147 510 c 0
 147 518 150 523 160 530 c 2
 292 639 l 1
EndSplineSet
EndChar

StartChar: udieresis
Encoding: 187 252 197
Width: 600
Flags: W
HStem: -16 41<196.316 349.205> 0 41<480 540.993> 376 41<43.0066 124 337.007 439> 511 100<140.396 221.604 361.396 442.604>
VStem: 43 498<21 397 577.396 658.604> 124 41<58.2305 376> 131 100<520.396 601.544> 352 100<520.396 601.544> 439 41<41 66 115 376>
LayerCount: 2
Fore
SplineSet
439 0 m 1x7080
 439 66 l 1
 384 12 323 -16 257 -16 c 0
 177 -16 124 36 124 115 c 2
 124 376 l 1xb480
 70 376 l 2
 52 376 43 383 43 397 c 0xb8
 43 410 52 417 70 417 c 2
 165 417 l 1
 165 115 l 2
 165 65 205 25 256 25 c 0xb4
 323 25 384 55 439 115 c 1
 439 376 l 1
 365 376 l 2
 346 376 337 383 337 397 c 0
 337 410 346 417 365 417 c 2
 480 417 l 1
 480 41 l 1x7480
 514 41 l 2
 532 41 541 34 541 21 c 0x78
 541 7 532 0 514 0 c 2
 439 0 l 1x7080
181 611 m 0
 209 611 231 588 231 560 c 0
 231 534 208 511 181 511 c 0
 154 511 131 534 131 561 c 0x32
 131 588 154 611 181 611 c 0
402 611 m 0
 430 611 452 588 452 560 c 0
 452 534 429 511 402 511 c 0
 375 511 352 534 352 561 c 0x31
 352 588 375 611 402 611 c 0
EndSplineSet
EndChar

StartChar: yacute
Encoding: 188 253 198
Width: 600
Flags: W
HStem: -186 41<57.0066 211 252 343.993> 376 41<51.0066 94 141 219.993 385.007 466 508 548.993>
VStem: 51 498<383 410 397 397 704.007 785>
LayerCount: 2
Fore
SplineSet
282 0 m 1
 94 376 l 1
 78 376 l 2
 60 376 51 383 51 397 c 0
 51 410 60 417 78 417 c 2
 193 417 l 2
 211 417 220 410 220 397 c 0
 220 383 211 376 193 376 c 2
 141 376 l 1
 305 45 l 1
 466 376 l 1
 412 376 l 2
 394 376 385 383 385 397 c 0
 385 410 394 417 412 417 c 2
 522 417 l 2
 540 417 549 410 549 397 c 0
 549 383 540 376 522 376 c 2
 508 376 l 1
 252 -145 l 1
 317 -145 l 2
 335 -145 344 -152 344 -165 c 0
 344 -179 335 -186 317 -186 c 2
 84 -186 l 2
 66 -186 57 -179 57 -165 c 0
 57 -152 66 -145 84 -145 c 2
 211 -145 l 1
 282 0 l 1
433 599 m 2
 319 499 l 2
 310 492 306 490 300 490 c 0
 289 490 280 499 280 511 c 0
 280 518 282 521 292 530 c 2
 406 630 l 2
 415 637 419 639 425 639 c 0
 436 639 445 630 445 618 c 0
 445 611 442 607 433 599 c 2
EndSplineSet
EndChar

StartChar: thorn
Encoding: 189 254 199
Width: 600
Flags: W
HStem: -186 41<22.0066 103 144 268.993> 10 41<236.391 407.831> 390 41<236.299 408.707> 549 41<22.0066 103>
VStem: 103 41<-145 106 139.475 301.85 335 549> 500 41<140.72 300.445>
LayerCount: 2
Fore
SplineSet
144 590 m 1
 144 335 l 1
 197 404 247 431 323 431 c 0
 447 431 541 340 541 221 c 0
 541 102 446 10 323 10 c 0
 246 10 190 40 144 106 c 1
 144 -145 l 1
 242 -145 l 2
 260 -145 269 -152 269 -165 c 0
 269 -179 260 -186 242 -186 c 2
 49 -186 l 2
 31 -186 22 -179 22 -165 c 0
 22 -152 31 -145 49 -145 c 2
 103 -145 l 1
 103 549 l 1
 49 549 l 2
 31 549 22 556 22 570 c 0
 22 583 31 590 49 590 c 2
 144 590 l 1
322 390 m 0
 223 390 144 315 144 221 c 0
 144 126 223 51 322 51 c 0
 420 51 500 126 500 219 c 0
 500 316 423 390 322 390 c 0
EndSplineSet
EndChar

StartChar: ydieresis
Encoding: 190 255 200
Width: 600
Flags: W
HStem: -186 41<57.0066 211 252 343.993> 376 41<51.0066 94 141 219.993 385.007 466 508 548.993> 511 100<148.396 229.604 369.396 450.604>
VStem: 51 498<383 410 397 397 704.007 785> 139 100<520.396 601.544> 360 100<520.396 601.544>
LayerCount: 2
Fore
SplineSet
282 0 m 1xf0
 94 376 l 1
 78 376 l 2
 60 376 51 383 51 397 c 0
 51 410 60 417 78 417 c 2
 193 417 l 2
 211 417 220 410 220 397 c 0
 220 383 211 376 193 376 c 2
 141 376 l 1
 305 45 l 1
 466 376 l 1
 412 376 l 2
 394 376 385 383 385 397 c 0
 385 410 394 417 412 417 c 2
 522 417 l 2
 540 417 549 410 549 397 c 0
 549 383 540 376 522 376 c 2
 508 376 l 1
 252 -145 l 1
 317 -145 l 2
 335 -145 344 -152 344 -165 c 0
 344 -179 335 -186 317 -186 c 2
 84 -186 l 2
 66 -186 57 -179 57 -165 c 0
 57 -152 66 -145 84 -145 c 2
 211 -145 l 1
 282 0 l 1xf0
189 611 m 0
 217 611 239 588 239 560 c 0
 239 534 216 511 189 511 c 0
 162 511 139 534 139 561 c 0xe8
 139 588 162 611 189 611 c 0
410 611 m 0
 438 611 460 588 460 560 c 0
 460 534 437 511 410 511 c 0
 383 511 360 534 360 561 c 0xe4
 360 588 383 611 410 611 c 0
EndSplineSet
EndChar

StartChar: uni0E01
Encoding: 191 3585 201
Width: 600
Flags: W
HStem: 0 21G<160 220 440 500> 405 50<226.347 381.461>
VStem: 160 60<0 264.146> 440 60<0 350.543>
LayerCount: 2
Fore
SplineSet
303 455 m 0
 423 455 500 364 500 290 c 10
 500 0 l 25
 440 0 l 25
 440 290 l 18
 440 362 368 405 303 405 c 8
 249 405 212 381 179 341 c 1
 219 331 245 318 267 285 c 1
 241 271 220 241 220 214 c 10
 220 0 l 25
 160 0 l 25
 160 214 l 18
 160 241 180 270 207 285 c 1
 190 306 151 318 104 326 c 1
 156 402 212 455 303 455 c 0
EndSplineSet
Comment: "Thai Gogai" 
EndChar

StartChar: uni0E02
Encoding: 192 3586 202
Width: 600
Flags: W
HStem: 0 50<156 211 271 440> 228 40<140.396 209.604> 405 50<206.646 301.391>
VStem: 95 40<272.895 343.24> 211 60<50 195.129> 215 40<273.396 342.089> 326 60<280.736 380.742> 440 60<50 445>
LayerCount: 2
Back
SplineSet
95 308 m 4
 95 352.16 130.84 388 175 388 c 4
 219.16 388 255 352.16 255 308 c 4
 255 263.84 219.16 228 175 228 c 4
 130.84 228 95 263.84 95 308 c 4
211 167 m 18
 211 221 326 256 326 336 c 0
 326 356 298 405 256 405 c 0
 230 405 135 394 135 308 c 1
 95 308 l 1
 95 374 166 455 256 455 c 0
 336 455 386 398 386 336 c 0
 386 248 271 205 271 157 c 2
135 308 m 4
 135 286 153 268 175 268 c 4
 197 268 215 286 215 308 c 4
 215 330 197 348 175 348 c 4
 153 348 135 330 135 308 c 4
EndSplineSet
Fore
SplineSet
271 157 m 2xfb
 271 50 l 1
 440 50 l 1
 440 445 l 1
 500 445 l 1
 500 0 l 1
 156 0 l 1
 156 50 l 1
 211 50 l 1
 211 167 l 2xfb
 211 221 326 256 326 336 c 0
 326 356 298 405 256 405 c 0
 243 405 211 402 183 388 c 1
 224 383 255 349 255 308 c 0xf7
 255 264 219 228 175 228 c 0
 131 228 95 264 95 308 c 0
 95 374 166 455 256 455 c 0
 336 455 386 398 386 336 c 0
 386 248 271 205 271 157 c 2xfb
135 308 m 0
 135 286 153 268 175 268 c 0
 197 268 215 286 215 308 c 0xf7
 215 330 197 348 175 348 c 0
 153 348 135 330 135 308 c 0
EndSplineSet
EndChar

StartChar: uni0E03
Encoding: 193 3587 203
Width: 600
Flags: W
HStem: 0 50<156 211 271 440> 208 40<140.396 209.604> 328 40<172.95 209.604> 425 20G<180 233.667 270.333 316 440 500>
VStem: 95 40<252.895 322.642> 211 60<50 186.716> 215 40<253.396 322.604> 326 60<277.464 369.445> 440 60<50 445>
LayerCount: 2
Back
SplineSet
95 288 m 4
 95 332.16 130.84 368 175 368 c 4
 219.16 368 255 332.16 255 288 c 4
 255 243.84 219.16 208 175 208 c 4
 130.84 208 95 243.84 95 288 c 4
211 157 m 2
 211 211 326 256 326 336 c 4
 326 351.128 317 386.403 289 394 c 5
 249 364 l 29
 208 391 l 21
 180 382 135 342.648 135 288 c 5
 95 288 l 5
 95 342.137 156.611 435 203 444 c 13
 249 414 l 29
 297 450 l 21
 335 434 386 388.084 386 336 c 4
 386 248 271 195 271 147 c 2
135 288 m 4
 135 266 153 248 175 248 c 4
 197 248 215 266 215 288 c 4
 215 310 197 328 175 328 c 4
 153 328 135 310 135 288 c 4
EndSplineSet
Fore
SplineSet
271 147 m 2xfd80
 271 50 l 1
 440 50 l 1
 440 445 l 1
 500 445 l 1
 500 0 l 1
 156 0 l 1
 156 50 l 1
 211 50 l 1
 211 157 l 2xfd80
 211 211 326 256 326 336 c 0
 326 351 317 386 289 394 c 1
 249 364 l 1
 208 391 l 1
 197 388 184 380 172 368 c 1
 175 368 l 2
 219 368 255 332 255 288 c 0xfb80
 255 244 219 208 175 208 c 0
 131 208 95 244 95 288 c 0
 95 342 157 435 203 444 c 1
 249 414 l 1
 297 450 l 1
 335 434 386 388 386 336 c 0
 386 248 271 195 271 147 c 2xfd80
135 288 m 0
 135 266 153 248 175 248 c 0
 197 248 215 266 215 288 c 0xfb80
 215 310 197 328 175 328 c 0
 153 328 135 310 135 288 c 0
EndSplineSet
EndChar

StartChar: uni0E04
Encoding: 194 3588 204
Width: 600
Flags: W
HStem: 0 21G<160 220 440 500> 144 50<264.481 335.382> 274 50<265.104 335.382> 405 50<218.399 377.462>
VStem: 90 60<216.321 344.088> 160 60<0 129.149> 340 50<198.618 269.382> 440 60<0 346.89>
LayerCount: 2
Back
SplineSet
260 234 m 0
 260 212 278 194 300 194 c 0
 322 194 340 212 340 234 c 0
 340 256 322 274 300 274 c 0
 278 274 260 256 260 234 c 0
210 234 m 0
 210 284 250 324 300 324 c 0
 350 324 390 284 390 234 c 0
 390 184 350 144 300 144 c 0
 250 144 210 184 210 234 c 0
150 288 m 0
 150 178 220 206 220 94 c 2
 220 0 l 9
 160 0 l 17
 160 94 l 2
 160 144 90 230 90 288 c 0
 90 386 196 455 301 455 c 16
 405 455 500 394 500 288 c 10
 500 0 l 25
 440 0 l 25
 440 288 l 18
 440 352 372 405 301 405 c 24
 227 405 150 354 150 288 c 0
300 274 m 1
 236 274 220 146 220 94 c 2
 220 0 l 9
 160 0 l 17
 160 94 l 18
 160 142 192 324 300 324 c 1
 300 274 l 1
EndSplineSet
Fore
SplineSet
260 234 m 0
 260 212 278 194 300 194 c 0
 322 194 340 212 340 234 c 0
 340 256 322 274 300 274 c 0
 278 274 260 256 260 234 c 0
179 199 m 1
 192.915 240.746 227.29 324 300 324 c 0
 350 324 390 284 390 234 c 0
 390 184 350 144 300 144 c 0
 271 144 246 157 229 178 c 1
 222 147 220 114 220 94 c 2
 220 0 l 1
 160 0 l 1
 160 94 l 2
 160 144 90 230 90 288 c 0
 90 386 196 455 301 455 c 0
 405 455 500 394 500 288 c 2
 500 0 l 1
 440 0 l 1
 440 288 l 2
 440 352 372 405 301 405 c 0
 227 405 150 354 150 288 c 0
 150 239 164 218 179 199 c 1
EndSplineSet
EndChar

StartChar: uni0E05
Encoding: 195 3589 205
Width: 600
Flags: W
HStem: 0 21G<160 220 440 500> 144 50<264.481 335.382> 274 50<265.056 335.382> 425 20G<193 259.333 346 415>
VStem: 90 60<216.321 342.424> 160 60<0 129.149> 340 50<198.618 269.382> 440 60<0 347.256>
LayerCount: 2
Back
SplineSet
260 234 m 0
 260 212 278 194 300 194 c 0
 322 194 340 212 340 234 c 0
 340 256 322 274 300 274 c 0
 278 274 260 256 260 234 c 0
210 234 m 0
 210 284 250 324 300 324 c 0
 350 324 390 284 390 234 c 0
 390 184 350 144 300 144 c 0
 250 144 210 184 210 234 c 0
150 288 m 0
 150 178 220 206 220 94 c 2
 220 0 l 9
 160 0 l 17
 160 94 l 2
 160 144 90 230 90 288 c 0
 90 362.248 160 428 226 445 c 1
 301 400 l 1
 382 445 l 0
 448 424 500 365.22 500 288 c 10
 500 0 l 25
 440 0 l 25
 440 288 l 18
 440 328.754 402 376 374 389 c 1
 301 350 l 25
 230 393 l 17
 196 376 150 332.412 150 288 c 0
300 274 m 1
 236 274 220 146 220 94 c 2
 220 0 l 9
 160 0 l 17
 160 94 l 18
 160 142 192 324 300 324 c 1
 300 274 l 1
EndSplineSet
Fore
SplineSet
260 234 m 0
 260 212 278 194 300 194 c 0
 322 194 340 212 340 234 c 0
 340 256 322 274 300 274 c 0
 278 274 260 256 260 234 c 0
179 199 m 1
 193 241 227 324 300 324 c 0
 350 324 390 284 390 234 c 0
 390 184 350 144 300 144 c 0
 271 144 246 157 229 178 c 1
 222 147 220 114 220 94 c 2
 220 0 l 1
 160 0 l 1
 160 94 l 2
 160 144 90 230 90 288 c 0
 90 362 160 428 226 445 c 1
 301 400 l 1
 382 445 l 1
 448 424 500 365 500 288 c 2
 500 0 l 1
 440 0 l 1
 440 288 l 2
 440 329 402 376 374 389 c 1
 301 350 l 1
 230 393 l 1
 196 376 150 332 150 288 c 0
 150 239 164 218 179 199 c 1
EndSplineSet
EndChar

StartChar: uni0E06
Encoding: 196 3590 206
Width: 600
Flags: W
HStem: -10 56<128.532 169.704> 208 40<56.3964 125.604> 328 40<88.9496 125.604> 425 20G<96 149.667 186.333 232 440 500>
VStem: 11 40<252.895 322.642> 74 50<48.5464 130.189> 131 40<253.396 322.604> 170 60<54.0037 135 185 256.109> 242 60<317.637 387.829> 440 60<70 445>
LayerCount: 2
Back
SplineSet
11 288 m 4
 11 332.16 46.8398 368 91 368 c 4
 135.16 368 171 332.16 171 288 c 4
 171 243.84 135.16 208 91 208 c 4
 46.8398 208 11 243.84 11 288 c 4
302 353 m 4
 302 306 230 260 230 232 c 14
 230 62 l 2
 230 23 191 -13 154 -10 c 0
 106 -10 74 43 74 94 c 0
 74 150 118 186 198 186 c 0
 256 186 264 183 330 163 c 0
 411 138 440 70 440 70 c 9
 440 445 l 25
 500 445 l 25
 500 0 l 17
 438 0 l 1
 438 0 400 73 330 105 c 0
 286 125 253 136 198 136 c 0
 150 136 124 130 124 94 c 0
 124 58 133.437 51.6252 155 46 c 24
 169.718 42.1611 170 66.79 170 82 c 18
 170 242 l 6
 170 270 242 330 242 353 c 4
 242 374.539 233 386.403 205 394 c 5
 165 364 l 29
 124 391 l 21
 96 382 51 342.648 51 288 c 5
 11 288 l 5
 11 342.137 72.6113 435 119 444 c 13
 165 414 l 29
 213 450 l 21
 251 434 302 404.341 302 353 c 4
51 288 m 4
 51 266 69 248 91 248 c 4
 113 248 131 266 131 288 c 4
 131 310 113 328 91 328 c 4
 69 328 51 310 51 288 c 4
EndSplineSet
Fore
SplineSet
302 353 m 0xfec0
 302 306 230 260 230 232 c 2
 230 185 l 1
 262 185 278 179 330 163 c 0
 411 138 440 70 440 70 c 1
 440 445 l 1
 500 445 l 1
 500 0 l 1
 438 0 l 1
 397 79 311 126 230 135 c 1
 230 62 l 2
 230 23 191 -10 154 -10 c 0
 106 -10 74 43 74 94 c 0
 74 143 108 177 170 184 c 1
 170 242 l 2xfdc0
 170 270 242 330 242 353 c 0
 242 375 233 386 205 394 c 1
 165 364 l 1
 124 391 l 1
 113 388 100 380 88 368 c 1
 91 368 l 2
 135 368 171 332 171 288 c 0
 171 244 135 208 91 208 c 0
 47 208 11 244 11 288 c 0
 11 342 73 435 119 444 c 1
 165 414 l 1
 213 450 l 1
 251 434 302 404 302 353 c 0xfec0
51 288 m 0
 51 266 69 248 91 248 c 0
 113 248 131 266 131 288 c 0xfec0
 131 310 113 328 91 328 c 0
 69 328 51 310 51 288 c 0
170 135 m 1xfdc0
 140 135 124 122 124 94 c 0
 124 69 134 46 155 46 c 0
 171 46 170 67 170 82 c 2
 170 135 l 1xfdc0
EndSplineSet
EndChar

StartChar: uni0E07
Encoding: 197 3591 207
Width: 600
Flags: W
HStem: 0 54<365 395> 275 50<329.618 391.32> 405 50<329.618 400.382>
VStem: 275 50<329.618 400.382> 395 60<54 280> 405 50<329.393 400.156>
LayerCount: 2
Back
SplineSet
275 365 m 4
 275 415 315 455 365 455 c 4
 415 455 455 415 455 365 c 4
 455 315 415 275 365 275 c 4
 315 275 275 315 275 365 c 4
325 365 m 4
 325 343 343 325 365 325 c 4
 387 325 405 343 405 365 c 4
 405 387 387 405 365 405 c 4
 343 405 325 387 325 365 c 4
395 304 m 21
 389 299 455 365 455 365 c 13
 455 0 l 29
 348 0 l 29
 114 234 l 29
 149 270 l 21
 365 54 l 5
 395 54 l 13
 395 304 l 21
EndSplineSet
Fore
SplineSet
325 365 m 0xf4
 325 343 343 325 365 325 c 0
 387 325 405 343 405 365 c 0
 405 387 387 405 365 405 c 0
 343 405 325 387 325 365 c 0xf4
275 365 m 0
 275 415 315 455 365 455 c 0
 415 455 455 415 455 365 c 2
 455 0 l 1xf4
 348 0 l 1
 114 234 l 1
 149 270 l 1
 365 54 l 1
 395 54 l 1
 395 280 l 1xf8
 386 277 376 275 365 275 c 0
 315 275 275 315 275 365 c 0
EndSplineSet
EndChar

StartChar: uni0E08
Encoding: 198 3592 208
Width: 600
Flags: W
HStem: 0 50<410 440> 140 50<236.618 300.763> 270 50<236.844 306.728> 405 50<209.722 387.841>
VStem: 182 50<194.618 265.382> 440 60<50 360.319>
LayerCount: 2
Back
SplineSet
232 230 m 4
 232 208 250 190 272 190 c 4
 294 190 312 208 312 230 c 4
 312 252 294 270 272 270 c 4
 250 270 232 252 232 230 c 4
182 230 m 4
 182 280 222 320 272 320 c 4
 322 320 362 280 362 230 c 4
 362 180 322 140 272 140 c 4
 222 140 182 180 182 230 c 4
319 184 m 5
 358 256 l 5
 410 50 l 5
 440 50 l 5
 440 306 l 6
 440 378 361 405 292 405 c 0
 225 405 181 370 142 324 c 1
 111 363 l 1
 150 409 208 455 290 455 c 0
 408 455 500 396 500 306 c 6
 500 0 l 5
 368 0 l 5
 319 184 l 5
EndSplineSet
Fore
SplineSet
182 230 m 0
 182 280 222 320 272 320 c 0
 317 320 349 292 361 245 c 2
 410 50 l 1
 440 50 l 1
 440 306 l 2
 440 378 361 405 292 405 c 0
 225 405 181 370 142 324 c 1
 111 363 l 1
 150 409 208 455 290 455 c 0
 408 455 500 396 500 306 c 2
 500 0 l 1
 368 0 l 1
 326 158 l 1
 311 147 292 140 272 140 c 0
 222 140 182 180 182 230 c 0
232 230 m 0
 232 208 250 190 272 190 c 0
 294 190 312 208 312 230 c 0
 312 252 294 270 272 270 c 0
 250 270 232 252 232 230 c 0
EndSplineSet
EndChar

StartChar: uni0E09
Encoding: 199 3593 209
Width: 600
Flags: W
HStem: -10 50<414.709 485.382> 135 50<172.618 227.794> 265 50<172.618 243.382> 405 50<189.25 373.12>
VStem: 118 50<189.618 260.382> 228 70<62 137> 248 50<189.393 260.156> 422 60<183 362.532> 490 50<44.8438 114.146>
LayerCount: 2
Back
SplineSet
360 80 m 4
 360 130 400 170 450 170 c 4
 500 170 540 130 540 80 c 4
 540 30 500 -10 450 -10 c 4
 400 -10 360 30 360 80 c 4
410 80 m 4
 410 58 428 40 450 40 c 4
 472 40 490 58 490 80 c 4
 490 102 472 120 450 120 c 4
 428 120 410 102 410 80 c 4
118 225 m 4
 118 275 158 315 208 315 c 4
 258 315 298 275 298 225 c 4
 298 175 258 135 208 135 c 4
 158 135 118 175 118 225 c 4
168 225 m 4
 168 203 186 185 208 185 c 4
 230 185 248 203 248 225 c 4
 248 247 230 265 208 265 c 4
 186 265 168 247 168 225 c 4
228 162 m 5
 298 225 l 5
 298 225 299 133 298 62 c 13
 422 183 l 29
 422 306 l 22
 422 377 348 405 279 405 c 4
 212 405 153 370 114 324 c 5
 83 363 l 5
 122 409 195 455 277 455 c 4
 395 455 482 395 482 306 c 14
 482 118 l 21
 459 148 434 138 417 118 c 13
 296 0 l 21
 228 0 l 5
 228 162 l 5
EndSplineSet
Fore
SplineSet
168 225 m 0xfb80
 168 203 186 185 208 185 c 0
 230 185 248 203 248 225 c 0
 248 247 230 265 208 265 c 0
 186 265 168 247 168 225 c 0xfb80
118 225 m 0
 118 275 158 315 208 315 c 0
 258 315 298 275 298 225 c 2xfb80
 298 62 l 1
 422 183 l 1
 422 306 l 2
 422 377 348 405 279 405 c 0
 212 405 153 370 114 324 c 1
 83 363 l 1
 122 409 195 455 277 455 c 0
 395 455 482 395 482 306 c 2
 482 164 l 1
 516 151 540 119 540 80 c 0
 540 30 500 -10 450 -10 c 0
 406 -10 369 22 361 64 c 1
 296 0 l 1
 228 0 l 1
 228 137 l 1xfd80
 222 136 215 135 208 135 c 0
 158 135 118 175 118 225 c 0
410 80 m 0
 410 58 428 40 450 40 c 0
 472 40 490 58 490 80 c 0
 490 102 472 120 450 120 c 0
 428 120 410 102 410 80 c 0
EndSplineSet
EndChar

StartChar: uni0E0A
Encoding: 200 3594 210
Width: 600
Flags: W
HStem: 0 50<156 211 271 440> 228 40<140.396 209.604> 405 50<206.646 301.391>
VStem: 95 40<272.895 343.24> 211 60<50 195.129> 215 40<273.396 342.089> 326 60<280.736 380.742> 440 60<50 293.919> 480 60<405.971 480>
LayerCount: 2
Fore
SplineSet
271 157 m 2xfa
 271 50 l 25
 440 50 l 17
 440 242 l 2xfb
 440 282 448 318 396 358 c 1
 452 386 480 416 480 480 c 9
 540 480 l 17xf280
 540 412 521 376 456 358 c 1
 500 322 500 290 500 242 c 2
 500 0 l 1
 156 0 l 9
 156 50 l 25
 211 50 l 25
 211 167 l 18xfb
 211 221 326 256 326 336 c 0
 326 356 298 405 256 405 c 0
 243 405 211 402 183 388 c 1
 224 383 255 349 255 308 c 0xf6
 255 264 219 228 175 228 c 0
 131 228 95 264 95 308 c 0
 95 374 166 455 256 455 c 0
 336 455 386 398 386 336 c 0
 386 248 271 205 271 157 c 2xfa
135 308 m 0
 135 286 153 268 175 268 c 0
 197 268 215 286 215 308 c 0xf6
 215 330 197 348 175 348 c 0
 153 348 135 330 135 308 c 0
EndSplineSet
EndChar

StartChar: uni0E0B
Encoding: 201 3595 211
Width: 600
Flags: W
HStem: 0 50<156 211 271 440> 208 40<140.396 209.604> 328 40<172.95 209.604> 424 20G<180 233.667 270.333 316>
VStem: 95 40<252.895 322.642> 211 60<50 186.344> 215 40<253.396 322.604> 326 60<277.316 369.445> 440 60<50 293.919> 480 60<405.971 480>
LayerCount: 2
Fore
SplineSet
500 0 m 1xf980
 156 0 l 9
 156 50 l 25
 211 50 l 25
 211 157 l 18xfd80
 211 210 326 256 326 336 c 0
 326 351 317 386 289 394 c 1
 249 364 l 1
 208 391 l 1
 197 388 184 380 172 368 c 1
 175 368 l 2
 219 368 255 332 255 288 c 0xfb
 255 244 219 208 175 208 c 0
 131 208 95 244 95 288 c 0
 95 342 157 435 203 444 c 1
 249 414 l 1
 297 450 l 1
 335 434 386 388 386 336 c 0
 386 248 271 194 271 147 c 2
 271 50 l 25
 440 50 l 17
 440 242 l 2xfd80
 440 282 448 318 396 358 c 1
 452 386 480 416 480 480 c 9
 540 480 l 17xf940
 540 412 521 376 456 358 c 1
 500 322 500 290 500 242 c 2
 500 0 l 1xf980
135 288 m 0
 135 266 153 248 175 248 c 0
 197 248 215 266 215 288 c 0xfb
 215 310 197 328 175 328 c 0
 153 328 135 310 135 288 c 0
EndSplineSet
EndChar

StartChar: uni0E0C
Encoding: 202 3596 212
Width: 600
Flags: W
HStem: -10 39<121.121 190.879 291.271 340.417> 99 39<291.06 316> 110 40<136.206 191.105> 405 50<156.747 284.488>
VStem: 76 60<147 264.146> 76 40<35.3964 105.607> 196 40<35.3964 104.604> 256 33<29.715 97.9394> 316 60<138 371.355> 343 32<31.2598 64> 469 60<60 445>
LayerCount: 2
Back
SplineSet
76 70 m 0
 76 114.16 111.84 150 156 150 c 0
 200.16 150 236 114.16 236 70 c 0
 236 25.8398 200.16 -10 156 -10 c 0
 111.84 -10 76 25.8398 76 70 c 0
116 70 m 0
 116 48 134 30 156 30 c 0
 178 30 196 48 196 70 c 0
 196 92 178 110 156 110 c 0
 134 110 116 92 116 70 c 0
316 99 m 0xdf40
 299 99 289 81 289 64 c 0
 289 47 299 29 316 29 c 0xdf40
 333 29 343 47 343 64 c 0xdec0
 343 81 333 99 316 99 c 0xdf40
76 70 m 9
 76 214 l 18
 76 241 96 270 123 285 c 1
 106 306 82 318 35 326 c 1
 87 402 130 455 221 455 c 0
 341 455 376 364 376 290 c 10
 376 124 l 1xbf40
 469 60 l 1
 469 445 l 1
 529 445 l 1
 529 0 l 1
 465 0 l 1
 375 60 l 1xbec0
 375 0 344 -10 320 -10 c 0
 264 -10 256 36 256 64 c 0
 256 116 288 138 316 138 c 1
 316 290 l 18
 316 362 286 405 221 405 c 8
 171.029 405 147 377 110 341 c 1
 150 331 161 318 183 285 c 1
 156 271 135 241 136 214 c 1
 136 144 l 1
 76 70 l 9
EndSplineSet
Fore
SplineSet
316 99 m 0xd3a0
 299 99 289 81 289 64 c 0
 289 47 299 29 316 29 c 0xd3a0
 333 29 343 47 343 64 c 0xd360
 343 81 333 99 316 99 c 0xd3a0
116 70 m 0xb720
 116 48 134 30 156 30 c 0
 178 30 196 48 196 70 c 0
 196 92 178 110 156 110 c 0
 134 110 116 92 116 70 c 0xb720
136 147 m 1xdba0
 142 149 149 150 156 150 c 0
 200 150 236 114 236 70 c 0
 236 26 200 -10 156 -10 c 0
 112 -10 76 26 76 70 c 2xb720
 76 214 l 2
 76 241 96 270 123 285 c 1
 106 306 82 318 35 326 c 1
 87 402 130 455 221 455 c 0
 341 455 376 364 376 290 c 2
 376 124 l 1xbba0
 469 60 l 1
 469 445 l 1
 529 445 l 1
 529 0 l 1
 465 0 l 1
 375 60 l 1xb360
 375 0 344 -10 320 -10 c 0
 264 -10 256 36 256 64 c 0
 256 116 288 138 316 138 c 1
 316 290 l 2
 316 362 286 405 221 405 c 0
 171 405 147 377 110 341 c 1
 150 331 161 318 183 285 c 1
 156 271 136 241 136 214 c 2
 136 147 l 1xdba0
EndSplineSet
EndChar

StartChar: uni0E0D
Encoding: 203 3597 213
Width: 600
Flags: W
HStem: -167 34<338.738 418.364 408 458.078> -75 25<338.66 393.594> -10 40<120.895 191.105> 0 50<376 469> 110 40<136.206 191.105> 405 50<156.747 284.488>
VStem: 76 60<147 264.146> 76 40<35.3964 105.607> 196 40<34.8947 105.105> 307 30<-131.433 -76.4452> 316 60<50 371.355> 395 30<-131.954 -76.1963> 469 60<50 445>
LayerCount: 2
Fore
SplineSet
116 70 m 0xed98
 116 48 134 30 156 30 c 0
 178 30 196 48 196 70 c 0
 196 92 178 110 156 110 c 0
 134 110 116 92 116 70 c 0xed98
136 147 m 1xdeb8
 142 149 149 150 156 150 c 0
 200 150 236 114 236 70 c 0
 236 26 200 -10 156 -10 c 0
 112 -10 76 26 76 70 c 2xed98
 76 214 l 2
 76 241 96 270 123 285 c 1
 106 306 82 318 35 326 c 1
 87 402 130 455 221 455 c 0
 341 455 376 364 376 290 c 2
 376 50 l 1
 469 50 l 1
 469 445 l 1
 529 445 l 1
 529 0 l 1
 316 0 l 1
 316 290 l 2
 316 362 286 405 221 405 c 0
 171 405 147 377 110 341 c 1
 150 331 161 318 183 285 c 1
 157 271 136 241 136 214 c 2
 136 147 l 1xdeb8
366 -75 m 0
 350 -75 337 -90 337 -104 c 0xccd8
 337 -121 351 -133 366 -133 c 0
 378 -133 395 -123 395 -104 c 0
 395 -87 380 -75 366 -75 c 0
366 -50 m 0
 391 -50 425 -75 425 -104 c 0
 425 -120 416 -125 408 -134 c 1
 462 -134 475 -90 479 -64 c 1
 535 -64 l 17
 519 -110 488 -167 405 -167 c 0
 361 -167 307 -148 307 -104 c 0
 307 -71 342 -50 366 -50 c 0
EndSplineSet
Substitution2: "Thai Descender Removal Single Substitution" uni0E0D.descless
EndChar

StartChar: uni0E0E
Encoding: 204 3598 214
Width: 600
Flags: W
HStem: -166 36<193.23 279.217> -59 40<194.418 259.022> -10 50<124.618 195.382> 120 50<124.618 186.32> 405 50<250.662 390.348>
VStem: 70 50<44.8438 115.156> 129 60<-123.248 -67.6829> 190 60<165 264.146> 200 50<44.8438 115.607> 440 60<-105 357.575>
AnchorPoint: "BelowBase" 500 -210 basechar 0
LayerCount: 2
Back
SplineSet
440 -165 m 17
 387 -140 284 -59 236 -59 c 0
 218 -59 189 -77 189 -94 c 0
 189 -116 215 -130 236 -130 c 0
 304 -130 310 -10 363 23 c 1
 408 0 l 1
 328 -70 360 -166 236 -166 c 0
 186 -166 129 -137 129 -92 c 0
 129 -46 188 -19 236 -19 c 0
 299 -19 397 -76 440 -105 c 1
EndSplineSet
Fore
SplineSet
120 80 m 0xfec0
 120 58 138 40 160 40 c 0
 182 40 200 58 200 80 c 0
 200 102 182 120 160 120 c 0
 138 120 120 102 120 80 c 0xfec0
440 -105 m 1
 440 290 l 2
 440 362 383 405 318 405 c 0
 264 405 242 381 209 341 c 1
 249 331 275 318 297 285 c 1
 271 271 250 241 250 214 c 2xff40
 250 80 l 2xfec0
 250 30 210 -10 160 -10 c 0
 110 -10 70 30 70 80 c 0
 70 130 110 170 160 170 c 0
 171 170 181 168 190 165 c 1
 190 214 l 2xff40
 190 241 210 270 237 285 c 1
 220 306 181 318 134 326 c 1
 186 402 227 455 318 455 c 0
 438 455 500 364 500 290 c 2
 500 -165 l 1
 440 -165 l 1
 415 -153 377 -128 341 -105 c 1
 323 -140 300 -166 236 -166 c 0
 186 -166 129 -137 129 -92 c 0
 129 -46 188 -19 236 -19 c 0
 260 -19 289 -27 318 -39 c 1
 330 -13 343 11 363 23 c 1
 408 0 l 1
 387 -19 373 -39 363 -60 c 1
 394 -75 422 -93 440 -105 c 1
298 -81 m 1
 274 -68 252 -59 236 -59 c 0
 218 -59 189 -77 189 -94 c 0
 189 -116 215 -130 236 -130 c 0
 265 -130 283 -108 298 -81 c 1
EndSplineSet
EndChar

StartChar: uni0E0F
Encoding: 205 3599 215
Width: 600
Flags: W
HStem: -166 38<155.049 228.217> -58 38<152.367 220.728> -10 50<124.618 195.382> 120 50<124.618 186.32> 405 50<250.662 390.348>
VStem: 70 50<44.8438 115.156> 100 50<-120.854 -61.6284> 190 60<165 264.146> 200 50<44.8438 115.607> 440 60<-105 357.575>
AnchorPoint: "BelowBase" 500 -210 basechar 0
LayerCount: 2
Back
SplineSet
440 -105 m 1
 392 -40 l 5
 345 -100 l 5
 295 -70 270 -20 198 -20 c 4
 171 -20 100 -44 100 -92 c 4
 100 -136 156 -166 202 -166 c 4
 308 -166 274 -36 343 2 c 5
 298 25 l 5
 238 -8 250 -128 198 -128 c 4
 179 -128 150 -115 150 -92 c 4
 150 -68 166 -58 194 -58 c 4
 254 -58 287 -130 345 -160 c 5
 392 -100 l 5
 440 -165 l 1
EndSplineSet
Fore
SplineSet
120 80 m 0xfcc0
 120 58 138 40 160 40 c 0
 182 40 200 58 200 80 c 0
 200 102 182 120 160 120 c 0
 138 120 120 102 120 80 c 0xfcc0
440 -165 m 1
 392 -100 l 1
 345 -160 l 1
 321 -148 301 -128 282 -109 c 1
 269 -142 250 -166 202 -166 c 0
 156 -166 100 -136 100 -92 c 0
 100 -44 171 -20 198 -20 c 0
 221 -20 240 -25 255 -33 c 1
 265 -9 277 13 298 25 c 1
 343 2 l 1
 319 -11 307 -37 298 -64 c 1
 313 -76 327 -89 345 -100 c 1
 392 -40 l 1
 440 -105 l 1
 440 290 l 2
 440 362 383 405 318 405 c 0
 264 405 242 381 209 341 c 1
 249 331 275 318 297 285 c 1
 271 271 250 241 250 214 c 2xfb40
 250 80 l 2xf8c0
 250 30 210 -10 160 -10 c 0
 110 -10 70 30 70 80 c 0
 70 130 110 170 160 170 c 0
 171 170 181 168 190 165 c 1
 190 214 l 2xfd40
 190 241 210 270 237 285 c 1
 220 306 181 318 134 326 c 1
 186 402 227 455 318 455 c 0
 438 455 500 364 500 290 c 2
 500 -165 l 1
 440 -165 l 1
242 -74 m 1
 227 -64 212 -58 194 -58 c 0
 166 -58 150 -68 150 -92 c 0
 150 -115 179 -128 198 -128 c 0
 221 -128 232 -104 242 -74 c 1
EndSplineSet
EndChar

StartChar: uni0E10
Encoding: 206 3600 216
Width: 600
Flags: W
HStem: -191 45<125.049 198.023 414 455> -134 28<412.575 454.561> -82 38<122.559 191.93> -44 30<412.575 469.793> 0 50<410 440> 82 50<236.618 301.76> 212 50<236.618 307.08> 363 50<414.925 495.946> 406 50<267.595 400.869>
VStem: 70 50<-144.854 -85.6284> 182 50<136.618 207.382> 380 31<-104.2 -45.4326> 440 60<50 226 248 252.202> 471 29<-105.017 -45.4612>
LayerCount: 2
Back
SplineSet
380 -74 m 0
 380 -40.8799 406.88 -14 440 -14 c 0
 473.12 -14 500 -40.8799 500 -74 c 0
 500 -107.12 473.12 -134 440 -134 c 0
 406.88 -134 380 -107.12 380 -74 c 0
500 -76 m 10
 500 -191 l 17
 401 -191 l 1
 342 -126 l 1
 305 -184 l 1
 281 -172 271 -152 252 -133 c 1
 239 -166 219 -192 172 -190 c 0
 126 -190 70 -160 70 -116 c 0
 70 -68 128 -44 168 -44 c 0
 191 -44 210 -49 225 -57 c 1
 235 -33 247 -11 268 1 c 1
 313 -22 l 1
 289 -35 277 -61 268 -88 c 1
 282 -100 287 -113 305 -124 c 1
 342 -66 l 1
 414 -146 l 9
 455 -146 l 25
 455 -118 l 25
 467.87 -97.7197 470.441 -82.3888 488 -66 c 28
 492.453 -61.8438 500 -56 500 -76 c 10
442 -44 m 0
 425 -44 411 -58 411 -75 c 128
 411 -92 425 -106 442 -106 c 128
 459 -106 471 -92 471 -75 c 128
 471 -58 459 -44 442 -44 c 0
212 -98 m 1
 197 -88 182 -82 164 -82 c 0
 136 -82 120 -92 120 -116 c 0xfb80
 120 -139 149 -152 168 -152 c 0
 191 -152 202 -128 212 -98 c 1
EndSplineSet
Fore
SplineSet
329 456 m 0xfef8
 422 456 416 413 477 413 c 0
 489 413 490 414 494 417 c 2
 508 428 l 1
 538 388 l 1
 523 377 l 2
 505 364 488 363 456 363 c 0xff78
 416 363 392 406 329 406 c 0
 308 406 262 403 217 369 c 1
 275 356 500 297 500 248 c 2xfef8
 500 0 l 1xfef4
 368 0 l 1
 328 102 l 1
 313 89 293 82 272 82 c 0
 222 82 182 122 182 172 c 0
 182 222 222 262 272 262 c 0
 314 262 346 237 360 195 c 2
 410 50 l 1
 440 50 l 1
 440 226 l 2
 440 278 188 325 137 334 c 1
 137 356 l 1
 186 423 248 456 329 456 c 0xfef8
232 172 m 0
 232 150 250 132 272 132 c 0
 294 132 312 150 312 172 c 0
 312 194 294 212 272 212 c 0
 250 212 232 194 232 172 c 0
212 -98 m 1
 197 -88 182 -82 164 -82 c 0
 136 -82 120 -92 120 -116 c 0
 120 -139 149 -152 168 -152 c 0
 191 -152 202 -128 212 -98 c 1
442 -44 m 0
 425 -44 411 -58 411 -75 c 0
 411 -92 425 -106 442 -106 c 0
 459 -106 471 -92 471 -75 c 0xfe74
 471 -58 459 -44 442 -44 c 0
500 -74 m 2
 500 -191 l 1xfe74
 401 -191 l 1
 342 -126 l 1
 305 -184 l 1
 281 -172 271 -152 252 -133 c 1
 239 -166 219 -190 172 -190 c 0
 126 -190 70 -160 70 -116 c 0
 70 -68 128 -44 168 -44 c 0
 191 -44 210 -49 225 -57 c 1
 235 -33 247 -11 268 1 c 1
 313 -22 l 1
 289 -35 277 -61 268 -88 c 1
 282 -100 287 -113 305 -124 c 1
 342 -66 l 1
 414 -146 l 1
 455 -146 l 1
 455 -132 l 1
 450 -133 445 -134 440 -134 c 0
 407 -134 380 -107 380 -74 c 0
 380 -41 407 -14 440 -14 c 0xfe78
 473 -14 500 -41 500 -74 c 2
EndSplineSet
Substitution2: "Thai Descender Removal Single Substitution" uni0E10.descless
EndChar

StartChar: uni0E11
Encoding: 207 3601 217
Width: 600
Flags: W
HStem: 0 21G<170 237.154 440 500> 208 40<56.3964 125.604> 328 40<88.9496 125.604> 405 50<390.053 432.685>
VStem: 11 40<252.895 322.642> 131 40<253.396 322.604> 170 60<137 256.109> 242 60<317.637 387.829> 440 60<0 400.993>
LayerCount: 2
Back
SplineSet
11 288 m 4
 11 332.16 46.8398 368 91 368 c 4
 135.16 368 171 332.16 171 288 c 4
 171 243.84 135.16 208 91 208 c 4
 46.8398 208 11 243.84 11 288 c 4
230 232 m 6
 230 137 l 29
 286 273 l 22
 318 351 353 455 408 455 c 4
 449 455 500 439 500 336 c 6
 500 0 l 29
 440 0 l 21
 440 336 l 6
 440 379 430 405 408 405 c 4
 393 405 360 322 335 260 c 6
 229 0 l 13
 170 0 l 29
 170 242 l 22
 170 270 242 330 242 353 c 4
 242 374.538 233 386.403 205 394 c 5
 165 364 l 29
 124 391 l 21
 96 382 51 342.648 51 288 c 5
 11 288 l 5
 11 342.137 72.6113 435 119 444 c 13
 165 414 l 29
 213 450 l 21
 251 434 302 404.341 302 353 c 4
 302 306 230 260 230 232 c 6
51 288 m 4
 51 266 69 248 91 248 c 4
 113 248 131 266 131 288 c 4
 131 310 113 328 91 328 c 4
 69 328 51 310 51 288 c 4
EndSplineSet
Fore
SplineSet
230 232 m 2xfb80
 230 137 l 1
 286 273 l 2
 318 351 353 455 408 455 c 0
 449 455 500 439 500 336 c 2
 500 0 l 1
 440 0 l 1
 440 336 l 2
 440 379 430 405 408 405 c 0
 393 405 360 322 335 260 c 2
 229 0 l 1
 170 0 l 1
 170 242 l 2xfb80
 170 270 242 330 242 353 c 0
 242 375 233 386 205 394 c 1
 165 364 l 1
 124 391 l 1
 113 388 100 380 88 368 c 1
 91 368 l 2
 135 368 171 332 171 288 c 0xfd80
 171 244 135 208 91 208 c 0
 47 208 11 244 11 288 c 0
 11 342 73 435 119 444 c 1
 165 414 l 1
 213 450 l 1
 251 434 302 404 302 353 c 0
 302 306 230 260 230 232 c 2xfb80
51 288 m 0
 51 266 69 248 91 248 c 0
 113 248 131 266 131 288 c 0xfd80
 131 310 113 328 91 328 c 0
 69 328 51 310 51 288 c 0
EndSplineSet
EndChar

StartChar: uni0E12
Encoding: 208 3602 218
Width: 600
Flags: W
HStem: -10 39<301.271 350.417> 99 39<301.06 326> 164 42<179.203 207> 286 46<178.496 249.427> 424 20G<247.234 310 469 529>
VStem: 21 60<204.424 349.225> 76 60<70 160.362> 129 45<210.382 281.069> 254 43<217.14 281.069> 266 33<38.3474 89.307> 326 60<138 366.371> 469 60<60 445>
LayerCount: 2
Back
SplineSet
132 442 m 1
 203 397 l 1
 284 444 l 1
279 389 m 1
 203 347 l 1
 135 387 l 1
214 286 m 0
 192 286 174 268 174 246 c 128
 174 224 192 206 214 206 c 128
 236 206 254 224 254 246 c 128
 254 268 236 286 214 286 c 0
129 248 m 0
 129 294 167 332 213 332 c 0
 259 332 297 294 297 248 c 0
 297 202 259 164 213 164 c 0
 167 164 129 202 129 248 c 0
326 99 m 0xdf40
 309 99 299 81 299 64 c 0
 299 47 309 29 326 29 c 0xdf40
 343 29 353 47 353 64 c 0xdec0
 353 81 343 99 326 99 c 0xdf40
326 310 m 18
 326 340 311 405 203 405 c 0
 115 405 81 334 81 286 c 4
 81 218 136 162 136 98 c 6
 136 70 l 13
 244 215 l 18
 275 255 249 318 268 291 c 0
 287 264 284 203 284 202 c 10
 136 0 l 29
 76 0 l 17
 76 98 l 2
 76 142 21 194 21 286 c 0
 21 385 109 455 203 455 c 0
 317 455 386 396 386 310 c 10
 386 124 l 1
 469 60 l 1
 469 445 l 1
 529 445 l 1
 529 0 l 1
 465 0 l 1
 385 60 l 1
 385 0 354 -10 330 -10 c 0
 274 -10 266 36 266 64 c 0
 266 116 298 138 326 138 c 1
 326 310 l 18
EndSplineSet
Fore
SplineSet
214 286 m 0xf9b0
 192 286 174 268 174 246 c 0
 174 224 192 206 214 206 c 0
 236 206 254 224 254 246 c 0
 254 268 236 286 214 286 c 0xf9b0
326 99 m 0
 309 99 299 81 299 64 c 0xf870
 299 47 309 29 326 29 c 0
 343 29 353 47 353 64 c 0
 353 81 343 99 326 99 c 0
326 310 m 2
 326 331 312 372 276 390 c 1
 203 347 l 1
 138 386 l 1
 104 364 81 318 81 286 c 0xfc70
 81 218 136 162 136 98 c 2
 136 70 l 1xfa30
 207 164 l 1
 170 164 129 203 129 248 c 0xf930
 129 294 167 332 213 332 c 0
 259 332 297 294 297 248 c 0
 297 229 291 211 280 197 c 2
 136 0 l 1
 76 0 l 1
 76 98 l 2xfab0
 76 142 21 194 21 286 c 0xfc30
 21 359 80 428 132 441 c 1
 203 397 l 1
 280 444 l 1
 340 432 386 374 386 310 c 2
 386 124 l 1
 469 60 l 1
 469 445 l 1
 529 445 l 1
 529 0 l 1
 465 0 l 1
 385 60 l 1
 385 0 354 -10 330 -10 c 0
 274 -10 266 36 266 64 c 0
 266 116 298 138 326 138 c 1
 326 310 l 2
EndSplineSet
EndChar

StartChar: uni0E13
Encoding: 209 3603 219
Width: 600
Flags: W
HStem: -10 40<121.396 190.604 440.672 497.924> 110 40<136.282 190.604> 405 50<145.122 266.219>
VStem: 76 60<147 264.146> 76 40<35.3964 105.607> 196 40<34.8947 105.105> 296 60<60 374.727> 440 60<140 445> 499 40<31.1064 88.6348>
LayerCount: 2
Back
SplineSet
399 60 m 4
 399 98 431 130 469 130 c 4
 508 130 539 98 539 60 c 4
 539 21 508 -10 469 -10 c 4
 431 -10 399 21 399 60 c 4
439 60 m 4
 439 42.9996 453 30 469 30 c 4
 486 30 499 43 499 60 c 4
 499 76 486 90 469 90 c 4
 453 90 439 76 439 60 c 4
356 60 m 13
 440 140 l 29
 440 445 l 21
 500 445 l 13
 500 80 l 21
 480 110 452 108 435 80 c 13
 356 0 l 21
 296 0 l 21
 295 0 296 290 296 290 c 6
 296 362 271 405 206 405 c 12
 161.003 405 132 378 110 341 c 5
 150 331 161 318 183 285 c 5
 157 271 136 241 136 214 c 6
 136 144 l 5
 76 70 l 13
 76 214 l 22
 76 241 96 270 123 285 c 5
 106 306 82 318 35 326 c 5
 87 402 115 455 206 455 c 4
 326 455 356 364 356 290 c 6
 356 60 l 13
76 70 m 4
 76 114.16 111.84 150 156 150 c 4
 200.16 150 236 114.16 236 70 c 4
 236 25.8398 200.16 -10 156 -10 c 4
 111.84 -10 76 25.8398 76 70 c 4
116 70 m 4
 116 48 134 30 156 30 c 4
 178 30 196 48 196 70 c 4
 196 92 178 110 156 110 c 4
 134 110 116 92 116 70 c 4
EndSplineSet
Fore
SplineSet
116 70 m 0xee
 116 48 134 30 156 30 c 0
 178 30 196 48 196 70 c 0
 196 92 178 110 156 110 c 0
 134 110 116 92 116 70 c 0xee
356 60 m 1
 440 140 l 1
 440 445 l 1
 500 445 l 1
 500 123 l 1xf7
 523 111 539 87 539 60 c 0
 539 21 508 -10 469 -10 c 0
 436 -10 407 13 401 45 c 1
 356 0 l 1
 296 0 l 1
 296 290 l 2
 296 362 271 405 206 405 c 0
 161 405 132 378 110 341 c 1
 150 331 161 318 183 285 c 1
 157 271 136 241 136 214 c 2
 136 147 l 1xf680
 142 149 149 150 156 150 c 0
 200 150 236 114 236 70 c 0
 236 26 200 -10 156 -10 c 0
 112 -10 76 26 76 70 c 2xee
 76 214 l 2xf6
 76 241 96 270 123 285 c 1
 106 306 82 318 35 326 c 1
 87 402 115 455 206 455 c 0
 326 455 356 364 356 290 c 2
 356 60 l 1
439 60 m 0
 439 43 453 30 469 30 c 0
 486 30 499 43 499 60 c 0xe680
 499 76 486 90 469 90 c 0
 453 90 439 76 439 60 c 0
EndSplineSet
EndChar

StartChar: uni0E14
Encoding: 210 3604 220
Width: 600
Flags: W
HStem: 0 21G<160 236.126 440 500> 286 46<277.496 348.427> 405 50<226.385 390.156>
VStem: 105 60<204.424 346.776> 160 60<70 160.362> 228 45<210.374 281.069> 353 43<210.541 281.069> 440 60<0 358.409>
LayerCount: 2
Back
SplineSet
313 286 m 4
 291 286 273 268 273 246 c 132
 273 224 291 206 313 206 c 132
 335 206 353 224 353 246 c 132
 353 268 335 286 313 286 c 4
228 248 m 4
 228 294 266 332 312 332 c 4
 358 332 396 294 396 248 c 4
 396 202 358 164 312 164 c 4
 266 164 228 202 228 248 c 4
381.333 200.999 m 13
 220 0 l 29
 160 0 l 17
 160 98 l 2
 160 142 105 194 105 286 c 0
 105 385 208 455 302 455 c 0
 416 455 500 395 500 310 c 10
 500 0 l 25
 440 0 l 25
 440 310 l 18
 440 339 410 405 302 405 c 0
 214 405 165 334 165 286 c 0
 165 218 220 162 220 98 c 2
 220 70 l 13
 347.5 224.5 l 21
 381.333 200.999 l 13
EndSplineSet
Fore
SplineSet
228 248 m 0xef
 228 294 266 332 312 332 c 0
 358 332 396 294 396 248 c 0
 396 226 386 206 374 191 c 2
 220 0 l 1
 160 0 l 1
 160 98 l 2xef
 160 142 105 194 105 286 c 0
 105 385 208 455 302 455 c 0
 416 455 500 395 500 310 c 2
 500 0 l 1
 440 0 l 1
 440 310 l 2
 440 339 410 405 302 405 c 0
 214 405 165 334 165 286 c 0xf7
 165 218 220 162 220 98 c 2
 220 70 l 1
 298 165 l 1
 259 172 228 207 228 248 c 0xef
313 286 m 0
 291 286 273 268 273 246 c 0
 273 224 291 206 313 206 c 0
 335 206 353 224 353 246 c 0
 353 268 335 286 313 286 c 0
EndSplineSet
EndChar

StartChar: uni0E15
Encoding: 211 3605 221
Width: 600
Flags: W
HStem: 0 21G<160 236.126 440 500> 286 46<277.496 348.427> 425 20G<348.532 418.5>
VStem: 105 60<203.652 344.12> 160 60<70 159.756> 228 45<210.374 281.069> 353 43<218.042 281.069> 440 60<0 357.17>
LayerCount: 2
Back
SplineSet
313 286 m 0
 291 286 273 268 273 246 c 128
 273 224 291 206 313 206 c 128
 335 206 353 224 353 246 c 128
 353 268 335 286 313 286 c 0
228 248 m 0
 228 294 266 332 312 332 c 0
 358 332 396 294 396 248 c 0
 396 202 358 164 312 164 c 0
 266 164 228 202 228 248 c 0
220 0 m 17
 160 0 l 1
 160 98 l 2xd6
 160 142 105 194 105 286 c 0
 105 360 162 419 231 443 c 1
 302 398 l 1
 383 445 l 1
 454 423 500 373 500 310 c 2
 500 0 l 1
 440 0 l 1
 440 310 l 2
 440 330 420 369 378 390 c 1
 302 348 l 1
 234 388 l 1xe6
 193 364 165 319 165 286 c 0xe6
 165 218 217.716 161.959 220 98 c 2
 220 70 l 9
 347.5 224.5 l 17
 381.333 200.999 l 9
 220 0 l 17
EndSplineSet
Fore
SplineSet
220 0 m 1xef
 160 0 l 1
 160 98 l 2xef
 160 142 105 194 105 286 c 0
 105 360 162 419 231 443 c 1
 302 398 l 1
 383 445 l 1
 454 423 500 373 500 310 c 2
 500 0 l 1
 440 0 l 1
 440 310 l 2
 440 330 420 369 378 390 c 1
 302 348 l 1
 234 388 l 1
 193 364 165 319 165 286 c 0xf7
 165 218 220 157 220 98 c 2
 220 70 l 1
 298 165 l 1
 259 172 228 207 228 248 c 0
 228 294 266 332 312 332 c 0
 358 332 396 294 396 248 c 0
 396 226 387 208 374 191 c 2
 220 0 l 1xef
313 286 m 0
 291 286 273 268 273 246 c 0
 273 224 291 206 313 206 c 0
 335 206 353 224 353 246 c 0
 353 268 335 286 313 286 c 0
EndSplineSet
EndChar

StartChar: uni0E16
Encoding: 212 3606 222
Width: 600
Flags: W
HStem: -10 50<184.618 255.382> 120 50<193.68 255.382> 405 50<200.533 372.789>
VStem: 130 60<165 264.146> 130 50<44.8438 115.607> 260 50<44.6184 115.382> 440 60<0 346.091>
LayerCount: 2
Back
SplineSet
130 80 m 5
 130 214 l 6
 130 241 150 270 177 285 c 5
 160 306 121 318 74 326 c 5
 126 402 197 455 288 455 c 4
 408 455 500 364 500 290 c 14
 500 0 l 29
 440 0 l 29
 440 290 l 22
 440 362 353 405 288 405 c 12
 228.319 405 182 381 149 341 c 5
 189 331 215 318 237 285 c 5
 211 271 190 241 190 214 c 6
 190 144 l 5
 130 80 l 5
130 80 m 4
 130 130 170 170 220 170 c 4
 270 170 310 130 310 80 c 4
 310 30 270 -10 220 -10 c 4
 170 -10 130 30 130 80 c 4
180 80 m 4
 180 58 198 40 220 40 c 4
 242 40 260 58 260 80 c 4
 260 102 242 120 220 120 c 4
 198 120 180 102 180 80 c 4
EndSplineSet
Fore
SplineSet
180 80 m 0xee
 180 58 198 40 220 40 c 0
 242 40 260 58 260 80 c 0
 260 102 242 120 220 120 c 0
 198 120 180 102 180 80 c 0xee
190 165 m 1xf6
 199 168 209 170 220 170 c 0
 270 170 310 130 310 80 c 0
 310 30 270 -10 220 -10 c 0
 170 -10 130 30 130 80 c 2xee
 130 214 l 2
 130 241 150 270 177 285 c 1
 160 306 121 318 74 326 c 1
 126 402 197 455 288 455 c 0
 408 455 500 364 500 290 c 2
 500 0 l 1
 440 0 l 1
 440 290 l 2
 440 362 353 405 288 405 c 0
 228 405 182 381 149 341 c 1
 189 331 215 318 237 285 c 1
 211 271 190 241 190 214 c 2
 190 165 l 1xf6
EndSplineSet
EndChar

StartChar: uni0E17
Encoding: 213 3607 223
Width: 600
Flags: W
HStem: 0 21G<160 227.923 440 500> 275 50<94.6184 156.32> 405 50<94.6184 165.382 390.053 432.685>
VStem: 40 50<329.618 400.382> 160 60<137 280> 170 50<329.393 400.156> 440 60<0 400.993>
LayerCount: 2
Back
SplineSet
40 365 m 0
 40 415 80 455 130 455 c 0
 180 455 220 415 220 365 c 0
 220 315 180 275 130 275 c 0
 80 275 40 315 40 365 c 0
90 365 m 0
 90 343 108 325 130 325 c 0
 152 325 170 343 170 365 c 0
 170 387 152 405 130 405 c 0
 108 405 90 387 90 365 c 0
160 304 m 13xee
 160 0 l 25
 219 0 l 17
 335 260 l 2
 360 322 393 405 408 405 c 0
 430 405 440 379 440 336 c 2
 440 0 l 9
 500 0 l 25
 500 336 l 2
 500 439 449 455 408 455 c 0
 353 455 318 351 286 273 c 10
 220 137 l 25
 220 365 l 1
 160 304 l 13xee
EndSplineSet
Fore
SplineSet
90 365 m 0xf6
 90 343 108 325 130 325 c 0
 152 325 170 343 170 365 c 0
 170 387 152 405 130 405 c 0
 108 405 90 387 90 365 c 0xf6
40 365 m 0
 40 415 80 455 130 455 c 0
 180 455 220 415 220 365 c 2xf6
 220 137 l 1
 286 273 l 2
 318 351 353 455 408 455 c 0
 449 455 500 439 500 336 c 2
 500 0 l 1
 440 0 l 1
 440 336 l 2
 440 379 430 405 408 405 c 0
 393 405 360 322 335 260 c 2
 219 0 l 1
 160 0 l 1
 160 280 l 1xfa
 151 277 141 275 130 275 c 0
 80 275 40 315 40 365 c 0
EndSplineSet
EndChar

